%
M48
M71
T01C0.300
T02C0.600
T03C1.000
T04C1.016
T05C1.100
T06C1.300
T07C2.200
%
T01
X21273Y37148
X18574Y43180
X16828Y51117
X20638Y51117
X24447Y51117
X28257Y51117
X31909Y46355
X36751Y46037
X41275Y40005
X43021Y40005
X43974Y40005
X48260Y46037
X54292Y13970
X52546Y10795
X13017Y51117
X9208Y51117
X7620Y41910
T02
X39211Y41196
X38576Y42228
X39846Y42228
X47149Y42228
X48419Y42228
X48419Y40958
X48419Y39688
X50641Y39688
X50641Y40958
X55086Y40640
X56674Y40640
X55880Y34290
X54927Y8890
X54292Y7620
T03
X17780Y2286
X17780Y4826
X17780Y7366
X17780Y9906
X17780Y12446
X17780Y14986
X17780Y17526
X17780Y20066
X17780Y22606
X17780Y25146
X17780Y29210
X17780Y31750
X17780Y34290
X17780Y36830
X17780Y39370
X17780Y41910
X17780Y44450
X17780Y46990
X40323Y17145
X42228Y17145
X44132Y17145
X44132Y15240
X42228Y15240
X42228Y13335
X44132Y13335
X40323Y13335
X40323Y15240
X41037Y35322
X42783Y35322
X42783Y37068
X41037Y37068
X66040Y36830
X66040Y39370
X66040Y41910
X66040Y44450
X66040Y46990
X66040Y34290
X66040Y29210
X66040Y26670
X66040Y24130
X66040Y21590
X66040Y19050
X66040Y16510
X66040Y13970
X66040Y11430
T04
X1270Y2540
X3810Y2540
X6350Y2540
X6350Y5080
X6350Y7620
X3810Y7620
X3810Y5080
X1270Y5080
X1270Y7620
X1270Y10160
X1270Y12700
X3810Y12700
X3810Y10160
X6350Y10160
X6350Y12700
X6350Y15240
X6350Y17780
X3810Y17780
X3810Y15240
X1270Y15240
X1270Y17780
X1270Y20320
X1270Y22860
X3810Y22860
X3810Y20320
X6350Y20320
X6350Y22860
X6350Y25400
X6350Y27940
X3810Y27940
X3810Y25400
X1270Y25400
X1270Y27940
X1270Y30480
X1270Y33020
X3810Y33020
X3810Y30480
X6350Y30480
X6350Y33020
X6350Y35560
X6350Y38100
X3810Y38100
X3810Y35560
X1270Y35560
X1270Y38100
X1270Y40640
X1270Y43180
X3810Y43180
X3810Y40640
X6350Y40640
X6350Y43180
X6350Y45720
X3810Y45720
X1270Y45720
X8890Y45720
X11430Y45720
X13970Y45720
X13970Y43180
X13970Y40640
X11430Y40640
X11430Y43180
X8890Y43180
X8890Y40640
X8890Y38100
X8890Y35560
X11430Y35560
X11430Y38100
X13970Y38100
X13970Y35560
X13970Y33020
X13970Y30480
X11430Y30480
X11430Y33020
X8890Y33020
X8890Y30480
X8890Y27940
X8890Y25400
X11430Y25400
X11430Y27940
X13970Y27940
X13970Y25400
X13970Y22860
X13970Y20320
X11430Y20320
X11430Y22860
X8890Y22860
X8890Y20320
X8890Y17780
X8890Y15240
X11430Y15240
X11430Y17780
X13970Y17780
X13970Y15240
X13970Y12700
X13970Y10160
X11430Y10160
X11430Y12700
X8890Y12700
X8890Y10160
X8890Y7620
X8890Y5080
X11430Y5080
X11430Y7620
X13970Y7620
X13970Y5080
X13970Y2540
X11430Y2540
X8890Y2540
X25400Y2540
X25400Y5080
X25400Y7620
X25400Y10160
X25400Y12700
X25400Y15240
X25400Y17780
X25400Y20320
X25400Y22860
X25400Y25400
X25400Y27940
X25400Y30480
X25400Y33020
X25400Y35560
X24130Y39370
X26670Y39370
X26670Y41910
X24130Y41910
X21590Y41910
X21590Y39370
X29210Y39370
X29210Y36830
X31750Y36830
X31750Y39370
X34290Y39370
X34290Y36830
X34290Y34290
X34290Y31750
X31750Y31750
X31750Y34290
X31750Y29210
X34290Y29210
X36830Y29210
X39370Y29210
X41910Y29210
X41910Y31750
X39370Y31750
X36830Y31750
X36830Y34290
X36830Y36830
X36830Y39370
X36830Y41910
X36830Y44450
X39370Y44450
X41910Y44450
X44450Y44450
X46990Y44450
X52070Y46990
X54610Y46990
X55880Y43180
X55880Y38100
X52070Y34290
X52070Y31750
X49530Y31750
X49530Y34290
X46990Y34290
X46990Y31750
X44450Y31750
X44450Y29210
X46990Y29210
X49530Y29210
X49530Y36830
X46990Y36830
X58420Y33020
X58420Y30480
X58420Y27940
X58420Y25400
X58420Y22860
X58420Y20320
X58420Y17780
X58420Y15240
X58420Y12700
X58420Y10160
X58420Y7620
X58420Y5080
X69850Y2540
X69850Y5080
X69850Y7620
X69850Y10160
X69850Y12700
X69850Y15240
X69850Y17780
X69850Y20320
X69850Y22860
X69850Y25400
X69850Y27940
X69850Y30480
X69850Y33020
X72390Y33020
X72390Y30480
X74930Y30480
X74930Y33020
X77470Y33020
X77470Y30480
X77470Y27940
X77470Y25400
X74930Y25400
X74930Y27940
X72390Y27940
X72390Y25400
X72390Y22860
X72390Y20320
X74930Y20320
X74930Y22860
X77470Y22860
X77470Y20320
X77470Y17780
X77470Y15240
X74930Y15240
X74930Y17780
X72390Y17780
X72390Y15240
X72390Y12700
X72390Y10160
X74930Y10160
X74930Y12700
X77470Y12700
X77470Y10160
X77470Y7620
X77470Y5080
X74930Y5080
X74930Y7620
X72390Y7620
X72390Y5080
X72390Y2540
X80010Y5080
X80010Y7620
X82550Y7620
X82550Y5080
X82550Y10160
X82550Y12700
X80010Y12700
X80010Y10160
X80010Y15240
X80010Y17780
X82550Y17780
X82550Y15240
X82550Y20320
X82550Y22860
X80010Y22860
X80010Y20320
X80010Y25400
X80010Y27940
X82550Y27940
X82550Y25400
X82550Y30480
X82550Y33020
X80010Y33020
X80010Y30480
X72390Y38100
X72390Y40640
X72390Y43180
X73343Y47784
X75883Y47784
X75883Y50324
X73343Y50324
X70803Y50324
X70803Y47784
X62230Y40640
X62230Y38100
X34290Y41910
X31750Y41910
X29210Y41910
T05
X55824Y1766
X62259Y1766
X76171Y1726
X82606Y1726
T06
X79985Y38079
X79985Y43159
T07
X2000Y50000
X66000Y2000
X82000Y50000
M30
