G75*
%MOMM*%
%OFA0B0*%
%FSLAX33Y33*%
%IPPOS*%
%LPD*%
%AMOC8*
5,1,8,0,0,1.08239X$1,22.5*
%
%ADD10C,0.406*%
%ADD11C,0.000*%
%ADD12C,0.102*%
%ADD13C,0.152*%
%ADD14C,0.127*%
D10*
X00000Y00000D02*
X00000Y52060D01*
X83820Y52070D01*
X83820Y00000D01*
X00000Y00000D01*
D11*
X15240Y-16510D02*
X68580Y-16510D01*
X68580Y49530D01*
X66040Y49530D01*
X63500Y52070D01*
X30734Y52070D01*
X28194Y49530D01*
X16764Y49530D01*
X15240Y48006D01*
X15240Y-16510D01*
X64900Y02000D02*
X64902Y02066D01*
X64908Y02131D01*
X64918Y02196D01*
X64931Y02261D01*
X64949Y02324D01*
X64970Y02387D01*
X64995Y02447D01*
X65024Y02507D01*
X65056Y02564D01*
X65091Y02620D01*
X65130Y02673D01*
X65172Y02724D01*
X65216Y02772D01*
X65264Y02817D01*
X65314Y02860D01*
X65367Y02899D01*
X65422Y02936D01*
X65479Y02969D01*
X65538Y02998D01*
X65598Y03024D01*
X65660Y03046D01*
X65723Y03065D01*
X65787Y03079D01*
X65852Y03090D01*
X65918Y03097D01*
X65984Y03100D01*
X66049Y03099D01*
X66115Y03094D01*
X66180Y03085D01*
X66245Y03072D01*
X66308Y03056D01*
X66371Y03036D01*
X66432Y03011D01*
X66492Y02984D01*
X66550Y02953D01*
X66606Y02918D01*
X66660Y02880D01*
X66711Y02839D01*
X66760Y02795D01*
X66806Y02748D01*
X66850Y02699D01*
X66890Y02647D01*
X66927Y02592D01*
X66961Y02536D01*
X66991Y02477D01*
X67018Y02417D01*
X67041Y02356D01*
X67060Y02293D01*
X67076Y02229D01*
X67088Y02164D01*
X67096Y02099D01*
X67100Y02033D01*
X67100Y01967D01*
X67096Y01901D01*
X67088Y01836D01*
X67076Y01771D01*
X67060Y01707D01*
X67041Y01644D01*
X67018Y01583D01*
X66991Y01523D01*
X66961Y01464D01*
X66927Y01408D01*
X66890Y01353D01*
X66850Y01301D01*
X66806Y01252D01*
X66760Y01205D01*
X66711Y01161D01*
X66660Y01120D01*
X66606Y01082D01*
X66550Y01047D01*
X66492Y01016D01*
X66432Y00989D01*
X66371Y00964D01*
X66308Y00944D01*
X66245Y00928D01*
X66180Y00915D01*
X66115Y00906D01*
X66049Y00901D01*
X65984Y00900D01*
X65918Y00903D01*
X65852Y00910D01*
X65787Y00921D01*
X65723Y00935D01*
X65660Y00954D01*
X65598Y00976D01*
X65538Y01002D01*
X65479Y01031D01*
X65422Y01064D01*
X65367Y01101D01*
X65314Y01140D01*
X65264Y01183D01*
X65216Y01228D01*
X65172Y01276D01*
X65130Y01327D01*
X65091Y01380D01*
X65056Y01436D01*
X65024Y01493D01*
X64995Y01553D01*
X64970Y01613D01*
X64949Y01676D01*
X64931Y01739D01*
X64918Y01804D01*
X64908Y01869D01*
X64902Y01934D01*
X64900Y02000D01*
X80900Y50000D02*
X80902Y50066D01*
X80908Y50131D01*
X80918Y50196D01*
X80931Y50261D01*
X80949Y50324D01*
X80970Y50387D01*
X80995Y50447D01*
X81024Y50507D01*
X81056Y50564D01*
X81091Y50620D01*
X81130Y50673D01*
X81172Y50724D01*
X81216Y50772D01*
X81264Y50817D01*
X81314Y50860D01*
X81367Y50899D01*
X81422Y50936D01*
X81479Y50969D01*
X81538Y50998D01*
X81598Y51024D01*
X81660Y51046D01*
X81723Y51065D01*
X81787Y51079D01*
X81852Y51090D01*
X81918Y51097D01*
X81984Y51100D01*
X82049Y51099D01*
X82115Y51094D01*
X82180Y51085D01*
X82245Y51072D01*
X82308Y51056D01*
X82371Y51036D01*
X82432Y51011D01*
X82492Y50984D01*
X82550Y50953D01*
X82606Y50918D01*
X82660Y50880D01*
X82711Y50839D01*
X82760Y50795D01*
X82806Y50748D01*
X82850Y50699D01*
X82890Y50647D01*
X82927Y50592D01*
X82961Y50536D01*
X82991Y50477D01*
X83018Y50417D01*
X83041Y50356D01*
X83060Y50293D01*
X83076Y50229D01*
X83088Y50164D01*
X83096Y50099D01*
X83100Y50033D01*
X83100Y49967D01*
X83096Y49901D01*
X83088Y49836D01*
X83076Y49771D01*
X83060Y49707D01*
X83041Y49644D01*
X83018Y49583D01*
X82991Y49523D01*
X82961Y49464D01*
X82927Y49408D01*
X82890Y49353D01*
X82850Y49301D01*
X82806Y49252D01*
X82760Y49205D01*
X82711Y49161D01*
X82660Y49120D01*
X82606Y49082D01*
X82550Y49047D01*
X82492Y49016D01*
X82432Y48989D01*
X82371Y48964D01*
X82308Y48944D01*
X82245Y48928D01*
X82180Y48915D01*
X82115Y48906D01*
X82049Y48901D01*
X81984Y48900D01*
X81918Y48903D01*
X81852Y48910D01*
X81787Y48921D01*
X81723Y48935D01*
X81660Y48954D01*
X81598Y48976D01*
X81538Y49002D01*
X81479Y49031D01*
X81422Y49064D01*
X81367Y49101D01*
X81314Y49140D01*
X81264Y49183D01*
X81216Y49228D01*
X81172Y49276D01*
X81130Y49327D01*
X81091Y49380D01*
X81056Y49436D01*
X81024Y49493D01*
X80995Y49553D01*
X80970Y49613D01*
X80949Y49676D01*
X80931Y49739D01*
X80918Y49804D01*
X80908Y49869D01*
X80902Y49934D01*
X80900Y50000D01*
X00900Y50000D02*
X00902Y50066D01*
X00908Y50131D01*
X00918Y50196D01*
X00931Y50261D01*
X00949Y50324D01*
X00970Y50387D01*
X00995Y50447D01*
X01024Y50507D01*
X01056Y50564D01*
X01091Y50620D01*
X01130Y50673D01*
X01172Y50724D01*
X01216Y50772D01*
X01264Y50817D01*
X01314Y50860D01*
X01367Y50899D01*
X01422Y50936D01*
X01479Y50969D01*
X01538Y50998D01*
X01598Y51024D01*
X01660Y51046D01*
X01723Y51065D01*
X01787Y51079D01*
X01852Y51090D01*
X01918Y51097D01*
X01984Y51100D01*
X02049Y51099D01*
X02115Y51094D01*
X02180Y51085D01*
X02245Y51072D01*
X02308Y51056D01*
X02371Y51036D01*
X02432Y51011D01*
X02492Y50984D01*
X02550Y50953D01*
X02606Y50918D01*
X02660Y50880D01*
X02711Y50839D01*
X02760Y50795D01*
X02806Y50748D01*
X02850Y50699D01*
X02890Y50647D01*
X02927Y50592D01*
X02961Y50536D01*
X02991Y50477D01*
X03018Y50417D01*
X03041Y50356D01*
X03060Y50293D01*
X03076Y50229D01*
X03088Y50164D01*
X03096Y50099D01*
X03100Y50033D01*
X03100Y49967D01*
X03096Y49901D01*
X03088Y49836D01*
X03076Y49771D01*
X03060Y49707D01*
X03041Y49644D01*
X03018Y49583D01*
X02991Y49523D01*
X02961Y49464D01*
X02927Y49408D01*
X02890Y49353D01*
X02850Y49301D01*
X02806Y49252D01*
X02760Y49205D01*
X02711Y49161D01*
X02660Y49120D01*
X02606Y49082D01*
X02550Y49047D01*
X02492Y49016D01*
X02432Y48989D01*
X02371Y48964D01*
X02308Y48944D01*
X02245Y48928D01*
X02180Y48915D01*
X02115Y48906D01*
X02049Y48901D01*
X01984Y48900D01*
X01918Y48903D01*
X01852Y48910D01*
X01787Y48921D01*
X01723Y48935D01*
X01660Y48954D01*
X01598Y48976D01*
X01538Y49002D01*
X01479Y49031D01*
X01422Y49064D01*
X01367Y49101D01*
X01314Y49140D01*
X01264Y49183D01*
X01216Y49228D01*
X01172Y49276D01*
X01130Y49327D01*
X01091Y49380D01*
X01056Y49436D01*
X01024Y49493D01*
X00995Y49553D01*
X00970Y49613D01*
X00949Y49676D01*
X00931Y49739D01*
X00918Y49804D01*
X00908Y49869D01*
X00902Y49934D01*
X00900Y50000D01*
D12*
X04056Y46349D02*
X03861Y46154D01*
X03861Y45764D01*
X04056Y45570D01*
X04835Y46349D01*
X04056Y46349D01*
X04835Y46349D02*
X05030Y46154D01*
X05030Y45764D01*
X04835Y45570D01*
X04056Y45570D01*
X04835Y45180D02*
X04056Y44400D01*
X03861Y44400D01*
X04056Y44010D02*
X03861Y43815D01*
X03861Y43426D01*
X04056Y43231D01*
X04835Y43231D01*
X05030Y43426D01*
X05030Y43815D01*
X04835Y44010D01*
X05030Y44400D02*
X05030Y45180D01*
X04835Y45180D01*
X06401Y45180D02*
X06401Y44400D01*
X06401Y44790D02*
X07570Y44790D01*
X07180Y44400D01*
X07375Y44010D02*
X07570Y43815D01*
X07570Y43426D01*
X07375Y43231D01*
X06596Y43231D01*
X06401Y43426D01*
X06401Y43815D01*
X06596Y44010D01*
X06596Y45570D02*
X07375Y46349D01*
X06596Y46349D01*
X06401Y46154D01*
X06401Y45764D01*
X06596Y45570D01*
X07375Y45570D01*
X07570Y45764D01*
X07570Y46154D01*
X07375Y46349D01*
X08941Y44985D02*
X08941Y44595D01*
X09136Y44400D01*
X09136Y44010D02*
X08941Y43815D01*
X08941Y43426D01*
X09136Y43231D01*
X09915Y43231D01*
X10110Y43426D01*
X10110Y43815D01*
X09915Y44010D01*
X09915Y44400D02*
X09720Y44400D01*
X09525Y44595D01*
X09525Y45180D01*
X09136Y45180D02*
X09915Y45180D01*
X10110Y44985D01*
X10110Y44595D01*
X09915Y44400D01*
X09136Y45180D02*
X08941Y44985D01*
X11481Y44985D02*
X11481Y44595D01*
X11676Y44400D01*
X11871Y44400D01*
X12065Y44595D01*
X12065Y44985D01*
X11871Y45180D01*
X11676Y45180D01*
X11481Y44985D01*
X12065Y44985D02*
X12260Y45180D01*
X12455Y45180D01*
X12650Y44985D01*
X12650Y44595D01*
X12455Y44400D01*
X12260Y44400D01*
X12065Y44595D01*
X11676Y44010D02*
X11481Y43815D01*
X11481Y43426D01*
X11676Y43231D01*
X12455Y43231D01*
X12650Y43426D01*
X12650Y43815D01*
X12455Y44010D01*
X14021Y43815D02*
X14021Y43426D01*
X14216Y43231D01*
X14995Y43231D01*
X15190Y43426D01*
X15190Y43815D01*
X14995Y44010D01*
X14605Y44400D02*
X14605Y44985D01*
X14411Y45180D01*
X14216Y45180D01*
X14021Y44985D01*
X14021Y44595D01*
X14216Y44400D01*
X14605Y44400D01*
X14995Y44790D01*
X15190Y45180D01*
X15190Y45570D02*
X15190Y46349D01*
X14995Y46349D01*
X14216Y45570D01*
X14021Y45570D01*
X14216Y44010D02*
X14021Y43815D01*
X22124Y34875D02*
X22709Y34290D01*
X21929Y34290D01*
X22124Y33706D02*
X22124Y34875D01*
X23098Y34680D02*
X23098Y34485D01*
X23293Y34290D01*
X23098Y34096D01*
X23098Y33901D01*
X23293Y33706D01*
X23683Y33706D01*
X23878Y33901D01*
X24268Y33706D02*
X24658Y34096D01*
X24463Y34096D02*
X25047Y34096D01*
X25047Y33706D02*
X25047Y34875D01*
X24463Y34875D01*
X24268Y34680D01*
X24268Y34290D01*
X24463Y34096D01*
X23878Y34680D02*
X23683Y34875D01*
X23293Y34875D01*
X23098Y34680D01*
X23293Y34290D02*
X23488Y34290D01*
X23293Y32335D02*
X23098Y32140D01*
X23098Y31945D01*
X23293Y31750D01*
X23098Y31556D01*
X23098Y31361D01*
X23293Y31166D01*
X23683Y31166D01*
X23878Y31361D01*
X24268Y31166D02*
X24658Y31556D01*
X24463Y31556D02*
X25047Y31556D01*
X25047Y31166D02*
X25047Y32335D01*
X24463Y32335D01*
X24268Y32140D01*
X24268Y31750D01*
X24463Y31556D01*
X23878Y32140D02*
X23683Y32335D01*
X23293Y32335D01*
X23293Y31750D02*
X23488Y31750D01*
X22709Y32140D02*
X22514Y32335D01*
X22124Y32335D01*
X21929Y32140D01*
X21929Y31945D01*
X22709Y31166D01*
X21929Y31166D01*
X22319Y29795D02*
X22319Y28626D01*
X22709Y28626D02*
X21929Y28626D01*
X22709Y29405D02*
X22319Y29795D01*
X23098Y29600D02*
X23098Y29405D01*
X23293Y29210D01*
X23098Y29016D01*
X23098Y28821D01*
X23293Y28626D01*
X23683Y28626D01*
X23878Y28821D01*
X24268Y28626D02*
X24658Y29016D01*
X24463Y29016D02*
X25047Y29016D01*
X25047Y28626D02*
X25047Y29795D01*
X24463Y29795D01*
X24268Y29600D01*
X24268Y29210D01*
X24463Y29016D01*
X23878Y29600D02*
X23683Y29795D01*
X23293Y29795D01*
X23098Y29600D01*
X23293Y29210D02*
X23488Y29210D01*
X23293Y27255D02*
X23098Y27060D01*
X23098Y26865D01*
X23293Y26670D01*
X23098Y26476D01*
X23098Y26281D01*
X23293Y26086D01*
X23683Y26086D01*
X23878Y26281D01*
X24268Y26086D02*
X24658Y26476D01*
X24463Y26476D02*
X25047Y26476D01*
X25133Y26576D02*
X26303Y26576D01*
X25913Y26186D01*
X25133Y26186D02*
X25133Y26966D01*
X25047Y27255D02*
X24463Y27255D01*
X24268Y27060D01*
X24268Y26670D01*
X24463Y26476D01*
X25047Y26086D02*
X25047Y27255D01*
X23878Y27060D02*
X23683Y27255D01*
X23293Y27255D01*
X23293Y26670D02*
X23488Y26670D01*
X22709Y26281D02*
X22514Y26086D01*
X22124Y26086D01*
X21929Y26281D01*
X21929Y27060D01*
X22709Y26281D01*
X22709Y27060D01*
X22514Y27255D01*
X22124Y27255D01*
X21929Y27060D01*
X22124Y24715D02*
X22514Y24715D01*
X22709Y24520D01*
X22709Y24325D01*
X22514Y24130D01*
X21929Y24130D01*
X21929Y23741D02*
X21929Y24520D01*
X22124Y24715D01*
X21929Y23741D02*
X22124Y23546D01*
X22514Y23546D01*
X22709Y23741D01*
X23098Y23546D02*
X23878Y23546D01*
X23098Y24325D01*
X23098Y24520D01*
X23293Y24715D01*
X23683Y24715D01*
X23878Y24520D01*
X24268Y24520D02*
X24268Y24130D01*
X24463Y23936D01*
X25047Y23936D01*
X25133Y23848D02*
X26303Y23848D01*
X26303Y24432D01*
X26108Y24627D01*
X25718Y24627D01*
X25523Y24432D01*
X25523Y23848D01*
X25523Y24237D02*
X25133Y24627D01*
X25047Y24715D02*
X24463Y24715D01*
X24268Y24520D01*
X24658Y23936D02*
X24268Y23546D01*
X25047Y23546D02*
X25047Y24715D01*
X25133Y25017D02*
X25133Y25797D01*
X25133Y25407D02*
X26303Y25407D01*
X25913Y25017D01*
X27485Y27038D02*
X28265Y27038D01*
X27875Y27038D02*
X27875Y28208D01*
X28265Y27818D01*
X28655Y28208D02*
X29434Y28208D01*
X29044Y28208D02*
X29044Y27038D01*
X25047Y22175D02*
X24463Y22175D01*
X24268Y21980D01*
X24268Y21590D01*
X24463Y21396D01*
X25047Y21396D01*
X24658Y21396D02*
X24268Y21006D01*
X23878Y21006D02*
X23098Y21785D01*
X23098Y21980D01*
X23293Y22175D01*
X23683Y22175D01*
X23878Y21980D01*
X23878Y21006D02*
X23098Y21006D01*
X22709Y21201D02*
X22709Y21396D01*
X22514Y21590D01*
X22124Y21590D01*
X21929Y21396D01*
X21929Y21201D01*
X22124Y21006D01*
X22514Y21006D01*
X22709Y21201D01*
X22514Y21590D02*
X22709Y21785D01*
X22709Y21980D01*
X22514Y22175D01*
X22124Y22175D01*
X21929Y21980D01*
X21929Y21785D01*
X22124Y21590D01*
X21929Y19635D02*
X21929Y19440D01*
X22709Y18661D01*
X22709Y18466D01*
X23098Y18466D02*
X23878Y18466D01*
X23098Y19245D01*
X23098Y19440D01*
X23293Y19635D01*
X23683Y19635D01*
X23878Y19440D01*
X24268Y19440D02*
X24268Y19050D01*
X24463Y18856D01*
X25047Y18856D01*
X24658Y18856D02*
X24268Y18466D01*
X25047Y18466D02*
X25047Y19635D01*
X24463Y19635D01*
X24268Y19440D01*
X25047Y21006D02*
X25047Y22175D01*
X22709Y19635D02*
X21929Y19635D01*
X21929Y17095D02*
X22709Y17095D01*
X22709Y16510D01*
X22319Y16705D01*
X22124Y16705D01*
X21929Y16510D01*
X21929Y16121D01*
X22124Y15926D01*
X22514Y15926D01*
X22709Y16121D01*
X23098Y15926D02*
X23878Y15926D01*
X23098Y16705D01*
X23098Y16900D01*
X23293Y17095D01*
X23683Y17095D01*
X23878Y16900D01*
X24268Y16900D02*
X24268Y16510D01*
X24463Y16316D01*
X25047Y16316D01*
X24658Y16316D02*
X24268Y15926D01*
X25047Y15926D02*
X25047Y17095D01*
X24463Y17095D01*
X24268Y16900D01*
X24463Y14555D02*
X24268Y14360D01*
X24268Y13970D01*
X24463Y13776D01*
X25047Y13776D01*
X24658Y13776D02*
X24268Y13386D01*
X23878Y13386D02*
X23098Y14165D01*
X23098Y14360D01*
X23293Y14555D01*
X23683Y14555D01*
X23878Y14360D01*
X24463Y14555D02*
X25047Y14555D01*
X25047Y13386D01*
X23878Y13386D02*
X23098Y13386D01*
X22709Y13970D02*
X22124Y14555D01*
X22124Y13386D01*
X21929Y13970D02*
X22709Y13970D01*
X22514Y12015D02*
X22124Y12015D01*
X21929Y11820D01*
X21929Y11625D01*
X22124Y11430D01*
X21929Y11236D01*
X21929Y11041D01*
X22124Y10846D01*
X22514Y10846D01*
X22709Y11041D01*
X23098Y10846D02*
X23878Y10846D01*
X23098Y11625D01*
X23098Y11820D01*
X23293Y12015D01*
X23683Y12015D01*
X23878Y11820D01*
X24268Y11820D02*
X24268Y11430D01*
X24463Y11236D01*
X25047Y11236D01*
X24658Y11236D02*
X24268Y10846D01*
X25047Y10846D02*
X25047Y12015D01*
X24463Y12015D01*
X24268Y11820D01*
X22709Y11820D02*
X22514Y12015D01*
X22319Y11430D02*
X22124Y11430D01*
X22124Y09475D02*
X21929Y09280D01*
X21929Y09085D01*
X22124Y08890D01*
X21929Y08696D01*
X21929Y08501D01*
X22124Y08306D01*
X22514Y08306D01*
X22709Y08501D01*
X23098Y08501D02*
X23293Y08306D01*
X23683Y08306D01*
X23878Y08501D01*
X24268Y08306D02*
X24658Y08696D01*
X24463Y08696D02*
X25047Y08696D01*
X25047Y08306D02*
X25047Y09475D01*
X24463Y09475D01*
X24268Y09280D01*
X24268Y08890D01*
X24463Y08696D01*
X23878Y09280D02*
X23683Y09475D01*
X23293Y09475D01*
X23098Y09280D01*
X23098Y09085D01*
X23293Y08890D01*
X23098Y08696D01*
X23098Y08501D01*
X23293Y08890D02*
X23488Y08890D01*
X22709Y09280D02*
X22514Y09475D01*
X22124Y09475D01*
X22124Y08890D02*
X22319Y08890D01*
X22319Y06935D02*
X22319Y05766D01*
X22709Y05766D02*
X21929Y05766D01*
X22709Y06545D02*
X22319Y06935D01*
X23098Y06740D02*
X23293Y06935D01*
X23683Y06935D01*
X23878Y06740D01*
X24268Y06740D02*
X24268Y06350D01*
X24463Y06156D01*
X25047Y06156D01*
X24658Y06156D02*
X24268Y05766D01*
X23878Y05766D02*
X23098Y06545D01*
X23098Y06740D01*
X23098Y05766D02*
X23878Y05766D01*
X24268Y06740D02*
X24463Y06935D01*
X25047Y06935D01*
X25047Y05766D01*
X25047Y04395D02*
X24463Y04395D01*
X24268Y04200D01*
X24268Y03810D01*
X24463Y03616D01*
X25047Y03616D01*
X24658Y03616D02*
X24268Y03226D01*
X23878Y03226D02*
X23098Y04005D01*
X23098Y04200D01*
X23293Y04395D01*
X23683Y04395D01*
X23878Y04200D01*
X23878Y03226D02*
X23098Y03226D01*
X22709Y03421D02*
X21929Y04200D01*
X21929Y03421D01*
X22124Y03226D01*
X22514Y03226D01*
X22709Y03421D01*
X22709Y04200D01*
X22514Y04395D01*
X22124Y04395D01*
X21929Y04200D01*
X22124Y01855D02*
X22514Y01855D01*
X22709Y01660D01*
X23098Y01660D02*
X23293Y01855D01*
X23683Y01855D01*
X23878Y01660D01*
X24268Y01660D02*
X24268Y01270D01*
X24463Y01076D01*
X25047Y01076D01*
X24658Y01076D02*
X24268Y00686D01*
X23878Y00686D02*
X23098Y01465D01*
X23098Y01660D01*
X23098Y00686D02*
X23878Y00686D01*
X24268Y01660D02*
X24463Y01855D01*
X25047Y01855D01*
X25047Y00686D01*
X22709Y00686D02*
X21929Y01465D01*
X21929Y01660D01*
X22124Y01855D01*
X21929Y00686D02*
X22709Y00686D01*
X25047Y03226D02*
X25047Y04395D01*
X53406Y12228D02*
X53406Y12618D01*
X53601Y12813D01*
X53406Y13203D02*
X53406Y13982D01*
X53406Y13592D02*
X54575Y13592D01*
X54185Y13203D01*
X54380Y12813D02*
X54575Y12618D01*
X54575Y12228D01*
X54380Y12033D01*
X53601Y12033D01*
X53406Y12228D01*
X53406Y14372D02*
X54185Y15152D01*
X54380Y15152D01*
X54575Y14957D01*
X54575Y14567D01*
X54380Y14372D01*
X53406Y14372D02*
X53406Y15152D01*
X60331Y18661D02*
X60526Y18466D01*
X60916Y18466D01*
X61110Y18661D01*
X60331Y19440D01*
X60331Y18661D01*
X60331Y19440D02*
X60526Y19635D01*
X60916Y19635D01*
X61110Y19440D01*
X61110Y18661D01*
X61500Y18466D02*
X62280Y18466D01*
X62670Y18466D02*
X63059Y18856D01*
X62865Y18856D02*
X63449Y18856D01*
X63449Y18466D02*
X63449Y19635D01*
X62865Y19635D01*
X62670Y19440D01*
X62670Y19050D01*
X62865Y18856D01*
X62280Y19245D02*
X61890Y19635D01*
X61890Y18466D01*
X62085Y17095D02*
X62280Y16900D01*
X62280Y16705D01*
X62085Y16510D01*
X61500Y16510D01*
X61500Y16121D02*
X61500Y16900D01*
X61695Y17095D01*
X62085Y17095D01*
X62670Y16900D02*
X62670Y16510D01*
X62865Y16316D01*
X63449Y16316D01*
X63059Y16316D02*
X62670Y15926D01*
X62280Y16121D02*
X62085Y15926D01*
X61695Y15926D01*
X61500Y16121D01*
X62670Y16900D02*
X62865Y17095D01*
X63449Y17095D01*
X63449Y15926D01*
X63449Y14555D02*
X62865Y14555D01*
X62670Y14360D01*
X62670Y13970D01*
X62865Y13776D01*
X63449Y13776D01*
X63059Y13776D02*
X62670Y13386D01*
X62280Y13581D02*
X62280Y13776D01*
X62085Y13970D01*
X61695Y13970D01*
X61500Y13776D01*
X61500Y13581D01*
X61695Y13386D01*
X62085Y13386D01*
X62280Y13581D01*
X62085Y13970D02*
X62280Y14165D01*
X62280Y14360D01*
X62085Y14555D01*
X61695Y14555D01*
X61500Y14360D01*
X61500Y14165D01*
X61695Y13970D01*
X63449Y13386D02*
X63449Y14555D01*
X63449Y12015D02*
X62865Y12015D01*
X62670Y11820D01*
X62670Y11430D01*
X62865Y11236D01*
X63449Y11236D01*
X63059Y11236D02*
X62670Y10846D01*
X62280Y10846D02*
X62280Y11041D01*
X61500Y11820D01*
X61500Y12015D01*
X62280Y12015D01*
X63449Y12015D02*
X63449Y10846D01*
X63449Y09475D02*
X62865Y09475D01*
X62670Y09280D01*
X62670Y08890D01*
X62865Y08696D01*
X63449Y08696D01*
X63059Y08696D02*
X62670Y08306D01*
X62280Y08501D02*
X62085Y08306D01*
X61695Y08306D01*
X61500Y08501D01*
X61500Y08696D01*
X61695Y08890D01*
X62280Y08890D01*
X62280Y08501D01*
X62280Y08890D02*
X61890Y09280D01*
X61500Y09475D01*
X63449Y09475D02*
X63449Y08306D01*
X63449Y06935D02*
X62865Y06935D01*
X62670Y06740D01*
X62670Y06350D01*
X62865Y06156D01*
X63449Y06156D01*
X63059Y06156D02*
X62670Y05766D01*
X62280Y05766D02*
X61500Y05766D01*
X61890Y05766D02*
X61890Y06935D01*
X62280Y06545D01*
X61110Y06545D02*
X60916Y06350D01*
X60331Y06350D01*
X60331Y05961D02*
X60331Y06740D01*
X60526Y06935D01*
X60916Y06935D01*
X61110Y06740D01*
X61110Y06545D01*
X61110Y05961D02*
X60916Y05766D01*
X60526Y05766D01*
X60331Y05961D01*
X63449Y05766D02*
X63449Y06935D01*
X61682Y01061D02*
X61293Y01061D01*
X61098Y00867D01*
X60708Y00672D02*
X60318Y01061D01*
X60318Y-00108D01*
X60708Y-00108D02*
X59928Y-00108D01*
X59539Y-00108D02*
X58759Y-00108D01*
X59149Y-00108D02*
X59149Y01061D01*
X59539Y00672D01*
X61098Y00087D02*
X61293Y-00108D01*
X61682Y-00108D01*
X61877Y00087D01*
X61877Y00867D01*
X61682Y01061D01*
X78010Y02627D02*
X78010Y02822D01*
X78205Y03017D01*
X78790Y03017D01*
X78790Y02627D01*
X78595Y02432D01*
X78205Y02432D01*
X78010Y02627D01*
X78400Y03407D02*
X78790Y03017D01*
X79180Y03407D02*
X79375Y03601D01*
X79764Y03601D01*
X79959Y03407D01*
X79959Y02627D01*
X79764Y02432D01*
X79375Y02432D01*
X79180Y02627D01*
X78400Y03407D02*
X78010Y03601D01*
X63449Y21006D02*
X63449Y22175D01*
X62865Y22175D01*
X62670Y21980D01*
X62670Y21590D01*
X62865Y21396D01*
X63449Y21396D01*
X63059Y21396D02*
X62670Y21006D01*
X62280Y21006D02*
X61500Y21006D01*
X61890Y21006D02*
X61890Y22175D01*
X62280Y21785D01*
X61110Y21980D02*
X60916Y22175D01*
X60526Y22175D01*
X60331Y21980D01*
X60331Y21785D01*
X60526Y21590D01*
X60331Y21396D01*
X60331Y21201D01*
X60526Y21006D01*
X60916Y21006D01*
X61110Y21201D01*
X60721Y21590D02*
X60526Y21590D01*
X60526Y23546D02*
X60526Y24715D01*
X61110Y24130D01*
X60331Y24130D01*
X61500Y23546D02*
X62280Y23546D01*
X62670Y23546D02*
X63059Y23936D01*
X62865Y23936D02*
X63449Y23936D01*
X63449Y23546D02*
X63449Y24715D01*
X62865Y24715D01*
X62670Y24520D01*
X62670Y24130D01*
X62865Y23936D01*
X62280Y24325D02*
X61890Y24715D01*
X61890Y23546D01*
X61890Y26086D02*
X61890Y27255D01*
X62280Y26865D01*
X62670Y26670D02*
X62865Y26476D01*
X63449Y26476D01*
X63059Y26476D02*
X62670Y26086D01*
X62280Y26086D02*
X61500Y26086D01*
X61110Y26281D02*
X60916Y26086D01*
X60526Y26086D01*
X60331Y26281D01*
X60331Y26670D01*
X60526Y26865D01*
X60721Y26865D01*
X61110Y26670D01*
X61110Y27255D01*
X60331Y27255D01*
X60526Y28626D02*
X60331Y28821D01*
X60331Y29016D01*
X60526Y29210D01*
X61110Y29210D01*
X61110Y28821D01*
X60916Y28626D01*
X60526Y28626D01*
X61110Y29210D02*
X60721Y29600D01*
X60331Y29795D01*
X61110Y31166D02*
X61110Y31361D01*
X60331Y32140D01*
X60331Y32335D01*
X61110Y32335D01*
X61890Y32335D02*
X61890Y31166D01*
X62280Y31166D02*
X61500Y31166D01*
X62280Y31945D02*
X61890Y32335D01*
X62670Y32140D02*
X62670Y31750D01*
X62865Y31556D01*
X63449Y31556D01*
X63059Y31556D02*
X62670Y31166D01*
X63449Y31166D02*
X63449Y32335D01*
X62865Y32335D01*
X62670Y32140D01*
X62670Y33706D02*
X63059Y34096D01*
X62865Y34096D02*
X63449Y34096D01*
X63449Y33706D02*
X63449Y34875D01*
X62865Y34875D01*
X62670Y34680D01*
X62670Y34290D01*
X62865Y34096D01*
X62280Y34485D02*
X61890Y34875D01*
X61890Y33706D01*
X62280Y33706D02*
X61500Y33706D01*
X61110Y33901D02*
X61110Y34096D01*
X60916Y34290D01*
X60526Y34290D01*
X60331Y34096D01*
X60331Y33901D01*
X60526Y33706D01*
X60916Y33706D01*
X61110Y33901D01*
X60916Y34290D02*
X61110Y34485D01*
X61110Y34680D01*
X60916Y34875D01*
X60526Y34875D01*
X60331Y34680D01*
X60331Y34485D01*
X60526Y34290D01*
X60549Y34377D02*
X60354Y34182D01*
X59965Y34182D01*
X59770Y34377D01*
X59380Y34377D02*
X59185Y34182D01*
X58795Y34182D01*
X58600Y34377D01*
X58600Y34767D01*
X58795Y34962D01*
X58990Y34962D01*
X59380Y34767D01*
X59380Y35351D01*
X58600Y35351D01*
X58536Y35452D02*
X58341Y35647D01*
X58341Y36621D01*
X57951Y36427D02*
X57756Y36621D01*
X57366Y36621D01*
X57172Y36427D01*
X57172Y36232D01*
X57951Y35452D01*
X57172Y35452D01*
X58536Y35452D02*
X58926Y35452D01*
X59120Y35647D01*
X59120Y36621D01*
X59965Y35351D02*
X60354Y35351D01*
X60549Y35157D01*
X60549Y34377D01*
X59770Y35157D02*
X59965Y35351D01*
X61890Y29795D02*
X61890Y28626D01*
X62280Y28626D02*
X61500Y28626D01*
X62280Y29405D02*
X61890Y29795D01*
X62670Y29600D02*
X62670Y29210D01*
X62865Y29016D01*
X63449Y29016D01*
X63059Y29016D02*
X62670Y28626D01*
X63449Y28626D02*
X63449Y29795D01*
X62865Y29795D01*
X62670Y29600D01*
X62865Y27255D02*
X62670Y27060D01*
X62670Y26670D01*
X62865Y27255D02*
X63449Y27255D01*
X63449Y26086D01*
X75439Y36076D02*
X75634Y35881D01*
X76024Y35881D01*
X76219Y36076D01*
X76608Y36076D02*
X76608Y36855D01*
X76803Y37050D01*
X77388Y37050D01*
X77388Y35881D01*
X76803Y35881D01*
X76608Y36076D01*
X76219Y36465D02*
X75829Y36660D01*
X75634Y36660D01*
X75439Y36465D01*
X75439Y36076D01*
X76219Y36465D02*
X76219Y37050D01*
X75439Y37050D01*
X75638Y38786D02*
X74858Y38786D01*
X74663Y38981D01*
X74663Y39370D01*
X74858Y39565D01*
X74663Y39955D02*
X75443Y40735D01*
X75638Y40735D01*
X75833Y40540D01*
X75833Y40150D01*
X75638Y39955D01*
X75638Y39565D02*
X75833Y39370D01*
X75833Y38981D01*
X75638Y38786D01*
X74663Y39955D02*
X74663Y40735D01*
X74663Y41125D02*
X74663Y41904D01*
X74663Y41514D02*
X75833Y41514D01*
X75443Y41125D01*
X73293Y40842D02*
X73293Y40452D01*
X73098Y40257D01*
X73098Y39867D02*
X73293Y39672D01*
X73293Y39283D01*
X73098Y39088D01*
X72318Y39088D01*
X72123Y39283D01*
X72123Y39672D01*
X72318Y39867D01*
X72123Y40257D02*
X72123Y41037D01*
X72318Y41426D02*
X72123Y41621D01*
X72123Y42011D01*
X72318Y42206D01*
X73098Y42206D01*
X72318Y41426D01*
X73098Y41426D01*
X73293Y41621D01*
X73293Y42011D01*
X73098Y42206D01*
X73098Y41037D02*
X73293Y40842D01*
X73098Y41037D02*
X72903Y41037D01*
X72123Y40257D01*
X61719Y41961D02*
X61719Y43130D01*
X61134Y43130D01*
X60939Y42935D01*
X60939Y42545D01*
X61134Y42351D01*
X61719Y42351D01*
X61329Y42351D02*
X60939Y41961D01*
X60549Y42156D02*
X60354Y41961D01*
X59965Y41961D01*
X59770Y42156D01*
X59770Y42351D01*
X59965Y42545D01*
X60159Y42545D01*
X59965Y42545D02*
X59770Y42740D01*
X59770Y42935D01*
X59965Y43130D01*
X60354Y43130D01*
X60549Y42935D01*
X60354Y41860D02*
X60549Y41665D01*
X60549Y40886D01*
X60354Y40691D01*
X59965Y40691D01*
X59770Y40886D01*
X59380Y41275D02*
X58600Y41275D01*
X58795Y40691D02*
X58795Y41860D01*
X59380Y41275D01*
X59770Y41665D02*
X59965Y41860D01*
X60354Y41860D01*
X59380Y41961D02*
X59380Y42156D01*
X58600Y42935D01*
X58600Y43130D01*
X59380Y43130D01*
X51849Y45501D02*
X51265Y45501D01*
X51070Y45696D01*
X51070Y46475D01*
X51265Y46670D01*
X51849Y46670D01*
X51849Y45501D01*
X50680Y45501D02*
X49900Y46280D01*
X49900Y46475D01*
X50095Y46670D01*
X50485Y46670D01*
X50680Y46475D01*
X50680Y45501D02*
X49900Y45501D01*
X48210Y42380D02*
X48210Y41601D01*
X47625Y41601D01*
X47820Y41991D01*
X47820Y42186D01*
X47625Y42380D01*
X47236Y42380D01*
X47041Y42186D01*
X47041Y41796D01*
X47236Y41601D01*
X47236Y41211D02*
X47041Y41016D01*
X47041Y40626D01*
X47236Y40431D01*
X47041Y40042D02*
X47431Y39652D01*
X47431Y39847D02*
X47431Y39262D01*
X47041Y39262D02*
X48210Y39262D01*
X48210Y39847D01*
X48015Y40042D01*
X47625Y40042D01*
X47431Y39847D01*
X48015Y40431D02*
X48210Y40626D01*
X48210Y41016D01*
X48015Y41211D01*
X47820Y41211D01*
X47625Y41016D01*
X47431Y41211D01*
X47236Y41211D01*
X47625Y41016D02*
X47625Y40821D01*
X38360Y38911D02*
X38360Y38521D01*
X38165Y38326D01*
X38165Y37937D02*
X38360Y37742D01*
X38360Y37352D01*
X38165Y37157D01*
X37386Y37157D01*
X37191Y37352D01*
X37191Y37742D01*
X37386Y37937D01*
X37386Y38326D02*
X37191Y38521D01*
X37191Y38911D01*
X37386Y39106D01*
X37581Y39106D01*
X37775Y38911D01*
X37775Y38716D01*
X37775Y38911D02*
X37970Y39106D01*
X38165Y39106D01*
X38360Y38911D01*
X38360Y36767D02*
X38360Y36377D01*
X38360Y36572D02*
X37191Y36572D01*
X37191Y36377D02*
X37191Y36767D01*
X28842Y34875D02*
X28842Y33706D01*
X28842Y34096D02*
X28257Y34096D01*
X28062Y34290D01*
X28062Y34680D01*
X28257Y34875D01*
X28842Y34875D01*
X28452Y34096D02*
X28062Y33706D01*
X27672Y33706D02*
X26893Y33706D01*
X26938Y34066D02*
X26938Y34650D01*
X26743Y34845D01*
X26353Y34845D01*
X26158Y34650D01*
X26158Y34066D01*
X26158Y34456D02*
X25768Y34845D01*
X25918Y34875D02*
X26308Y34875D01*
X26503Y34680D01*
X26353Y35235D02*
X26353Y36015D01*
X26938Y35820D02*
X26353Y35235D01*
X25918Y34875D02*
X25723Y34680D01*
X25723Y34485D01*
X26503Y33706D01*
X25723Y33706D01*
X25768Y34066D02*
X26938Y34066D01*
X27283Y33706D02*
X27283Y34875D01*
X27672Y34485D01*
X26938Y35820D02*
X25768Y35820D01*
D13*
X27629Y30348D02*
X27629Y29502D01*
X28394Y29502D01*
X29684Y29502D02*
X30474Y29502D01*
X30474Y30348D01*
D14*
X39410Y33695D02*
X39410Y38695D01*
X44410Y38695D01*
X44410Y33695D01*
X39410Y33695D01*
X57872Y38361D02*
X60872Y38361D01*
X60872Y40061D01*
X57872Y40061D01*
X57872Y38361D01*
M02*
