G75*
%MOMM*%
%OFA0B0*%
%FSLAX33Y33*%
%IPPOS*%
%LPD*%
%AMOC8*
5,1,8,0,0,1.08239X$1,22.5*
%
%ADD10C,0.406*%
%ADD11C,0.000*%
D10*
X00000Y00000D02*
X00000Y52060D01*
X83820Y52070D01*
X83820Y00000D01*
X00000Y00000D01*
D11*
X00900Y50000D02*
X00902Y50066D01*
X00908Y50131D01*
X00918Y50196D01*
X00931Y50261D01*
X00949Y50324D01*
X00970Y50387D01*
X00995Y50447D01*
X01024Y50507D01*
X01056Y50564D01*
X01091Y50620D01*
X01130Y50673D01*
X01172Y50724D01*
X01216Y50772D01*
X01264Y50817D01*
X01314Y50860D01*
X01367Y50899D01*
X01422Y50936D01*
X01479Y50969D01*
X01538Y50998D01*
X01598Y51024D01*
X01660Y51046D01*
X01723Y51065D01*
X01787Y51079D01*
X01852Y51090D01*
X01918Y51097D01*
X01984Y51100D01*
X02049Y51099D01*
X02115Y51094D01*
X02180Y51085D01*
X02245Y51072D01*
X02308Y51056D01*
X02371Y51036D01*
X02432Y51011D01*
X02492Y50984D01*
X02550Y50953D01*
X02606Y50918D01*
X02660Y50880D01*
X02711Y50839D01*
X02760Y50795D01*
X02806Y50748D01*
X02850Y50699D01*
X02890Y50647D01*
X02927Y50592D01*
X02961Y50536D01*
X02991Y50477D01*
X03018Y50417D01*
X03041Y50356D01*
X03060Y50293D01*
X03076Y50229D01*
X03088Y50164D01*
X03096Y50099D01*
X03100Y50033D01*
X03100Y49967D01*
X03096Y49901D01*
X03088Y49836D01*
X03076Y49771D01*
X03060Y49707D01*
X03041Y49644D01*
X03018Y49583D01*
X02991Y49523D01*
X02961Y49464D01*
X02927Y49408D01*
X02890Y49353D01*
X02850Y49301D01*
X02806Y49252D01*
X02760Y49205D01*
X02711Y49161D01*
X02660Y49120D01*
X02606Y49082D01*
X02550Y49047D01*
X02492Y49016D01*
X02432Y48989D01*
X02371Y48964D01*
X02308Y48944D01*
X02245Y48928D01*
X02180Y48915D01*
X02115Y48906D01*
X02049Y48901D01*
X01984Y48900D01*
X01918Y48903D01*
X01852Y48910D01*
X01787Y48921D01*
X01723Y48935D01*
X01660Y48954D01*
X01598Y48976D01*
X01538Y49002D01*
X01479Y49031D01*
X01422Y49064D01*
X01367Y49101D01*
X01314Y49140D01*
X01264Y49183D01*
X01216Y49228D01*
X01172Y49276D01*
X01130Y49327D01*
X01091Y49380D01*
X01056Y49436D01*
X01024Y49493D01*
X00995Y49553D01*
X00970Y49613D01*
X00949Y49676D01*
X00931Y49739D01*
X00918Y49804D01*
X00908Y49869D01*
X00902Y49934D01*
X00900Y50000D01*
X64900Y02000D02*
X64902Y02066D01*
X64908Y02131D01*
X64918Y02196D01*
X64931Y02261D01*
X64949Y02324D01*
X64970Y02387D01*
X64995Y02447D01*
X65024Y02507D01*
X65056Y02564D01*
X65091Y02620D01*
X65130Y02673D01*
X65172Y02724D01*
X65216Y02772D01*
X65264Y02817D01*
X65314Y02860D01*
X65367Y02899D01*
X65422Y02936D01*
X65479Y02969D01*
X65538Y02998D01*
X65598Y03024D01*
X65660Y03046D01*
X65723Y03065D01*
X65787Y03079D01*
X65852Y03090D01*
X65918Y03097D01*
X65984Y03100D01*
X66049Y03099D01*
X66115Y03094D01*
X66180Y03085D01*
X66245Y03072D01*
X66308Y03056D01*
X66371Y03036D01*
X66432Y03011D01*
X66492Y02984D01*
X66550Y02953D01*
X66606Y02918D01*
X66660Y02880D01*
X66711Y02839D01*
X66760Y02795D01*
X66806Y02748D01*
X66850Y02699D01*
X66890Y02647D01*
X66927Y02592D01*
X66961Y02536D01*
X66991Y02477D01*
X67018Y02417D01*
X67041Y02356D01*
X67060Y02293D01*
X67076Y02229D01*
X67088Y02164D01*
X67096Y02099D01*
X67100Y02033D01*
X67100Y01967D01*
X67096Y01901D01*
X67088Y01836D01*
X67076Y01771D01*
X67060Y01707D01*
X67041Y01644D01*
X67018Y01583D01*
X66991Y01523D01*
X66961Y01464D01*
X66927Y01408D01*
X66890Y01353D01*
X66850Y01301D01*
X66806Y01252D01*
X66760Y01205D01*
X66711Y01161D01*
X66660Y01120D01*
X66606Y01082D01*
X66550Y01047D01*
X66492Y01016D01*
X66432Y00989D01*
X66371Y00964D01*
X66308Y00944D01*
X66245Y00928D01*
X66180Y00915D01*
X66115Y00906D01*
X66049Y00901D01*
X65984Y00900D01*
X65918Y00903D01*
X65852Y00910D01*
X65787Y00921D01*
X65723Y00935D01*
X65660Y00954D01*
X65598Y00976D01*
X65538Y01002D01*
X65479Y01031D01*
X65422Y01064D01*
X65367Y01101D01*
X65314Y01140D01*
X65264Y01183D01*
X65216Y01228D01*
X65172Y01276D01*
X65130Y01327D01*
X65091Y01380D01*
X65056Y01436D01*
X65024Y01493D01*
X64995Y01553D01*
X64970Y01613D01*
X64949Y01676D01*
X64931Y01739D01*
X64918Y01804D01*
X64908Y01869D01*
X64902Y01934D01*
X64900Y02000D01*
X80900Y50000D02*
X80902Y50066D01*
X80908Y50131D01*
X80918Y50196D01*
X80931Y50261D01*
X80949Y50324D01*
X80970Y50387D01*
X80995Y50447D01*
X81024Y50507D01*
X81056Y50564D01*
X81091Y50620D01*
X81130Y50673D01*
X81172Y50724D01*
X81216Y50772D01*
X81264Y50817D01*
X81314Y50860D01*
X81367Y50899D01*
X81422Y50936D01*
X81479Y50969D01*
X81538Y50998D01*
X81598Y51024D01*
X81660Y51046D01*
X81723Y51065D01*
X81787Y51079D01*
X81852Y51090D01*
X81918Y51097D01*
X81984Y51100D01*
X82049Y51099D01*
X82115Y51094D01*
X82180Y51085D01*
X82245Y51072D01*
X82308Y51056D01*
X82371Y51036D01*
X82432Y51011D01*
X82492Y50984D01*
X82550Y50953D01*
X82606Y50918D01*
X82660Y50880D01*
X82711Y50839D01*
X82760Y50795D01*
X82806Y50748D01*
X82850Y50699D01*
X82890Y50647D01*
X82927Y50592D01*
X82961Y50536D01*
X82991Y50477D01*
X83018Y50417D01*
X83041Y50356D01*
X83060Y50293D01*
X83076Y50229D01*
X83088Y50164D01*
X83096Y50099D01*
X83100Y50033D01*
X83100Y49967D01*
X83096Y49901D01*
X83088Y49836D01*
X83076Y49771D01*
X83060Y49707D01*
X83041Y49644D01*
X83018Y49583D01*
X82991Y49523D01*
X82961Y49464D01*
X82927Y49408D01*
X82890Y49353D01*
X82850Y49301D01*
X82806Y49252D01*
X82760Y49205D01*
X82711Y49161D01*
X82660Y49120D01*
X82606Y49082D01*
X82550Y49047D01*
X82492Y49016D01*
X82432Y48989D01*
X82371Y48964D01*
X82308Y48944D01*
X82245Y48928D01*
X82180Y48915D01*
X82115Y48906D01*
X82049Y48901D01*
X81984Y48900D01*
X81918Y48903D01*
X81852Y48910D01*
X81787Y48921D01*
X81723Y48935D01*
X81660Y48954D01*
X81598Y48976D01*
X81538Y49002D01*
X81479Y49031D01*
X81422Y49064D01*
X81367Y49101D01*
X81314Y49140D01*
X81264Y49183D01*
X81216Y49228D01*
X81172Y49276D01*
X81130Y49327D01*
X81091Y49380D01*
X81056Y49436D01*
X81024Y49493D01*
X80995Y49553D01*
X80970Y49613D01*
X80949Y49676D01*
X80931Y49739D01*
X80918Y49804D01*
X80908Y49869D01*
X80902Y49934D01*
X80900Y50000D01*
M02*
