G75*
%MOMM*%
%OFA0B0*%
%FSLAX33Y33*%
%IPPOS*%
%LPD*%
%AMOC8*
5,1,8,0,0,1.08239X$1,22.5*
%
%ADD10C,0.406*%
%ADD11C,0.000*%
%ADD12C,0.279*%
%ADD13C,0.356*%
%ADD14C,0.229*%
%ADD15C,0.203*%
%ADD16R,0.010X0.213*%
%ADD17R,0.010X0.498*%
%ADD18R,0.010X0.660*%
%ADD19R,0.010X0.792*%
%ADD20R,0.010X0.904*%
%ADD21R,0.010X1.006*%
%ADD22R,0.010X1.097*%
%ADD23R,0.010X1.189*%
%ADD24R,0.010X1.260*%
%ADD25R,0.010X1.331*%
%ADD26R,0.010X1.402*%
%ADD27R,0.010X1.473*%
%ADD28R,0.010X1.534*%
%ADD29R,0.010X1.585*%
%ADD30R,0.010X1.646*%
%ADD31R,0.010X1.697*%
%ADD32R,0.010X1.758*%
%ADD33R,0.010X1.798*%
%ADD34R,0.010X1.859*%
%ADD35R,0.010X1.900*%
%ADD36R,0.010X1.951*%
%ADD37R,0.010X1.991*%
%ADD38R,0.010X2.042*%
%ADD39R,0.010X2.083*%
%ADD40R,0.010X2.123*%
%ADD41R,0.010X2.164*%
%ADD42R,0.010X2.205*%
%ADD43R,0.010X2.245*%
%ADD44R,0.010X2.286*%
%ADD45R,0.010X2.316*%
%ADD46R,0.010X2.357*%
%ADD47R,0.010X2.388*%
%ADD48R,0.010X2.428*%
%ADD49R,0.010X2.459*%
%ADD50R,0.010X2.489*%
%ADD51R,0.010X2.530*%
%ADD52R,0.010X2.560*%
%ADD53R,0.010X2.591*%
%ADD54R,0.010X2.621*%
%ADD55R,0.010X2.652*%
%ADD56R,0.010X2.682*%
%ADD57R,0.010X2.713*%
%ADD58R,0.010X2.743*%
%ADD59R,0.010X2.774*%
%ADD60R,0.010X2.804*%
%ADD61R,0.010X2.835*%
%ADD62R,0.010X2.855*%
%ADD63R,0.010X2.885*%
%ADD64R,0.010X2.916*%
%ADD65R,0.010X2.936*%
%ADD66R,0.010X2.967*%
%ADD67R,0.010X2.987*%
%ADD68R,0.010X3.018*%
%ADD69R,0.010X3.038*%
%ADD70R,0.010X3.068*%
%ADD71R,0.010X3.089*%
%ADD72R,0.010X3.119*%
%ADD73R,0.010X3.139*%
%ADD74R,0.010X3.160*%
%ADD75R,0.010X3.180*%
%ADD76R,0.010X3.211*%
%ADD77R,0.010X3.231*%
%ADD78R,0.010X3.251*%
%ADD79R,0.010X3.272*%
%ADD80R,0.010X2.042*%
%ADD81R,0.010X1.250*%
%ADD82R,0.010X1.219*%
%ADD83R,0.010X0.782*%
%ADD84R,0.010X1.209*%
%ADD85R,0.010X0.772*%
%ADD86R,0.010X1.168*%
%ADD87R,0.010X0.752*%
%ADD88R,0.010X1.158*%
%ADD89R,0.010X1.138*%
%ADD90R,0.010X0.742*%
%ADD91R,0.010X1.118*%
%ADD92R,0.010X0.732*%
%ADD93R,0.010X1.107*%
%ADD94R,0.010X0.721*%
%ADD95R,0.010X1.097*%
%ADD96R,0.010X1.087*%
%ADD97R,0.010X0.711*%
%ADD98R,0.010X1.067*%
%ADD99R,0.010X0.691*%
%ADD100R,0.010X1.057*%
%ADD101R,0.010X0.681*%
%ADD102R,0.010X1.046*%
%ADD103R,0.010X0.671*%
%ADD104R,0.010X1.036*%
%ADD105R,0.010X1.026*%
%ADD106R,0.010X0.650*%
%ADD107R,0.010X1.026*%
%ADD108R,0.010X1.006*%
%ADD109R,0.010X0.640*%
%ADD110R,0.010X1.016*%
%ADD111R,0.010X0.996*%
%ADD112R,0.010X0.630*%
%ADD113R,0.010X0.986*%
%ADD114R,0.010X0.610*%
%ADD115R,0.010X0.996*%
%ADD116R,0.010X0.975*%
%ADD117R,0.010X0.599*%
%ADD118R,0.010X0.965*%
%ADD119R,0.010X0.589*%
%ADD120R,0.010X0.955*%
%ADD121R,0.010X0.579*%
%ADD122R,0.010X0.569*%
%ADD123R,0.010X0.945*%
%ADD124R,0.010X0.945*%
%ADD125R,0.010X0.549*%
%ADD126R,0.010X0.935*%
%ADD127R,0.010X0.538*%
%ADD128R,0.010X0.914*%
%ADD129R,0.010X0.528*%
%ADD130R,0.010X0.925*%
%ADD131R,0.010X0.914*%
%ADD132R,0.010X0.041*%
%ADD133R,0.010X0.508*%
%ADD134R,0.010X0.030*%
%ADD135R,0.010X0.081*%
%ADD136R,0.010X0.071*%
%ADD137R,0.010X0.112*%
%ADD138R,0.010X0.488*%
%ADD139R,0.010X0.102*%
%ADD140R,0.010X0.894*%
%ADD141R,0.010X0.894*%
%ADD142R,0.010X0.142*%
%ADD143R,0.010X0.467*%
%ADD144R,0.010X0.884*%
%ADD145R,0.010X0.183*%
%ADD146R,0.010X0.457*%
%ADD147R,0.010X0.173*%
%ADD148R,0.010X0.874*%
%ADD149R,0.010X0.203*%
%ADD150R,0.010X0.447*%
%ADD151R,0.010X0.884*%
%ADD152R,0.010X0.874*%
%ADD153R,0.010X0.234*%
%ADD154R,0.010X0.437*%
%ADD155R,0.010X0.864*%
%ADD156R,0.010X0.274*%
%ADD157R,0.010X0.427*%
%ADD158R,0.010X0.264*%
%ADD159R,0.010X0.295*%
%ADD160R,0.010X0.406*%
%ADD161R,0.010X0.284*%
%ADD162R,0.010X0.853*%
%ADD163R,0.010X0.325*%
%ADD164R,0.010X0.396*%
%ADD165R,0.010X0.315*%
%ADD166R,0.010X0.843*%
%ADD167R,0.010X0.345*%
%ADD168R,0.010X0.843*%
%ADD169R,0.010X0.376*%
%ADD170R,0.010X0.366*%
%ADD171R,0.010X0.396*%
%ADD172R,0.010X0.417*%
%ADD173R,0.010X0.853*%
%ADD174R,0.010X0.447*%
%ADD175R,0.010X0.437*%
%ADD176R,0.010X0.864*%
%ADD177R,0.010X0.478*%
%ADD178R,0.010X0.518*%
%ADD179R,0.010X0.528*%
%ADD180R,0.010X0.904*%
%ADD181R,0.010X0.549*%
%ADD182R,0.010X0.538*%
%ADD183R,0.010X0.925*%
%ADD184R,0.010X0.559*%
%ADD185R,0.010X0.955*%
%ADD186R,0.010X0.559*%
%ADD187R,0.010X0.965*%
%ADD188R,0.010X0.569*%
%ADD189R,0.010X0.579*%
%ADD190R,0.010X1.016*%
%ADD191R,0.010X1.026*%
%ADD192R,0.010X0.589*%
%ADD193R,0.010X0.152*%
%ADD194R,0.010X1.057*%
%ADD195R,0.010X0.599*%
%ADD196R,0.010X0.589*%
%ADD197R,0.010X1.666*%
%ADD198R,0.010X1.077*%
%ADD199R,0.010X1.077*%
%ADD200R,0.010X1.646*%
%ADD201R,0.010X1.107*%
%ADD202R,0.010X1.626*%
%ADD203R,0.010X1.128*%
%ADD204R,0.010X1.615*%
%ADD205R,0.010X1.605*%
%ADD206R,0.010X1.148*%
%ADD207R,0.010X1.138*%
%ADD208R,0.010X1.605*%
%ADD209R,0.010X1.148*%
%ADD210R,0.010X1.595*%
%ADD211R,0.010X1.179*%
%ADD212R,0.010X1.179*%
%ADD213R,0.010X1.575*%
%ADD214R,0.010X1.189*%
%ADD215R,0.010X1.565*%
%ADD216R,0.010X1.565*%
%ADD217R,0.010X1.554*%
%ADD218R,0.010X1.544*%
%ADD219R,0.010X1.158*%
%ADD220R,0.010X1.534*%
%ADD221R,0.010X1.524*%
%ADD222R,0.010X1.148*%
%ADD223R,0.010X1.514*%
%ADD224R,0.010X1.128*%
%ADD225R,0.010X1.524*%
%ADD226R,0.010X1.118*%
%ADD227R,0.010X1.687*%
%ADD228R,0.010X1.097*%
%ADD229R,0.010X1.707*%
%ADD230R,0.010X1.727*%
%ADD231R,0.010X1.748*%
%ADD232R,0.010X1.097*%
%ADD233R,0.010X1.778*%
%ADD234R,0.010X1.819*%
%ADD235R,0.010X0.671*%
%ADD236R,0.010X0.366*%
%ADD237R,0.010X1.829*%
%ADD238R,0.010X0.366*%
%ADD239R,0.010X1.849*%
%ADD240R,0.010X0.264*%
%ADD241R,0.010X0.163*%
%ADD242R,0.010X1.869*%
%ADD243R,0.010X0.061*%
%ADD244R,0.010X1.880*%
%ADD245R,0.010X0.660*%
%ADD246R,0.010X1.910*%
%ADD247R,0.010X1.930*%
%ADD248R,0.010X1.941*%
%ADD249R,0.010X0.650*%
%ADD250R,0.010X1.961*%
%ADD251R,0.010X1.971*%
%ADD252R,0.010X1.991*%
%ADD253R,0.010X2.002*%
%ADD254R,0.010X2.012*%
%ADD255R,0.010X2.022*%
%ADD256R,0.010X2.052*%
%ADD257R,0.010X2.062*%
%ADD258R,0.010X2.073*%
%ADD259R,0.010X0.122*%
%ADD260R,0.010X0.640*%
%ADD261R,0.010X0.224*%
%ADD262R,0.010X2.093*%
%ADD263R,0.010X0.132*%
%ADD264R,0.010X2.113*%
%ADD265R,0.010X0.244*%
%ADD266R,0.010X0.335*%
%ADD267R,0.010X0.437*%
%ADD268R,0.010X3.048*%
%ADD269R,0.010X3.058*%
%ADD270R,0.010X0.640*%
%ADD271R,0.010X3.058*%
%ADD272R,0.010X3.078*%
%ADD273R,0.010X3.089*%
%ADD274R,0.010X0.640*%
%ADD275R,0.010X3.099*%
%ADD276R,0.010X3.099*%
%ADD277R,0.010X3.109*%
%ADD278R,0.010X3.129*%
%ADD279R,0.010X0.630*%
%ADD280R,0.010X3.129*%
%ADD281R,0.010X3.150*%
%ADD282R,0.010X3.150*%
%ADD283R,0.010X1.504*%
%ADD284R,0.010X1.463*%
%ADD285R,0.010X1.453*%
%ADD286R,0.010X1.443*%
%ADD287R,0.010X1.433*%
%ADD288R,0.010X1.422*%
%ADD289R,0.010X1.412*%
%ADD290R,0.010X1.402*%
%ADD291R,0.010X1.392*%
%ADD292R,0.010X1.382*%
%ADD293R,0.010X1.361*%
%ADD294R,0.010X1.372*%
%ADD295R,0.010X1.361*%
%ADD296R,0.010X1.351*%
%ADD297R,0.010X1.351*%
%ADD298R,0.010X1.341*%
%ADD299R,0.010X1.331*%
%ADD300R,0.010X1.331*%
%ADD301R,0.010X1.321*%
%ADD302R,0.010X1.311*%
%ADD303R,0.010X1.300*%
%ADD304R,0.010X1.300*%
%ADD305R,0.010X1.290*%
%ADD306R,0.010X0.620*%
%ADD307R,0.010X1.250*%
%ADD308R,0.010X1.280*%
%ADD309R,0.010X1.219*%
%ADD310R,0.010X1.240*%
%ADD311R,0.010X1.209*%
%ADD312R,0.010X1.168*%
%ADD313R,0.010X1.046*%
%ADD314R,0.010X0.986*%
%ADD315R,0.955X0.010*%
%ADD316R,0.010X0.833*%
%ADD317R,0.010X0.732*%
%ADD318R,0.010X0.843*%
%ADD319R,0.010X0.843*%
%ADD320R,0.010X0.742*%
%ADD321R,0.010X0.762*%
%ADD322R,0.843X0.010*%
%ADD323R,0.010X0.803*%
%ADD324R,0.010X0.823*%
%ADD325R,0.010X0.996*%
%ADD326R,0.010X0.874*%
%ADD327R,0.010X0.894*%
%ADD328R,0.010X0.945*%
%ADD329R,0.010X0.975*%
%ADD330R,0.010X2.276*%
%ADD331R,0.010X2.266*%
%ADD332R,0.010X2.256*%
%ADD333R,0.010X1.036*%
%ADD334R,0.010X2.235*%
%ADD335R,0.010X2.225*%
%ADD336R,0.010X2.215*%
%ADD337R,0.010X1.046*%
%ADD338R,0.010X2.195*%
%ADD339R,0.010X2.184*%
%ADD340R,0.010X1.026*%
%ADD341R,0.010X2.195*%
%ADD342R,0.010X2.266*%
%ADD343R,0.010X2.286*%
%ADD344R,0.010X2.306*%
%ADD345R,0.010X2.327*%
%ADD346R,0.010X2.347*%
%ADD347R,0.010X2.367*%
%ADD348R,0.010X2.388*%
%ADD349R,0.010X2.408*%
%ADD350R,0.010X2.449*%
%ADD351R,0.010X2.469*%
%ADD352R,0.010X0.833*%
%ADD353R,0.010X2.489*%
%ADD354R,0.010X0.823*%
%ADD355R,0.010X2.510*%
%ADD356R,0.010X0.813*%
%ADD357R,0.010X2.530*%
%ADD358R,0.010X2.550*%
%ADD359R,0.010X0.782*%
%ADD360R,0.010X2.570*%
%ADD361R,0.010X0.772*%
%ADD362R,0.010X2.591*%
%ADD363R,0.010X0.772*%
%ADD364R,0.010X2.611*%
%ADD365R,0.010X2.631*%
%ADD366R,0.010X2.672*%
%ADD367R,0.010X0.721*%
%ADD368R,0.010X0.701*%
%ADD369R,0.010X2.692*%
%ADD370R,0.010X0.711*%
%ADD371R,0.010X0.691*%
%ADD372R,0.010X2.733*%
%ADD373R,0.010X2.753*%
%ADD374R,0.010X2.774*%
%ADD375R,0.010X0.691*%
%ADD376R,0.010X2.794*%
%ADD377R,0.010X2.804*%
%ADD378R,0.010X0.701*%
%ADD379R,0.010X2.814*%
%ADD380R,0.010X2.794*%
%ADD381R,0.010X2.784*%
%ADD382R,0.010X2.764*%
%ADD383R,0.010X2.713*%
%ADD384R,0.010X2.703*%
%ADD385R,0.010X2.692*%
%ADD386R,0.010X1.453*%
%ADD387R,0.010X0.518*%
%ADD388R,0.010X1.422*%
%ADD389R,0.010X0.721*%
%ADD390R,0.010X0.721*%
%ADD391R,0.010X1.402*%
%ADD392R,0.010X1.372*%
%ADD393R,0.010X0.457*%
%ADD394R,0.010X0.406*%
%ADD395R,0.010X1.280*%
%ADD396R,0.010X0.427*%
%ADD397R,0.010X0.386*%
%ADD398R,0.010X0.356*%
%ADD399R,0.010X0.386*%
%ADD400R,0.010X0.742*%
%ADD401R,0.010X0.325*%
%ADD402R,0.010X0.315*%
%ADD403R,0.010X0.742*%
%ADD404R,0.010X0.284*%
%ADD405R,0.010X0.305*%
%ADD406R,0.010X0.752*%
%ADD407R,0.010X0.284*%
%ADD408R,0.010X0.234*%
%ADD409R,0.010X0.183*%
%ADD410R,0.010X0.213*%
%ADD411R,0.010X0.762*%
%ADD412R,0.010X0.152*%
%ADD413R,0.010X0.183*%
%ADD414R,0.010X0.772*%
%ADD415R,0.010X0.132*%
%ADD416R,0.010X0.081*%
%ADD417R,0.010X0.030*%
%ADD418R,0.010X0.051*%
%ADD419R,0.010X0.030*%
%ADD420R,0.010X0.010*%
%ADD421R,0.010X0.051*%
%ADD422R,0.010X0.792*%
%ADD423R,0.010X0.792*%
%ADD424R,0.010X0.112*%
%ADD425R,0.010X0.183*%
%ADD426R,0.010X0.538*%
%ADD427R,0.010X0.254*%
%ADD428R,0.010X0.813*%
%ADD429R,0.010X0.295*%
%ADD430R,0.010X0.498*%
%ADD431R,0.010X0.589*%
%ADD432R,0.010X0.620*%
%ADD433R,0.010X0.508*%
%ADD434R,0.010X0.610*%
%ADD435R,0.010X1.534*%
%ADD436R,0.010X1.514*%
%ADD437R,0.010X1.534*%
%ADD438R,0.010X1.494*%
%ADD439R,0.010X1.504*%
%ADD440R,0.010X1.494*%
%ADD441R,0.010X0.488*%
%ADD442R,0.010X1.483*%
%ADD443R,0.010X1.483*%
%ADD444R,0.010X0.467*%
%ADD445R,0.010X1.463*%
%ADD446R,0.010X1.443*%
%ADD447R,0.010X1.453*%
%ADD448R,0.010X1.433*%
%ADD449R,0.010X1.433*%
%ADD450R,0.010X1.382*%
%ADD451R,0.010X1.392*%
%ADD452R,0.010X1.341*%
%ADD453R,0.010X1.351*%
%ADD454R,0.010X1.300*%
%ADD455R,0.010X1.300*%
%ADD456R,0.010X1.554*%
%ADD457R,0.010X1.544*%
%ADD458R,0.010X3.282*%
%ADD459R,0.010X3.261*%
%ADD460R,0.010X3.211*%
%ADD461R,0.010X3.190*%
%ADD462R,0.010X3.068*%
%ADD463R,0.010X2.997*%
%ADD464R,0.010X2.967*%
%ADD465R,0.010X2.936*%
%ADD466R,0.010X2.865*%
%ADD467R,0.010X2.835*%
%ADD468R,0.010X2.804*%
%ADD469R,0.010X2.662*%
%ADD470R,0.010X2.570*%
%ADD471R,0.010X2.499*%
%ADD472R,0.010X2.469*%
%ADD473R,0.010X2.398*%
%ADD474R,0.010X2.357*%
%ADD475R,0.010X2.327*%
%ADD476R,0.010X2.164*%
%ADD477R,0.010X2.123*%
%ADD478R,0.010X1.656*%
%ADD479R,0.010X1.270*%
%ADD480R,0.010X1.199*%
%ADD481C,0.102*%
%ADD482C,0.152*%
%ADD483C,0.127*%
%ADD484R,0.150X0.300*%
%ADD485R,0.300X0.300*%
%ADD486R,0.250X0.250*%
%ADD487C,0.178*%
%ADD488C,0.508*%
%ADD489R,1.270X1.905*%
%ADD490R,0.762X1.778*%
%ADD491R,1.270X0.762*%
%ADD492R,2.286X0.635*%
D10*
X00000Y00000D02*
X00000Y52060D01*
X83820Y52070D01*
X83820Y00000D01*
X00000Y00000D01*
D11*
X00900Y50000D02*
X00902Y50066D01*
X00908Y50131D01*
X00918Y50196D01*
X00931Y50261D01*
X00949Y50324D01*
X00970Y50387D01*
X00995Y50447D01*
X01024Y50507D01*
X01056Y50564D01*
X01091Y50620D01*
X01130Y50673D01*
X01172Y50724D01*
X01216Y50772D01*
X01264Y50817D01*
X01314Y50860D01*
X01367Y50899D01*
X01422Y50936D01*
X01479Y50969D01*
X01538Y50998D01*
X01598Y51024D01*
X01660Y51046D01*
X01723Y51065D01*
X01787Y51079D01*
X01852Y51090D01*
X01918Y51097D01*
X01984Y51100D01*
X02049Y51099D01*
X02115Y51094D01*
X02180Y51085D01*
X02245Y51072D01*
X02308Y51056D01*
X02371Y51036D01*
X02432Y51011D01*
X02492Y50984D01*
X02550Y50953D01*
X02606Y50918D01*
X02660Y50880D01*
X02711Y50839D01*
X02760Y50795D01*
X02806Y50748D01*
X02850Y50699D01*
X02890Y50647D01*
X02927Y50592D01*
X02961Y50536D01*
X02991Y50477D01*
X03018Y50417D01*
X03041Y50356D01*
X03060Y50293D01*
X03076Y50229D01*
X03088Y50164D01*
X03096Y50099D01*
X03100Y50033D01*
X03100Y49967D01*
X03096Y49901D01*
X03088Y49836D01*
X03076Y49771D01*
X03060Y49707D01*
X03041Y49644D01*
X03018Y49583D01*
X02991Y49523D01*
X02961Y49464D01*
X02927Y49408D01*
X02890Y49353D01*
X02850Y49301D01*
X02806Y49252D01*
X02760Y49205D01*
X02711Y49161D01*
X02660Y49120D01*
X02606Y49082D01*
X02550Y49047D01*
X02492Y49016D01*
X02432Y48989D01*
X02371Y48964D01*
X02308Y48944D01*
X02245Y48928D01*
X02180Y48915D01*
X02115Y48906D01*
X02049Y48901D01*
X01984Y48900D01*
X01918Y48903D01*
X01852Y48910D01*
X01787Y48921D01*
X01723Y48935D01*
X01660Y48954D01*
X01598Y48976D01*
X01538Y49002D01*
X01479Y49031D01*
X01422Y49064D01*
X01367Y49101D01*
X01314Y49140D01*
X01264Y49183D01*
X01216Y49228D01*
X01172Y49276D01*
X01130Y49327D01*
X01091Y49380D01*
X01056Y49436D01*
X01024Y49493D01*
X00995Y49553D01*
X00970Y49613D01*
X00949Y49676D01*
X00931Y49739D01*
X00918Y49804D01*
X00908Y49869D01*
X00902Y49934D01*
X00900Y50000D01*
X64900Y02000D02*
X64902Y02066D01*
X64908Y02131D01*
X64918Y02196D01*
X64931Y02261D01*
X64949Y02324D01*
X64970Y02387D01*
X64995Y02447D01*
X65024Y02507D01*
X65056Y02564D01*
X65091Y02620D01*
X65130Y02673D01*
X65172Y02724D01*
X65216Y02772D01*
X65264Y02817D01*
X65314Y02860D01*
X65367Y02899D01*
X65422Y02936D01*
X65479Y02969D01*
X65538Y02998D01*
X65598Y03024D01*
X65660Y03046D01*
X65723Y03065D01*
X65787Y03079D01*
X65852Y03090D01*
X65918Y03097D01*
X65984Y03100D01*
X66049Y03099D01*
X66115Y03094D01*
X66180Y03085D01*
X66245Y03072D01*
X66308Y03056D01*
X66371Y03036D01*
X66432Y03011D01*
X66492Y02984D01*
X66550Y02953D01*
X66606Y02918D01*
X66660Y02880D01*
X66711Y02839D01*
X66760Y02795D01*
X66806Y02748D01*
X66850Y02699D01*
X66890Y02647D01*
X66927Y02592D01*
X66961Y02536D01*
X66991Y02477D01*
X67018Y02417D01*
X67041Y02356D01*
X67060Y02293D01*
X67076Y02229D01*
X67088Y02164D01*
X67096Y02099D01*
X67100Y02033D01*
X67100Y01967D01*
X67096Y01901D01*
X67088Y01836D01*
X67076Y01771D01*
X67060Y01707D01*
X67041Y01644D01*
X67018Y01583D01*
X66991Y01523D01*
X66961Y01464D01*
X66927Y01408D01*
X66890Y01353D01*
X66850Y01301D01*
X66806Y01252D01*
X66760Y01205D01*
X66711Y01161D01*
X66660Y01120D01*
X66606Y01082D01*
X66550Y01047D01*
X66492Y01016D01*
X66432Y00989D01*
X66371Y00964D01*
X66308Y00944D01*
X66245Y00928D01*
X66180Y00915D01*
X66115Y00906D01*
X66049Y00901D01*
X65984Y00900D01*
X65918Y00903D01*
X65852Y00910D01*
X65787Y00921D01*
X65723Y00935D01*
X65660Y00954D01*
X65598Y00976D01*
X65538Y01002D01*
X65479Y01031D01*
X65422Y01064D01*
X65367Y01101D01*
X65314Y01140D01*
X65264Y01183D01*
X65216Y01228D01*
X65172Y01276D01*
X65130Y01327D01*
X65091Y01380D01*
X65056Y01436D01*
X65024Y01493D01*
X64995Y01553D01*
X64970Y01613D01*
X64949Y01676D01*
X64931Y01739D01*
X64918Y01804D01*
X64908Y01869D01*
X64902Y01934D01*
X64900Y02000D01*
X80900Y50000D02*
X80902Y50066D01*
X80908Y50131D01*
X80918Y50196D01*
X80931Y50261D01*
X80949Y50324D01*
X80970Y50387D01*
X80995Y50447D01*
X81024Y50507D01*
X81056Y50564D01*
X81091Y50620D01*
X81130Y50673D01*
X81172Y50724D01*
X81216Y50772D01*
X81264Y50817D01*
X81314Y50860D01*
X81367Y50899D01*
X81422Y50936D01*
X81479Y50969D01*
X81538Y50998D01*
X81598Y51024D01*
X81660Y51046D01*
X81723Y51065D01*
X81787Y51079D01*
X81852Y51090D01*
X81918Y51097D01*
X81984Y51100D01*
X82049Y51099D01*
X82115Y51094D01*
X82180Y51085D01*
X82245Y51072D01*
X82308Y51056D01*
X82371Y51036D01*
X82432Y51011D01*
X82492Y50984D01*
X82550Y50953D01*
X82606Y50918D01*
X82660Y50880D01*
X82711Y50839D01*
X82760Y50795D01*
X82806Y50748D01*
X82850Y50699D01*
X82890Y50647D01*
X82927Y50592D01*
X82961Y50536D01*
X82991Y50477D01*
X83018Y50417D01*
X83041Y50356D01*
X83060Y50293D01*
X83076Y50229D01*
X83088Y50164D01*
X83096Y50099D01*
X83100Y50033D01*
X83100Y49967D01*
X83096Y49901D01*
X83088Y49836D01*
X83076Y49771D01*
X83060Y49707D01*
X83041Y49644D01*
X83018Y49583D01*
X82991Y49523D01*
X82961Y49464D01*
X82927Y49408D01*
X82890Y49353D01*
X82850Y49301D01*
X82806Y49252D01*
X82760Y49205D01*
X82711Y49161D01*
X82660Y49120D01*
X82606Y49082D01*
X82550Y49047D01*
X82492Y49016D01*
X82432Y48989D01*
X82371Y48964D01*
X82308Y48944D01*
X82245Y48928D01*
X82180Y48915D01*
X82115Y48906D01*
X82049Y48901D01*
X81984Y48900D01*
X81918Y48903D01*
X81852Y48910D01*
X81787Y48921D01*
X81723Y48935D01*
X81660Y48954D01*
X81598Y48976D01*
X81538Y49002D01*
X81479Y49031D01*
X81422Y49064D01*
X81367Y49101D01*
X81314Y49140D01*
X81264Y49183D01*
X81216Y49228D01*
X81172Y49276D01*
X81130Y49327D01*
X81091Y49380D01*
X81056Y49436D01*
X81024Y49493D01*
X80995Y49553D01*
X80970Y49613D01*
X80949Y49676D01*
X80931Y49739D01*
X80918Y49804D01*
X80908Y49869D01*
X80902Y49934D01*
X80900Y50000D01*
D12*
X80446Y35430D02*
X80696Y35180D01*
X80696Y34680D01*
X80446Y34430D01*
X79946Y34930D02*
X79946Y35180D01*
X80196Y35430D01*
X80446Y35430D01*
X79946Y35180D02*
X79696Y35430D01*
X79446Y35430D01*
X79196Y35180D01*
X79196Y34680D01*
X79446Y34430D01*
X78029Y34680D02*
X78029Y35180D01*
X77779Y35430D01*
X77279Y35430D01*
X77279Y34930D01*
X76779Y35430D02*
X76529Y35180D01*
X76529Y34680D01*
X76779Y34430D01*
X77779Y34430D01*
X78029Y34680D01*
X75362Y34680D02*
X75112Y34430D01*
X75362Y34680D02*
X75362Y35180D01*
X75112Y35430D01*
X74862Y35430D01*
X74612Y35180D01*
X74612Y34680D01*
X74362Y34430D01*
X74112Y34430D01*
X73862Y34680D01*
X73862Y35180D01*
X74112Y35430D01*
X72695Y35180D02*
X72695Y34680D01*
X72445Y34430D01*
X71945Y34680D02*
X71945Y35180D01*
X72195Y35430D01*
X72445Y35430D01*
X72695Y35180D01*
X71945Y34680D02*
X71695Y34430D01*
X71445Y34430D01*
X71195Y34680D01*
X71195Y35180D01*
X71445Y35430D01*
X70028Y35180D02*
X70028Y34680D01*
X69778Y34430D01*
X69278Y34680D02*
X69028Y34430D01*
X68778Y34430D01*
X68528Y34680D01*
X68528Y35180D01*
X68778Y35430D01*
X69278Y35180D02*
X69528Y35430D01*
X69778Y35430D01*
X70028Y35180D01*
X69278Y35180D02*
X69278Y34680D01*
X64015Y33777D02*
X64015Y33590D01*
X63828Y33403D01*
X64015Y33216D01*
X64015Y33029D01*
X63828Y32842D01*
X63454Y32842D01*
X63267Y33029D01*
X63641Y33403D02*
X63828Y33403D01*
X64015Y33777D02*
X63828Y33964D01*
X63454Y33964D01*
X63267Y33777D01*
X62352Y33964D02*
X62352Y32842D01*
X61978Y32842D02*
X62726Y32842D01*
X61978Y33590D02*
X62352Y33964D01*
X61437Y33777D02*
X61437Y33029D01*
X61250Y32842D01*
X60876Y32842D01*
X60689Y33029D01*
X60689Y33777D01*
X60876Y33964D01*
X61250Y33964D01*
X61437Y33777D01*
X60204Y33964D02*
X59830Y33964D01*
X60017Y33964D02*
X60017Y32842D01*
X59830Y32842D02*
X60204Y32842D01*
X60204Y31424D02*
X59830Y31424D01*
X60017Y31424D02*
X60017Y30302D01*
X59830Y30302D02*
X60204Y30302D01*
X60689Y30489D02*
X60876Y30302D01*
X61250Y30302D01*
X61437Y30489D01*
X61437Y31237D01*
X61250Y31424D01*
X60876Y31424D01*
X60689Y31237D01*
X60689Y30489D01*
X61978Y30302D02*
X62726Y30302D01*
X62352Y30302D02*
X62352Y31424D01*
X61978Y31050D01*
X63267Y31237D02*
X63454Y31424D01*
X63828Y31424D01*
X64015Y31237D01*
X64015Y31050D01*
X63267Y30302D01*
X64015Y30302D01*
X63828Y28884D02*
X63267Y28323D01*
X64015Y28323D01*
X63828Y27762D02*
X63828Y28884D01*
X62726Y27762D02*
X61978Y27762D01*
X62352Y27762D02*
X62352Y28884D01*
X61978Y28510D01*
X61437Y28697D02*
X61437Y27949D01*
X61250Y27762D01*
X60876Y27762D01*
X60689Y27949D01*
X60689Y28697D01*
X60876Y28884D01*
X61250Y28884D01*
X61437Y28697D01*
X60204Y28884D02*
X59830Y28884D01*
X60017Y28884D02*
X60017Y27762D01*
X59830Y27762D02*
X60204Y27762D01*
X60204Y26344D02*
X59830Y26344D01*
X60017Y26344D02*
X60017Y25222D01*
X59830Y25222D02*
X60204Y25222D01*
X60689Y25409D02*
X60876Y25222D01*
X61250Y25222D01*
X61437Y25409D01*
X61437Y26157D01*
X61250Y26344D01*
X60876Y26344D01*
X60689Y26157D01*
X60689Y25409D01*
X61978Y25222D02*
X62726Y25970D01*
X62726Y26157D01*
X62539Y26344D01*
X62165Y26344D01*
X61978Y26157D01*
X61978Y25222D02*
X62726Y25222D01*
X63267Y25222D02*
X63267Y25409D01*
X64015Y26157D01*
X64015Y26344D01*
X63267Y26344D01*
X62539Y23804D02*
X62165Y23804D01*
X61978Y23617D01*
X61437Y23617D02*
X61437Y22869D01*
X61250Y22682D01*
X60876Y22682D01*
X60689Y22869D01*
X60689Y23617D01*
X60876Y23804D01*
X61250Y23804D01*
X61437Y23617D01*
X61978Y22682D02*
X62726Y23430D01*
X62726Y23617D01*
X62539Y23804D01*
X63267Y23243D02*
X63267Y22869D01*
X63454Y22682D01*
X63828Y22682D01*
X64015Y22869D01*
X64015Y23056D01*
X63828Y23243D01*
X63267Y23243D01*
X63641Y23617D01*
X64015Y23804D01*
X62726Y22682D02*
X61978Y22682D01*
X62165Y21264D02*
X61978Y21077D01*
X62165Y21264D02*
X62539Y21264D01*
X62726Y21077D01*
X62726Y20890D01*
X61978Y20142D01*
X62726Y20142D01*
X63267Y20329D02*
X63454Y20142D01*
X63828Y20142D01*
X64015Y20329D01*
X64015Y20703D01*
X63828Y20890D01*
X63641Y20890D01*
X63267Y20703D01*
X63267Y21264D01*
X64015Y21264D01*
X63828Y18724D02*
X63454Y18724D01*
X63267Y18537D01*
X63641Y18163D02*
X63828Y18163D01*
X64015Y17976D01*
X64015Y17789D01*
X63828Y17602D01*
X63454Y17602D01*
X63267Y17789D01*
X62726Y17789D02*
X62539Y17602D01*
X62165Y17602D01*
X61978Y17789D01*
X62352Y18163D02*
X62539Y18163D01*
X62726Y17976D01*
X62726Y17789D01*
X62539Y18163D02*
X62726Y18350D01*
X62726Y18537D01*
X62539Y18724D01*
X62165Y18724D01*
X61978Y18537D01*
X61437Y18537D02*
X61437Y17789D01*
X61250Y17602D01*
X60876Y17602D01*
X60689Y17789D01*
X60689Y18537D01*
X60876Y18724D01*
X61250Y18724D01*
X61437Y18537D01*
X60204Y18724D02*
X59830Y18724D01*
X60017Y18724D02*
X60017Y17602D01*
X59830Y17602D02*
X60204Y17602D01*
X60204Y16184D02*
X59830Y16184D01*
X60017Y16184D02*
X60017Y15062D01*
X59830Y15062D02*
X60204Y15062D01*
X60689Y15249D02*
X60876Y15062D01*
X61250Y15062D01*
X61437Y15249D01*
X61437Y15997D01*
X61250Y16184D01*
X60876Y16184D01*
X60689Y15997D01*
X60689Y15249D01*
X61978Y15249D02*
X62165Y15062D01*
X62539Y15062D01*
X62726Y15249D01*
X62726Y15436D01*
X62539Y15623D01*
X62352Y15623D01*
X62539Y15623D02*
X62726Y15810D01*
X62726Y15997D01*
X62539Y16184D01*
X62165Y16184D01*
X61978Y15997D01*
X63267Y15997D02*
X63454Y16184D01*
X63828Y16184D01*
X64015Y15997D01*
X64015Y15810D01*
X63267Y15062D01*
X64015Y15062D01*
X64015Y13644D02*
X63267Y13644D01*
X63267Y13083D01*
X63641Y13270D01*
X63828Y13270D01*
X64015Y13083D01*
X64015Y12709D01*
X63828Y12522D01*
X63454Y12522D01*
X63267Y12709D01*
X62726Y12709D02*
X62539Y12522D01*
X62165Y12522D01*
X61978Y12709D01*
X62352Y13083D02*
X62539Y13083D01*
X62726Y12896D01*
X62726Y12709D01*
X62539Y13083D02*
X62726Y13270D01*
X62726Y13457D01*
X62539Y13644D01*
X62165Y13644D01*
X61978Y13457D01*
X61437Y13457D02*
X61437Y12709D01*
X61250Y12522D01*
X60876Y12522D01*
X60689Y12709D01*
X60689Y13457D01*
X60876Y13644D01*
X61250Y13644D01*
X61437Y13457D01*
X60204Y13644D02*
X59830Y13644D01*
X60017Y13644D02*
X60017Y12522D01*
X59830Y12522D02*
X60204Y12522D01*
X60204Y11104D02*
X59830Y11104D01*
X60017Y11104D02*
X60017Y09982D01*
X59830Y09982D02*
X60204Y09982D01*
X60689Y10169D02*
X60876Y09982D01*
X61250Y09982D01*
X61437Y10169D01*
X61437Y10917D01*
X61250Y11104D01*
X60876Y11104D01*
X60689Y10917D01*
X60689Y10169D01*
X61978Y10169D02*
X62165Y09982D01*
X62539Y09982D01*
X62726Y10169D01*
X62726Y10356D01*
X62539Y10543D01*
X62352Y10543D01*
X62539Y10543D02*
X62726Y10730D01*
X62726Y10917D01*
X62539Y11104D01*
X62165Y11104D01*
X61978Y10917D01*
X63267Y10543D02*
X64015Y10543D01*
X63828Y09982D02*
X63828Y11104D01*
X63267Y10543D01*
X63156Y08564D02*
X63156Y07442D01*
X62408Y08564D01*
X62408Y07442D01*
X61867Y07816D02*
X61867Y08564D01*
X61867Y07816D02*
X61493Y07442D01*
X61119Y07816D01*
X61119Y08564D01*
X60577Y08377D02*
X60390Y08564D01*
X60017Y08564D01*
X59830Y08377D01*
X59830Y08190D01*
X60017Y08003D01*
X60390Y08003D01*
X60577Y07816D01*
X60577Y07629D01*
X60390Y07442D01*
X60017Y07442D01*
X59830Y07629D01*
X60017Y06024D02*
X59830Y05837D01*
X59830Y05650D01*
X60017Y05463D01*
X60390Y05463D01*
X60577Y05276D01*
X60577Y05089D01*
X60390Y04902D01*
X60017Y04902D01*
X59830Y05089D01*
X60017Y06024D02*
X60390Y06024D01*
X60577Y05837D01*
X61119Y06024D02*
X61119Y05276D01*
X61493Y04902D01*
X61867Y05276D01*
X61867Y06024D01*
X62408Y06024D02*
X62969Y06024D01*
X63156Y05837D01*
X63156Y05463D01*
X62969Y05276D01*
X62408Y05276D01*
X62408Y04902D02*
X62408Y06024D01*
X63828Y18163D02*
X64015Y18350D01*
X64015Y18537D01*
X63828Y18724D01*
X61437Y20329D02*
X61250Y20142D01*
X60876Y20142D01*
X60689Y20329D01*
X60689Y21077D01*
X60876Y21264D01*
X61250Y21264D01*
X61437Y21077D01*
X61437Y20329D01*
X60204Y20142D02*
X59830Y20142D01*
X60017Y20142D02*
X60017Y21264D01*
X59830Y21264D02*
X60204Y21264D01*
X60204Y22682D02*
X59830Y22682D01*
X60017Y22682D02*
X60017Y23804D01*
X59830Y23804D02*
X60204Y23804D01*
X61335Y42310D02*
X61335Y47466D01*
X61892Y47065D02*
X63014Y47065D01*
X61892Y46317D01*
X63014Y46317D01*
X62827Y45775D02*
X62079Y45775D01*
X61892Y45589D01*
X61892Y45028D01*
X63014Y45028D01*
X63014Y45589D01*
X62827Y45775D01*
X63014Y44486D02*
X61892Y44486D01*
X62453Y44486D02*
X62453Y43739D01*
X63014Y43739D02*
X61892Y43739D01*
X62079Y43197D02*
X61892Y43010D01*
X61892Y42636D01*
X62079Y42450D01*
X62266Y42450D01*
X62453Y42636D01*
X62453Y43010D01*
X62640Y43197D01*
X62827Y43197D01*
X63014Y43010D01*
X63014Y42636D01*
X62827Y42450D01*
X81863Y35430D02*
X81863Y34430D01*
X82613Y34430D01*
X82363Y34930D01*
X82363Y35180D01*
X82613Y35430D01*
X83113Y35430D01*
X83363Y35180D01*
X83363Y34680D01*
X83113Y34430D01*
X30817Y25033D02*
X30054Y25033D01*
X29673Y24651D01*
X30054Y24270D01*
X30817Y24270D01*
X30817Y23723D02*
X29673Y23723D01*
X29673Y22960D02*
X30817Y23723D01*
X30817Y22960D02*
X29673Y22960D01*
X29863Y22413D02*
X30245Y22413D01*
X30435Y22223D01*
X30435Y21651D01*
X30435Y22032D02*
X30817Y22413D01*
X30817Y21651D02*
X29673Y21651D01*
X29673Y22223D01*
X29863Y22413D01*
X28753Y22853D02*
X28753Y23384D01*
X28576Y23561D01*
X28399Y23384D01*
X28399Y23030D01*
X28222Y22853D01*
X28045Y23030D01*
X28045Y23561D01*
X28045Y24264D02*
X28045Y24618D01*
X28222Y24795D01*
X28753Y24795D01*
X28753Y24264D01*
X28576Y24087D01*
X28399Y24264D01*
X28399Y24795D01*
X28753Y25321D02*
X28753Y25675D01*
X28753Y25498D02*
X27691Y25498D01*
X27691Y25321D01*
X28045Y27378D02*
X28753Y27731D01*
X28045Y28085D01*
X27868Y28611D02*
X27691Y28788D01*
X27691Y29142D01*
X27868Y29319D01*
X28045Y29319D01*
X28753Y28611D01*
X28753Y29319D01*
X28753Y29845D02*
X28753Y30022D01*
X28576Y30022D01*
X28576Y29845D01*
X28753Y29845D01*
X28753Y30462D02*
X28753Y31170D01*
X28753Y30816D02*
X27691Y30816D01*
X28045Y30462D01*
X28153Y32057D02*
X27966Y32244D01*
X27966Y32992D01*
X28153Y33179D01*
X28527Y33179D01*
X28714Y32992D01*
X28714Y32244D01*
X28527Y32057D01*
X28153Y32057D01*
X27481Y32057D02*
X27107Y32057D01*
X27294Y32057D02*
X27294Y33179D01*
X27107Y33179D02*
X27481Y33179D01*
X29256Y32992D02*
X29443Y33179D01*
X29816Y33179D01*
X30003Y32992D01*
X30003Y32805D01*
X29256Y32057D01*
X30003Y32057D01*
X23653Y30452D02*
X22906Y29704D01*
X23093Y29517D01*
X23466Y29517D01*
X23653Y29704D01*
X23653Y30452D01*
X23466Y30639D01*
X23093Y30639D01*
X22906Y30452D01*
X22906Y29704D01*
X22364Y29704D02*
X22364Y30452D01*
X22177Y30639D01*
X21803Y30639D01*
X21616Y30452D01*
X21616Y29704D01*
X21803Y29517D01*
X22177Y29517D01*
X22364Y29704D01*
X21131Y29517D02*
X20757Y29517D01*
X20944Y29517D02*
X20944Y30639D01*
X20757Y30639D02*
X21131Y30639D01*
X21131Y28099D02*
X20757Y28099D01*
X20944Y28099D02*
X20944Y26977D01*
X20757Y26977D02*
X21131Y26977D01*
X21616Y27164D02*
X21803Y26977D01*
X22177Y26977D01*
X22364Y27164D01*
X22364Y27912D01*
X22177Y28099D01*
X21803Y28099D01*
X21616Y27912D01*
X21616Y27164D01*
X21990Y25559D02*
X21990Y24437D01*
X21616Y24437D02*
X22364Y24437D01*
X22906Y24624D02*
X23093Y24437D01*
X23466Y24437D01*
X23653Y24624D01*
X23653Y24811D01*
X23466Y24998D01*
X22906Y24998D01*
X22906Y24624D01*
X22906Y24998D02*
X23279Y25372D01*
X23653Y25559D01*
X23466Y26977D02*
X23466Y28099D01*
X22906Y27538D01*
X23653Y27538D01*
X21990Y25559D02*
X21616Y25185D01*
X21075Y25372D02*
X21075Y24624D01*
X20888Y24437D01*
X20514Y24437D01*
X20327Y24624D01*
X20327Y25372D01*
X20514Y25559D01*
X20888Y25559D01*
X21075Y25372D01*
X19842Y25559D02*
X19468Y25559D01*
X19655Y25559D02*
X19655Y24437D01*
X19468Y24437D02*
X19842Y24437D01*
X19842Y23019D02*
X19468Y23019D01*
X19655Y23019D02*
X19655Y21897D01*
X19468Y21897D02*
X19842Y21897D01*
X20327Y22084D02*
X20514Y21897D01*
X20888Y21897D01*
X21075Y22084D01*
X21075Y22832D01*
X20888Y23019D01*
X20514Y23019D01*
X20327Y22832D01*
X20327Y22084D01*
X21616Y21897D02*
X22364Y21897D01*
X21990Y21897D02*
X21990Y23019D01*
X21616Y22645D01*
X22906Y23019D02*
X23653Y23019D01*
X23653Y22832D01*
X22906Y22084D01*
X22906Y21897D01*
X22906Y20479D02*
X22906Y19918D01*
X23279Y20105D01*
X23466Y20105D01*
X23653Y19918D01*
X23653Y19544D01*
X23466Y19357D01*
X23093Y19357D01*
X22906Y19544D01*
X22364Y19544D02*
X22364Y20292D01*
X22177Y20479D01*
X21803Y20479D01*
X21616Y20292D01*
X21616Y19544D01*
X21803Y19357D01*
X22177Y19357D01*
X22364Y19544D01*
X22906Y20479D02*
X23653Y20479D01*
X21131Y20479D02*
X20757Y20479D01*
X20944Y20479D02*
X20944Y19357D01*
X20757Y19357D02*
X21131Y19357D01*
X20888Y17939D02*
X20514Y17939D01*
X20327Y17752D01*
X20327Y17004D01*
X20514Y16817D01*
X20888Y16817D01*
X21075Y17004D01*
X21075Y17752D01*
X20888Y17939D01*
X21616Y17565D02*
X21990Y17939D01*
X21990Y16817D01*
X21616Y16817D02*
X22364Y16817D01*
X22906Y17004D02*
X22906Y17191D01*
X23093Y17378D01*
X23466Y17378D01*
X23653Y17191D01*
X23653Y17004D01*
X23466Y16817D01*
X23093Y16817D01*
X22906Y17004D01*
X23093Y17378D02*
X22906Y17565D01*
X22906Y17752D01*
X23093Y17939D01*
X23466Y17939D01*
X23653Y17752D01*
X23653Y17565D01*
X23466Y17378D01*
X23466Y15399D02*
X23093Y15399D01*
X22906Y15212D01*
X22906Y15025D01*
X23093Y14838D01*
X23653Y14838D01*
X23653Y14464D02*
X23653Y15212D01*
X23466Y15399D01*
X23653Y14464D02*
X23466Y14277D01*
X23093Y14277D01*
X22906Y14464D01*
X22364Y14277D02*
X21616Y14277D01*
X21990Y14277D02*
X21990Y15399D01*
X21616Y15025D01*
X21075Y15212D02*
X21075Y14464D01*
X20888Y14277D01*
X20514Y14277D01*
X20327Y14464D01*
X20327Y15212D01*
X20514Y15399D01*
X20888Y15399D01*
X21075Y15212D01*
X19842Y15399D02*
X19468Y15399D01*
X19655Y15399D02*
X19655Y14277D01*
X19468Y14277D02*
X19842Y14277D01*
X19842Y12859D02*
X19468Y12859D01*
X19655Y12859D02*
X19655Y11737D01*
X19468Y11737D02*
X19842Y11737D01*
X20327Y11924D02*
X20514Y11737D01*
X20888Y11737D01*
X21075Y11924D01*
X21075Y12672D01*
X20888Y12859D01*
X20514Y12859D01*
X20327Y12672D01*
X20327Y11924D01*
X21616Y11737D02*
X22364Y12485D01*
X22364Y12672D01*
X22177Y12859D01*
X21803Y12859D01*
X21616Y12672D01*
X21616Y11737D02*
X22364Y11737D01*
X22906Y11737D02*
X23653Y11737D01*
X23279Y11737D02*
X23279Y12859D01*
X22906Y12485D01*
X22906Y10319D02*
X23466Y10319D01*
X23653Y10132D01*
X23653Y09384D01*
X23466Y09197D01*
X22906Y09197D01*
X22906Y10319D01*
X22364Y10319D02*
X21616Y09197D01*
X21075Y09197D02*
X20701Y09571D01*
X20888Y09571D02*
X20327Y09571D01*
X20327Y09197D02*
X20327Y10319D01*
X20888Y10319D01*
X21075Y10132D01*
X21075Y09758D01*
X20888Y09571D01*
X21616Y10319D02*
X22364Y09197D01*
X22364Y07779D02*
X21616Y06657D01*
X22364Y06657D02*
X21616Y07779D01*
X21075Y07779D02*
X20327Y07779D01*
X20701Y07779D02*
X20701Y06657D01*
X20514Y05239D02*
X20327Y05052D01*
X20327Y04304D01*
X20514Y04117D01*
X20888Y04117D01*
X21075Y04304D01*
X21075Y05052D01*
X20888Y05239D01*
X20514Y05239D01*
X19842Y05239D02*
X19468Y05239D01*
X19655Y05239D02*
X19655Y04117D01*
X19468Y04117D02*
X19842Y04117D01*
X21616Y04117D02*
X22364Y04865D01*
X22364Y05052D01*
X22177Y05239D01*
X21803Y05239D01*
X21616Y05052D01*
X21616Y04117D02*
X22364Y04117D01*
X22906Y04117D02*
X23653Y04865D01*
X23653Y05052D01*
X23466Y05239D01*
X23093Y05239D01*
X22906Y05052D01*
X22906Y04117D02*
X23653Y04117D01*
X23466Y02699D02*
X23653Y02512D01*
X23653Y02325D01*
X23466Y02138D01*
X23653Y01951D01*
X23653Y01764D01*
X23466Y01577D01*
X23093Y01577D01*
X22906Y01764D01*
X23279Y02138D02*
X23466Y02138D01*
X23466Y02699D02*
X23093Y02699D01*
X22906Y02512D01*
X22364Y02512D02*
X22177Y02699D01*
X21803Y02699D01*
X21616Y02512D01*
X21075Y02512D02*
X20888Y02699D01*
X20514Y02699D01*
X20327Y02512D01*
X20327Y01764D01*
X20514Y01577D01*
X20888Y01577D01*
X21075Y01764D01*
X21075Y02512D01*
X21616Y01577D02*
X22364Y02325D01*
X22364Y02512D01*
X22364Y01577D02*
X21616Y01577D01*
X19842Y01577D02*
X19468Y01577D01*
X19655Y01577D02*
X19655Y02699D01*
X19468Y02699D02*
X19842Y02699D01*
X15259Y00890D02*
X15259Y00390D01*
X15009Y00140D01*
X14509Y00390D02*
X14509Y00890D01*
X14759Y01140D01*
X15009Y01140D01*
X15259Y00890D01*
X14509Y00390D02*
X14259Y00140D01*
X14009Y00140D01*
X13759Y00390D01*
X13759Y00890D01*
X14009Y01140D01*
X12592Y00890D02*
X12592Y00390D01*
X12342Y00140D01*
X11842Y00390D02*
X11842Y00890D01*
X12092Y01140D01*
X12342Y01140D01*
X12592Y00890D01*
X11842Y00390D02*
X11592Y00140D01*
X11342Y00140D01*
X11092Y00390D01*
X11092Y00890D01*
X11342Y01140D01*
X09925Y00890D02*
X09925Y00390D01*
X09675Y00140D01*
X09175Y00390D02*
X09175Y00890D01*
X09425Y01140D01*
X09675Y01140D01*
X09925Y00890D01*
X09175Y00390D02*
X08925Y00140D01*
X08675Y00140D01*
X08425Y00390D01*
X08425Y00890D01*
X08675Y01140D01*
X07258Y00890D02*
X07258Y00390D01*
X07008Y00140D01*
X06008Y00140D01*
X05758Y00390D01*
X05758Y00890D01*
X06008Y01140D01*
X06508Y01140D02*
X06508Y00640D01*
X06508Y01140D02*
X07008Y01140D01*
X07258Y00890D01*
X04591Y00890D02*
X04591Y00390D01*
X04341Y00140D01*
X03841Y00640D02*
X03841Y00890D01*
X04091Y01140D01*
X04341Y01140D01*
X04591Y00890D01*
X03841Y00890D02*
X03591Y01140D01*
X03341Y01140D01*
X03091Y00890D01*
X03091Y00390D01*
X03341Y00140D01*
X01924Y00390D02*
X01924Y00890D01*
X01674Y01140D01*
X01174Y01140D01*
X00924Y00890D01*
X00924Y00640D01*
X01174Y00140D01*
X00424Y00140D01*
X00424Y01140D01*
X01674Y00140D02*
X01924Y00390D01*
X19468Y16817D02*
X19842Y16817D01*
X19655Y16817D02*
X19655Y17939D01*
X19468Y17939D02*
X19842Y17939D01*
X27514Y18712D02*
X27691Y18712D01*
X28045Y18712D02*
X28753Y18712D01*
X28753Y18535D02*
X28753Y18889D01*
X28045Y18712D02*
X28045Y18535D01*
X28222Y18009D02*
X28045Y17832D01*
X28045Y17301D01*
X28753Y17301D01*
X28753Y16775D02*
X28045Y16775D01*
X28753Y16775D02*
X28753Y16244D01*
X28576Y16067D01*
X28045Y16067D01*
X28045Y15541D02*
X27868Y15541D01*
X27691Y15364D01*
X27691Y15010D01*
X27868Y14833D01*
X27868Y14307D02*
X28045Y14307D01*
X28222Y14130D01*
X28399Y14307D01*
X28576Y14307D01*
X28753Y14130D01*
X28753Y13776D01*
X28576Y13599D01*
X28222Y13953D02*
X28222Y14130D01*
X27868Y14307D02*
X27691Y14130D01*
X27691Y13776D01*
X27868Y13599D01*
X27868Y13073D02*
X28222Y13073D01*
X28399Y12896D01*
X28399Y12366D01*
X28753Y12366D02*
X27691Y12366D01*
X27691Y12896D01*
X27868Y13073D01*
X28753Y14833D02*
X28045Y15541D01*
X28753Y15541D02*
X28753Y14833D01*
X29673Y15293D02*
X29863Y15102D01*
X30626Y15102D01*
X30817Y15293D01*
X30817Y15674D01*
X30626Y15865D01*
X29863Y15865D01*
X29673Y15674D01*
X29673Y15293D01*
X29863Y14555D02*
X30245Y14555D01*
X30435Y14364D01*
X30435Y13792D01*
X30435Y14174D02*
X30817Y14555D01*
X30817Y13792D02*
X29673Y13792D01*
X29673Y14364D01*
X29863Y14555D01*
X29673Y16412D02*
X29673Y16984D01*
X29863Y17174D01*
X30054Y17174D01*
X30245Y16984D01*
X30245Y16412D01*
X30817Y16412D02*
X29673Y16412D01*
X30245Y16984D02*
X30435Y17174D01*
X30626Y17174D01*
X30817Y16984D01*
X30817Y16412D01*
X30626Y17721D02*
X29863Y17721D01*
X29673Y17912D01*
X29673Y18293D01*
X29863Y18484D01*
X30626Y18484D01*
X30817Y18293D01*
X30817Y17912D01*
X30626Y17721D01*
X29673Y19031D02*
X29673Y19794D01*
X29673Y19412D02*
X30817Y19412D01*
X30817Y20341D02*
X30054Y20341D01*
X29673Y20722D01*
X30054Y21103D01*
X30817Y21103D01*
X30245Y21103D02*
X30245Y20341D01*
X28753Y20768D02*
X28576Y20591D01*
X28222Y20591D01*
X28045Y20768D01*
X28045Y21122D01*
X28222Y21299D01*
X28399Y21299D01*
X28399Y20591D01*
X28753Y20768D02*
X28753Y21122D01*
X28753Y21825D02*
X28045Y21825D01*
X28399Y21825D02*
X28045Y22179D01*
X28045Y22356D01*
X30245Y24270D02*
X30245Y25033D01*
X28045Y20065D02*
X28753Y19711D01*
X28045Y19357D01*
X28222Y18009D02*
X28753Y18009D01*
X28576Y11839D02*
X28753Y11663D01*
X28753Y11309D01*
X28576Y11132D01*
X28222Y11309D02*
X28222Y11663D01*
X28399Y11839D01*
X28576Y11839D01*
X28222Y11309D02*
X28045Y11132D01*
X27868Y11132D01*
X27691Y11309D01*
X27691Y11663D01*
X27868Y11839D01*
X27691Y10606D02*
X27691Y09898D01*
X28753Y09898D01*
X28753Y10606D01*
X28222Y10252D02*
X28222Y09898D01*
X28222Y09372D02*
X28222Y08664D01*
X27868Y08138D02*
X28576Y08138D01*
X28753Y07961D01*
X28753Y07607D01*
X28576Y07430D01*
X27868Y08138D01*
X27691Y07961D01*
X27691Y07607D01*
X27868Y07430D01*
X28576Y07430D01*
X28576Y06904D02*
X28753Y06727D01*
X28753Y06373D01*
X28576Y06196D01*
X27868Y06904D01*
X28576Y06904D01*
X28576Y06196D02*
X27868Y06196D01*
X27691Y06373D01*
X27691Y06727D01*
X27868Y06904D01*
X27868Y05670D02*
X27691Y05493D01*
X27691Y05139D01*
X27868Y04963D01*
X27868Y04436D02*
X28045Y04436D01*
X28222Y04259D01*
X28399Y04436D01*
X28576Y04436D01*
X28753Y04259D01*
X28753Y03906D01*
X28576Y03729D01*
X28222Y04082D02*
X28222Y04259D01*
X27868Y04436D02*
X27691Y04259D01*
X27691Y03906D01*
X27868Y03729D01*
X27868Y03202D02*
X28045Y03202D01*
X28222Y03026D01*
X28222Y02495D01*
X28222Y01969D02*
X28399Y01792D01*
X28399Y01261D01*
X28399Y01615D02*
X28753Y01969D01*
X28753Y02495D02*
X28753Y03026D01*
X28576Y03202D01*
X28399Y03202D01*
X28222Y03026D01*
X27868Y03202D02*
X27691Y03026D01*
X27691Y02495D01*
X28753Y02495D01*
X28222Y01969D02*
X27868Y01969D01*
X27691Y01792D01*
X27691Y01261D01*
X28753Y01261D01*
X28753Y04963D02*
X28045Y05670D01*
X27868Y05670D01*
X28753Y05670D02*
X28753Y04963D01*
X23653Y06844D02*
X23653Y07592D01*
X23466Y07779D01*
X22906Y07779D01*
X22906Y06657D01*
X23466Y06657D01*
X23653Y06844D01*
X23308Y34915D02*
X22934Y34915D01*
X22747Y35102D01*
X22747Y35475D02*
X23121Y35662D01*
X23308Y35662D01*
X23495Y35475D01*
X23495Y35102D01*
X23308Y34915D01*
X22747Y35475D02*
X22747Y36036D01*
X23495Y36036D01*
X21832Y36036D02*
X21832Y34915D01*
X22205Y34915D02*
X21458Y34915D01*
X20916Y35102D02*
X20916Y35849D01*
X20729Y36036D01*
X20356Y36036D01*
X20169Y35849D01*
X20169Y35102D01*
X20356Y34915D01*
X20729Y34915D01*
X20916Y35102D01*
X21458Y35662D02*
X21832Y36036D01*
X19683Y36036D02*
X19309Y36036D01*
X19496Y36036D02*
X19496Y34915D01*
X19309Y34915D02*
X19683Y34915D01*
X16647Y37442D02*
X16647Y37692D01*
X16397Y37942D01*
X15898Y37942D01*
X15648Y38192D01*
X15648Y38442D01*
X15898Y38692D01*
X16397Y38692D01*
X16647Y38442D01*
X16647Y37442D02*
X16397Y37192D01*
X15898Y37192D01*
X15648Y37442D01*
X15898Y39859D02*
X15648Y40109D01*
X15898Y39859D02*
X16397Y39859D01*
X16647Y40109D01*
X16647Y40359D01*
X16397Y40609D01*
X15898Y40609D01*
X15648Y40859D01*
X15648Y41109D01*
X15898Y41359D01*
X16397Y41359D01*
X16647Y41109D01*
X16397Y42526D02*
X15898Y42526D01*
X15648Y42776D01*
X15648Y43276D02*
X16148Y43526D01*
X16397Y43526D01*
X16647Y43276D01*
X16647Y42776D01*
X16397Y42526D01*
X15648Y43276D02*
X15648Y44026D01*
X16647Y44026D01*
X16397Y45193D02*
X15898Y45193D01*
X15648Y45443D01*
X15648Y46443D01*
X15898Y46693D01*
X16397Y46693D01*
X16647Y46443D01*
X16647Y45943D02*
X16148Y45943D01*
X16647Y45943D02*
X16647Y45443D01*
X16397Y45193D01*
D13*
X29672Y12071D02*
X29910Y12071D01*
X30859Y11122D01*
X31096Y11122D01*
X31096Y10434D02*
X31096Y09485D01*
X31096Y09959D02*
X29672Y09959D01*
X30147Y09485D01*
X30384Y08797D02*
X30384Y07848D01*
X30147Y07160D02*
X30384Y06922D01*
X30621Y07160D01*
X30859Y07160D01*
X31096Y06922D01*
X31096Y06448D01*
X30859Y06211D01*
X30384Y06685D02*
X30384Y06922D01*
X30147Y07160D02*
X29910Y07160D01*
X29672Y06922D01*
X29672Y06448D01*
X29910Y06211D01*
X29910Y03885D02*
X30147Y03885D01*
X30384Y03648D01*
X30384Y02936D01*
X30384Y02248D02*
X29910Y02248D01*
X29672Y02011D01*
X29672Y01299D01*
X31096Y01299D01*
X30621Y01299D02*
X30621Y02011D01*
X30384Y02248D01*
X30621Y01774D02*
X31096Y02248D01*
X31096Y02936D02*
X29672Y02936D01*
X29672Y03648D01*
X29910Y03885D01*
X30384Y03648D02*
X30621Y03885D01*
X30859Y03885D01*
X31096Y03648D01*
X31096Y02936D01*
X29672Y11122D02*
X29672Y12071D01*
X77693Y47166D02*
X78642Y47166D01*
X78168Y46692D02*
X78168Y47641D01*
X78168Y49966D02*
X78168Y50915D01*
D14*
X65539Y49413D02*
X65539Y49251D01*
X65377Y49089D01*
X64891Y49089D01*
X64434Y48927D02*
X64434Y48765D01*
X64272Y48603D01*
X63948Y48603D01*
X63786Y48765D01*
X63948Y49089D02*
X64272Y49089D01*
X64434Y48927D01*
X64434Y49413D02*
X64272Y49575D01*
X63948Y49575D01*
X63786Y49413D01*
X63786Y49251D01*
X63948Y49089D01*
X63329Y48765D02*
X63167Y48603D01*
X62843Y48603D01*
X62681Y48765D01*
X62681Y49575D01*
X63329Y49575D02*
X63329Y48765D01*
X62224Y48441D02*
X61576Y48441D01*
X61119Y48765D02*
X60957Y48603D01*
X60633Y48603D01*
X60471Y48765D01*
X60795Y49089D02*
X60957Y49089D01*
X61119Y48927D01*
X61119Y48765D01*
X60957Y49089D02*
X61119Y49251D01*
X61119Y49413D01*
X60957Y49575D01*
X60633Y49575D01*
X60471Y49413D01*
X60014Y49575D02*
X60014Y48927D01*
X59690Y48603D01*
X59366Y48927D01*
X59366Y49575D01*
X58909Y49413D02*
X58909Y49251D01*
X58747Y49089D01*
X58909Y48927D01*
X58909Y48765D01*
X58747Y48603D01*
X58423Y48603D01*
X58261Y48765D01*
X58585Y49089D02*
X58747Y49089D01*
X58909Y49413D02*
X58747Y49575D01*
X58423Y49575D01*
X58261Y49413D01*
X58102Y50349D02*
X58750Y50349D01*
X59207Y50349D02*
X59855Y50349D01*
X60312Y50349D02*
X60798Y50349D01*
X60960Y50511D01*
X60960Y51159D01*
X60798Y51322D01*
X60312Y51322D01*
X60312Y50349D01*
X59531Y50835D02*
X59207Y50835D01*
X59207Y50349D02*
X59207Y51322D01*
X59855Y51322D01*
X61417Y50187D02*
X62065Y50187D01*
X62522Y50511D02*
X62684Y50349D01*
X63008Y50349D01*
X63170Y50511D01*
X63170Y50673D01*
X63008Y50835D01*
X62846Y50835D01*
X63008Y50835D02*
X63170Y50997D01*
X63170Y51159D01*
X63008Y51322D01*
X62684Y51322D01*
X62522Y51159D01*
X63627Y51322D02*
X63627Y50673D01*
X63951Y50349D01*
X64275Y50673D01*
X64275Y51322D01*
X64732Y51159D02*
X64894Y51322D01*
X65218Y51322D01*
X65380Y51159D01*
X65380Y50997D01*
X65218Y50835D01*
X65380Y50673D01*
X65380Y50511D01*
X65218Y50349D01*
X64894Y50349D01*
X64732Y50511D01*
X65056Y50835D02*
X65218Y50835D01*
X65377Y49575D02*
X65539Y49413D01*
X65377Y49575D02*
X64891Y49575D01*
X64891Y48603D01*
X65377Y48603D01*
X65539Y48765D01*
X65539Y48927D01*
X65377Y49089D01*
X58102Y50349D02*
X58102Y51322D01*
X56537Y49575D02*
X56051Y49575D01*
X56051Y48603D01*
X56537Y48603D01*
X56699Y48765D01*
X56699Y49413D01*
X56537Y49575D01*
X55594Y49575D02*
X54946Y49575D01*
X54946Y48603D01*
X55594Y48603D01*
X55270Y49089D02*
X54946Y49089D01*
X54489Y48603D02*
X53841Y48603D01*
X53841Y49575D01*
X57156Y48441D02*
X57804Y48441D01*
X49981Y45057D02*
X49981Y44571D01*
X49008Y44571D01*
X49008Y45057D01*
X49171Y45219D01*
X49333Y45219D01*
X49495Y45057D01*
X49495Y44571D01*
X49657Y44114D02*
X49495Y43952D01*
X49495Y43628D01*
X49333Y43466D01*
X49171Y43466D01*
X49008Y43628D01*
X49008Y43952D01*
X49171Y44114D01*
X49657Y44114D02*
X49819Y44114D01*
X49981Y43952D01*
X49981Y43628D01*
X49819Y43466D01*
X49819Y43009D02*
X49008Y43009D01*
X49008Y42361D02*
X49819Y42361D01*
X49981Y42523D01*
X49981Y42847D01*
X49819Y43009D01*
X50143Y41904D02*
X50143Y41256D01*
X49657Y40799D02*
X49008Y40799D01*
X49008Y40151D02*
X49657Y40151D01*
X49981Y40475D01*
X49657Y40799D01*
X49495Y39694D02*
X49819Y39694D01*
X49981Y39532D01*
X49981Y39208D01*
X49819Y39046D01*
X49495Y39046D02*
X49333Y39370D01*
X49333Y39532D01*
X49495Y39694D01*
X49008Y39694D02*
X49008Y39046D01*
X49495Y39046D01*
X49495Y45057D02*
X49657Y45219D01*
X49819Y45219D01*
X49981Y45057D01*
X36716Y48851D02*
X35743Y48851D01*
X35743Y49337D01*
X35906Y49499D01*
X36230Y49499D01*
X36392Y49337D01*
X36392Y48851D01*
X36392Y49175D02*
X36716Y49499D01*
X36716Y49955D02*
X35743Y50604D01*
X35743Y49955D02*
X36716Y50604D01*
X32271Y50604D02*
X31298Y49955D01*
X31298Y49499D02*
X31298Y48851D01*
X31298Y49175D02*
X32271Y49175D01*
X32271Y49955D02*
X31298Y50604D01*
X28385Y49502D02*
X27737Y48854D01*
X27899Y48692D01*
X28223Y48692D01*
X28385Y48854D01*
X28385Y49502D01*
X28223Y49664D01*
X27899Y49664D01*
X27737Y49502D01*
X27737Y48854D01*
X24575Y48692D02*
X23927Y48692D01*
X24251Y48692D02*
X24251Y49664D01*
X23927Y49340D01*
X20765Y49340D02*
X20765Y49502D01*
X20603Y49664D01*
X20279Y49664D01*
X20117Y49502D01*
X20765Y49340D02*
X20117Y48692D01*
X20765Y48692D01*
X16955Y48854D02*
X16793Y48692D01*
X16469Y48692D01*
X16307Y48854D01*
X16631Y49178D02*
X16793Y49178D01*
X16955Y49016D01*
X16955Y48854D01*
X16793Y49178D02*
X16955Y49340D01*
X16955Y49502D01*
X16793Y49664D01*
X16469Y49664D01*
X16307Y49502D01*
X13145Y49813D02*
X12497Y49813D01*
X12983Y50299D01*
X12983Y49327D01*
X07906Y50759D02*
X07744Y50597D01*
X07420Y50597D01*
X07258Y50759D01*
X07258Y51083D02*
X07582Y51245D01*
X07744Y51245D01*
X07906Y51083D01*
X07906Y50759D01*
X07258Y51083D02*
X07258Y51569D01*
X07906Y51569D01*
X21862Y43945D02*
X22348Y43459D01*
X22348Y44108D01*
X22834Y43945D02*
X21862Y43945D01*
X23662Y43945D02*
X23662Y43621D01*
X23824Y43459D01*
X23662Y43945D02*
X23824Y44108D01*
X23986Y44108D01*
X24634Y43459D01*
X24634Y44108D01*
X25462Y43945D02*
X25462Y43621D01*
X25624Y43459D01*
X26272Y43459D01*
X25624Y44108D01*
X26272Y44108D01*
X26434Y43945D01*
X26434Y43621D01*
X26272Y43459D01*
X25624Y44108D02*
X25462Y43945D01*
X26434Y37758D02*
X26434Y37109D01*
X26434Y37433D02*
X25462Y37433D01*
X25786Y37109D01*
X24634Y37271D02*
X24634Y37595D01*
X24472Y37758D01*
X24310Y37758D01*
X24148Y37595D01*
X24148Y37433D01*
X24148Y37595D02*
X23986Y37758D01*
X23824Y37758D01*
X23662Y37595D01*
X23662Y37271D01*
X23824Y37109D01*
X24472Y37109D02*
X24634Y37271D01*
X22834Y37271D02*
X22834Y37595D01*
X22672Y37758D01*
X22348Y37758D01*
X22186Y37595D01*
X22186Y37433D01*
X22348Y37109D01*
X21862Y37109D01*
X21862Y37758D01*
X22672Y37109D02*
X22834Y37271D01*
X31715Y27598D02*
X31715Y26949D01*
X31391Y27273D02*
X32039Y27273D01*
X34255Y26949D02*
X34255Y27598D01*
X36308Y27642D02*
X36308Y27318D01*
X36308Y27480D02*
X37281Y27480D01*
X37281Y27318D02*
X37281Y27642D01*
X38848Y27435D02*
X38848Y27111D01*
X39011Y26949D01*
X39659Y26949D01*
X39821Y27111D01*
X39821Y27435D01*
X39659Y27598D01*
X39011Y27598D01*
X38848Y27435D01*
X41388Y27435D02*
X41388Y27111D01*
X41551Y26949D01*
X42199Y26949D01*
X42361Y27111D01*
X42361Y27435D01*
X42199Y27598D01*
X41551Y27598D02*
X41388Y27435D01*
X43928Y27435D02*
X43928Y27111D01*
X44091Y26949D01*
X44253Y26949D01*
X44415Y27111D01*
X44415Y27435D01*
X44577Y27598D01*
X44739Y27598D01*
X44901Y27435D01*
X44901Y27111D01*
X44739Y26949D01*
X44091Y27598D02*
X43928Y27435D01*
X46468Y27598D02*
X47441Y27598D01*
X47117Y27273D01*
X47441Y26949D01*
X46468Y26949D01*
X49008Y26949D02*
X49981Y26949D01*
X49495Y26949D02*
X49495Y27598D01*
X49981Y27598D02*
X49008Y27598D01*
D15*
X48263Y23251D02*
X48263Y22918D01*
X48263Y23084D02*
X47266Y23084D01*
X47266Y22918D01*
X47765Y22478D02*
X48263Y22478D01*
X48263Y21979D01*
X48097Y21813D01*
X47931Y21979D01*
X47931Y22478D01*
X47765Y22478D02*
X47598Y22312D01*
X47598Y21979D01*
X47598Y21373D02*
X47598Y20874D01*
X47765Y20708D01*
X47931Y20874D01*
X47931Y21207D01*
X48097Y21373D01*
X48263Y21207D01*
X48263Y20708D01*
X47598Y20286D02*
X47598Y20120D01*
X47931Y19787D01*
X48263Y19787D02*
X47598Y19787D01*
X47765Y19347D02*
X47931Y19347D01*
X47931Y18682D01*
X48097Y18682D02*
X47765Y18682D01*
X47598Y18849D01*
X47598Y19181D01*
X47765Y19347D01*
X48263Y19181D02*
X48263Y18849D01*
X48097Y18682D01*
X47598Y18243D02*
X48263Y17910D01*
X47598Y17577D01*
X47598Y17007D02*
X48263Y17007D01*
X48263Y16841D02*
X48263Y17173D01*
X47598Y17007D02*
X47598Y16841D01*
X47266Y17007D02*
X47099Y17007D01*
X46463Y16841D02*
X45798Y16841D01*
X45798Y17173D02*
X46131Y16841D01*
X45798Y17173D02*
X45798Y17340D01*
X45798Y17762D02*
X45798Y18260D01*
X45965Y18427D01*
X46463Y18427D01*
X46297Y18867D02*
X46463Y19033D01*
X46463Y19365D01*
X46297Y19532D01*
X45965Y19532D01*
X45798Y19365D01*
X45798Y19033D01*
X45965Y18867D01*
X46297Y18867D01*
X46463Y19971D02*
X45466Y20637D01*
X45798Y17762D02*
X46463Y17762D01*
X46297Y16401D02*
X45965Y16401D01*
X45798Y16235D01*
X45798Y15736D01*
X45466Y15736D02*
X46463Y15736D01*
X46463Y16235D01*
X46297Y16401D01*
X46297Y15296D02*
X46131Y15130D01*
X46131Y14797D01*
X45965Y14631D01*
X45798Y14797D01*
X45798Y15296D01*
X46297Y15296D02*
X46463Y15130D01*
X46463Y14631D01*
X46463Y14191D02*
X46463Y13692D01*
X46297Y13526D01*
X45965Y13526D01*
X45798Y13692D01*
X45798Y14191D01*
X46463Y13122D02*
X46463Y12789D01*
X46463Y12956D02*
X45798Y12956D01*
X45798Y12789D01*
X45466Y12956D02*
X45299Y12956D01*
X45798Y12385D02*
X45798Y12053D01*
X45632Y12219D02*
X46297Y12219D01*
X46463Y12385D01*
X46297Y11613D02*
X45965Y11613D01*
X45798Y11447D01*
X45798Y11114D01*
X45965Y10948D01*
X46297Y10948D01*
X46463Y11114D01*
X46463Y11447D01*
X46297Y11613D01*
X47266Y11815D02*
X47432Y11981D01*
X47765Y11981D01*
X47931Y11815D01*
X47931Y11316D01*
X48263Y11316D02*
X47266Y11316D01*
X47266Y11815D01*
X47432Y12421D02*
X47266Y12587D01*
X47266Y12920D01*
X47432Y13086D01*
X47598Y13086D01*
X47765Y12920D01*
X47931Y13086D01*
X48097Y13086D01*
X48263Y12920D01*
X48263Y12587D01*
X48097Y12421D01*
X47765Y12754D02*
X47765Y12920D01*
X47432Y13526D02*
X47266Y13692D01*
X47266Y14025D01*
X47432Y14191D01*
X47598Y14191D01*
X48263Y13526D01*
X48263Y14191D01*
X48097Y14631D02*
X48263Y14797D01*
X48263Y15296D01*
X47598Y15296D01*
X47598Y15736D02*
X47598Y16235D01*
X47765Y16401D01*
X48263Y16401D01*
X48263Y15736D02*
X47598Y15736D01*
X47598Y14631D02*
X48097Y14631D01*
X49232Y13639D02*
X49897Y12974D01*
X50063Y13140D01*
X50063Y13472D01*
X49897Y13639D01*
X49232Y13639D01*
X49066Y13472D01*
X49066Y13140D01*
X49232Y12974D01*
X49897Y12974D01*
X49897Y12587D02*
X50063Y12587D01*
X50063Y12421D01*
X49897Y12421D01*
X49897Y12587D01*
X49565Y11981D02*
X49565Y11316D01*
X49066Y11815D01*
X50063Y11815D01*
X50063Y09771D02*
X49398Y09771D01*
X49066Y09439D01*
X49398Y09106D01*
X50063Y09106D01*
X49897Y08666D02*
X50063Y08500D01*
X50063Y08168D01*
X49897Y08001D01*
X49565Y08168D02*
X49565Y08500D01*
X49731Y08666D01*
X49897Y08666D01*
X49565Y09106D02*
X49565Y09771D01*
X49232Y08666D02*
X49066Y08500D01*
X49066Y08168D01*
X49232Y08001D01*
X49398Y08001D01*
X49565Y08168D01*
X49565Y07561D02*
X49565Y06896D01*
X49232Y06456D02*
X49066Y06456D01*
X49232Y06456D02*
X49565Y06124D01*
X50063Y06124D01*
X49565Y06124D02*
X49232Y05791D01*
X49066Y05791D01*
X49232Y05352D02*
X49398Y05352D01*
X49565Y05185D01*
X49565Y04686D01*
X50063Y04686D02*
X49066Y04686D01*
X49066Y05185D01*
X49232Y05352D01*
X49565Y05185D02*
X49731Y05352D01*
X49897Y05352D01*
X50063Y05185D01*
X50063Y04686D01*
X49897Y03142D02*
X50063Y02975D01*
X50063Y02643D01*
X49897Y02477D01*
X49232Y02477D01*
X49066Y02643D01*
X49066Y02975D01*
X49232Y03142D01*
X48263Y02975D02*
X48263Y02477D01*
X47266Y02477D01*
X47266Y02975D01*
X47432Y03142D01*
X47598Y03142D01*
X47765Y02975D01*
X47765Y02477D01*
X47765Y02037D02*
X47931Y01870D01*
X47931Y01372D01*
X47931Y01704D02*
X48263Y02037D01*
X47765Y02037D02*
X47432Y02037D01*
X47266Y01870D01*
X47266Y01372D01*
X48263Y01372D01*
X49066Y01538D02*
X49066Y01870D01*
X49232Y02037D01*
X49066Y01538D02*
X49232Y01372D01*
X49897Y01372D01*
X50063Y01538D01*
X50063Y01870D01*
X49897Y02037D01*
X48263Y02975D02*
X48097Y03142D01*
X47931Y03142D01*
X47765Y02975D01*
X48097Y03581D02*
X48263Y03748D01*
X48263Y04080D01*
X48097Y04247D01*
X47931Y04247D01*
X47765Y04080D01*
X47765Y03914D01*
X47765Y04080D02*
X47598Y04247D01*
X47432Y04247D01*
X47266Y04080D01*
X47266Y03748D01*
X47432Y03581D01*
X46463Y03546D02*
X46297Y03379D01*
X45632Y03379D01*
X45798Y03213D02*
X45798Y03546D01*
X45965Y03950D02*
X45798Y04116D01*
X45798Y04449D01*
X45965Y04615D01*
X46463Y04615D01*
X46297Y05055D02*
X46463Y05221D01*
X46463Y05720D01*
X45798Y05720D01*
X45798Y06160D02*
X45798Y06659D01*
X45965Y06825D01*
X46297Y06825D01*
X46463Y06659D01*
X46463Y06160D01*
X45466Y06160D01*
X45798Y07265D02*
X45965Y07265D01*
X45965Y07431D01*
X45798Y07431D01*
X45798Y07265D01*
X46297Y07265D02*
X46463Y07265D01*
X46463Y07431D01*
X46297Y07431D01*
X46297Y07265D01*
X46131Y07817D02*
X45798Y08150D01*
X45798Y08316D01*
X45965Y08738D02*
X46297Y08738D01*
X46463Y08904D01*
X46463Y09237D01*
X46297Y09403D01*
X45965Y09403D01*
X45798Y09237D01*
X45798Y08904D01*
X45965Y08738D01*
X45798Y07817D02*
X46463Y07817D01*
X47266Y07395D02*
X47432Y07561D01*
X48097Y06896D01*
X48263Y07063D01*
X48263Y07395D01*
X48097Y07561D01*
X47432Y07561D01*
X47266Y07395D02*
X47266Y07063D01*
X47432Y06896D01*
X48097Y06896D01*
X48097Y06456D02*
X47432Y06456D01*
X48097Y05791D01*
X48263Y05958D01*
X48263Y06290D01*
X48097Y06456D01*
X48097Y05791D02*
X47432Y05791D01*
X47266Y05958D01*
X47266Y06290D01*
X47432Y06456D01*
X47432Y05352D02*
X47266Y05185D01*
X47266Y04853D01*
X47432Y04686D01*
X47432Y05352D02*
X47598Y05352D01*
X48263Y04686D01*
X48263Y05352D01*
X46463Y03950D02*
X45466Y03950D01*
X45798Y05055D02*
X46297Y05055D01*
X46463Y02809D02*
X46463Y02477D01*
X46463Y02643D02*
X45798Y02643D01*
X45798Y02477D01*
X45466Y02643D02*
X45299Y02643D01*
X45798Y02037D02*
X45798Y01538D01*
X45965Y01372D01*
X46297Y01372D01*
X46463Y01538D01*
X46463Y02037D01*
X46630Y02037D02*
X45798Y02037D01*
X46630Y02037D02*
X46796Y01870D01*
X46796Y01704D01*
X47765Y08001D02*
X47765Y08666D01*
X47765Y09106D02*
X47765Y09439D01*
X48263Y09771D02*
X48263Y09106D01*
X47266Y09106D01*
X47266Y09771D01*
X47432Y10211D02*
X47598Y10211D01*
X47765Y10377D01*
X47765Y10710D01*
X47931Y10876D01*
X48097Y10876D01*
X48263Y10710D01*
X48263Y10377D01*
X48097Y10211D01*
X47432Y10211D02*
X47266Y10377D01*
X47266Y10710D01*
X47432Y10876D01*
X46463Y10342D02*
X46297Y10508D01*
X45965Y10508D01*
X45798Y10342D01*
X45798Y09843D01*
X45466Y09843D02*
X46463Y09843D01*
X46463Y10342D01*
X34823Y10337D02*
X34823Y10693D01*
X34823Y10515D02*
X34112Y10515D01*
X34112Y10337D01*
X33756Y10515D02*
X33578Y10515D01*
X33756Y11117D02*
X34823Y11117D01*
X34467Y11117D02*
X34823Y11650D01*
X34645Y12091D02*
X34467Y12269D01*
X34467Y12803D01*
X34290Y12803D02*
X34823Y12803D01*
X34823Y12269D01*
X34645Y12091D01*
X34112Y12269D02*
X34112Y12625D01*
X34290Y12803D01*
X34290Y13260D02*
X34290Y13794D01*
X34467Y13972D01*
X34645Y13972D01*
X34823Y13794D01*
X34823Y13260D01*
X33756Y13260D01*
X33756Y13794D01*
X33934Y13972D01*
X34112Y13972D01*
X34290Y13794D01*
X34467Y14430D02*
X34112Y14786D01*
X34112Y14964D01*
X34112Y15404D02*
X34112Y15938D01*
X34290Y16116D01*
X34823Y16116D01*
X34645Y16574D02*
X34823Y16752D01*
X34823Y17108D01*
X34645Y17286D01*
X34290Y17286D01*
X34112Y17108D01*
X34112Y16752D01*
X34290Y16574D01*
X34645Y16574D01*
X34645Y17743D02*
X34645Y17921D01*
X34823Y17921D01*
X34823Y17743D01*
X34645Y17743D01*
X34645Y18328D02*
X34290Y18328D01*
X34112Y18506D01*
X34112Y19040D01*
X34112Y19497D02*
X34112Y20209D01*
X34823Y19497D01*
X34823Y20209D01*
X34823Y19040D02*
X34823Y18506D01*
X34645Y18328D01*
X34823Y15404D02*
X34112Y15404D01*
X34112Y14430D02*
X34823Y14430D01*
X34112Y11650D02*
X34467Y11117D01*
X34112Y09913D02*
X34112Y09557D01*
X33934Y09735D02*
X34645Y09735D01*
X34823Y09913D01*
X34645Y09100D02*
X34290Y09100D01*
X34112Y08922D01*
X34112Y08566D01*
X34290Y08388D01*
X34645Y08388D01*
X34823Y08566D01*
X34823Y08922D01*
X34645Y09100D01*
X34645Y07930D02*
X34290Y07930D01*
X34112Y07752D01*
X34112Y07219D01*
X33756Y07219D02*
X34823Y07219D01*
X34823Y07752D01*
X34645Y07930D01*
X34645Y06761D02*
X34290Y06761D01*
X34112Y06583D01*
X34112Y06227D01*
X34290Y06049D01*
X34645Y06049D01*
X34823Y06227D01*
X34823Y06583D01*
X34645Y06761D01*
X34823Y05592D02*
X34467Y05236D01*
X34467Y05414D02*
X34467Y04880D01*
X34823Y04880D02*
X33756Y04880D01*
X33756Y05414D01*
X33934Y05592D01*
X34290Y05592D01*
X34467Y05414D01*
X34467Y03253D02*
X34645Y03253D01*
X34823Y03075D01*
X34823Y02541D01*
X33756Y02541D01*
X33756Y03075D01*
X33934Y03253D01*
X34112Y03253D01*
X34290Y03075D01*
X34290Y02541D01*
X34290Y02083D02*
X34467Y01905D01*
X34467Y01372D01*
X34467Y01728D02*
X34823Y02083D01*
X34290Y02083D02*
X33934Y02083D01*
X33756Y01905D01*
X33756Y01372D01*
X34823Y01372D01*
X34290Y03075D02*
X34467Y03253D01*
X19817Y05987D02*
X19286Y05987D01*
X19020Y06253D01*
X19286Y06519D01*
X19817Y06519D01*
X19817Y06908D02*
X19020Y06908D01*
X19020Y07307D01*
X19153Y07440D01*
X19419Y07440D01*
X19552Y07307D01*
X19552Y06908D01*
X19552Y07174D02*
X19817Y07440D01*
X19684Y07829D02*
X19419Y07829D01*
X19286Y07962D01*
X19286Y08227D01*
X19419Y08360D01*
X19552Y08360D01*
X19552Y07829D01*
X19684Y07829D02*
X19817Y07962D01*
X19817Y08227D01*
X19817Y08882D02*
X19153Y08882D01*
X19020Y09015D01*
X19419Y09015D02*
X19419Y08749D01*
X19419Y06519D02*
X19419Y05987D01*
X16477Y05938D02*
X16477Y05540D01*
X15680Y05540D01*
X15680Y05938D01*
X15813Y06071D01*
X16344Y06071D01*
X16477Y05938D01*
X16477Y06460D02*
X15946Y06460D01*
X15680Y06726D01*
X15946Y06992D01*
X16477Y06992D01*
X16079Y06992D02*
X16079Y06460D01*
X16212Y05150D02*
X16344Y05150D01*
X16477Y05017D01*
X16477Y04752D01*
X16344Y04619D01*
X16079Y04752D02*
X16079Y05017D01*
X16212Y05150D01*
X15813Y05150D02*
X15680Y05017D01*
X15680Y04752D01*
X15813Y04619D01*
X15946Y04619D01*
X16079Y04752D01*
X16477Y03907D02*
X16477Y03375D01*
X15680Y03375D01*
X15813Y02986D02*
X15680Y02853D01*
X15680Y02587D01*
X15813Y02455D01*
X16344Y02455D01*
X16477Y02587D01*
X16477Y02853D01*
X16344Y02986D01*
X16344Y02065D02*
X16212Y02065D01*
X16079Y01932D01*
X16079Y01667D01*
X15946Y01534D01*
X15813Y01534D01*
X15680Y01667D01*
X15680Y01932D01*
X15813Y02065D01*
X16344Y02065D02*
X16477Y01932D01*
X16477Y01667D01*
X16344Y01534D01*
X16344Y08601D02*
X15813Y08601D01*
X15680Y08734D01*
X15680Y09000D01*
X15813Y09133D01*
X16079Y09133D02*
X16079Y08867D01*
X16079Y09133D02*
X16344Y09133D01*
X16477Y09000D01*
X16477Y08734D01*
X16344Y08601D01*
X16477Y09522D02*
X15680Y09522D01*
X16477Y10054D01*
X15680Y10054D01*
X15680Y10443D02*
X15680Y10842D01*
X15813Y10974D01*
X16344Y10974D01*
X16477Y10842D01*
X16477Y10443D01*
X15680Y10443D01*
X15964Y11814D02*
X15698Y12080D01*
X16496Y12080D01*
X16496Y11814D02*
X16496Y12346D01*
X16363Y12735D02*
X16496Y12868D01*
X16496Y13134D01*
X16363Y13266D01*
X16230Y13266D01*
X16097Y13134D01*
X16097Y13001D01*
X16097Y13134D02*
X15964Y13266D01*
X15831Y13266D01*
X15698Y13134D01*
X15698Y12868D01*
X15831Y12735D01*
X15964Y14354D02*
X15698Y14620D01*
X16496Y14620D01*
X16496Y14354D02*
X16496Y14886D01*
X16496Y15275D02*
X15964Y15806D01*
X15831Y15806D01*
X15698Y15674D01*
X15698Y15408D01*
X15831Y15275D01*
X16496Y15275D02*
X16496Y15806D01*
X16496Y16894D02*
X16496Y17426D01*
X16496Y17160D02*
X15698Y17160D01*
X15964Y16894D01*
X15964Y17815D02*
X15698Y18081D01*
X16496Y18081D01*
X16496Y18346D02*
X16496Y17815D01*
X16496Y19434D02*
X16496Y19966D01*
X16496Y19700D02*
X15698Y19700D01*
X15964Y19434D01*
X15831Y20355D02*
X15698Y20488D01*
X15698Y20754D01*
X15831Y20886D01*
X16363Y20355D01*
X16496Y20488D01*
X16496Y20754D01*
X16363Y20886D01*
X15831Y20886D01*
X15831Y20355D02*
X16363Y20355D01*
X16363Y22387D02*
X16496Y22520D01*
X16496Y22786D01*
X16363Y22918D01*
X15831Y22918D01*
X15698Y22786D01*
X15698Y22520D01*
X15831Y22387D01*
X15964Y22387D01*
X16097Y22520D01*
X16097Y22918D01*
X15964Y24927D02*
X15831Y24927D01*
X15698Y25060D01*
X15698Y25326D01*
X15831Y25458D01*
X15964Y25458D01*
X16097Y25326D01*
X16097Y25060D01*
X15964Y24927D01*
X16097Y25060D02*
X16230Y24927D01*
X16363Y24927D01*
X16496Y25060D01*
X16496Y25326D01*
X16363Y25458D01*
X16230Y25458D01*
X16097Y25326D01*
X19136Y28991D02*
X19136Y29522D01*
X19269Y29522D01*
X19800Y28991D01*
X19933Y28991D01*
X19800Y31531D02*
X19933Y31664D01*
X19933Y31930D01*
X19800Y32062D01*
X19668Y32062D01*
X19535Y31930D01*
X19535Y31531D01*
X19800Y31531D01*
X19535Y31531D02*
X19269Y31797D01*
X19136Y32062D01*
X19136Y33133D02*
X19535Y33133D01*
X19402Y33399D01*
X19402Y33532D01*
X19535Y33665D01*
X19800Y33665D01*
X19933Y33532D01*
X19933Y33266D01*
X19800Y33133D01*
X19136Y33133D02*
X19136Y33665D01*
X19535Y36923D02*
X19136Y37322D01*
X19933Y37322D01*
X19535Y37455D02*
X19535Y36923D01*
X19800Y39151D02*
X19933Y39284D01*
X19933Y39550D01*
X19800Y39682D01*
X19668Y39682D01*
X19535Y39550D01*
X19535Y39417D01*
X19535Y39550D02*
X19402Y39682D01*
X19269Y39682D01*
X19136Y39550D01*
X19136Y39284D01*
X19269Y39151D01*
X19269Y41691D02*
X19136Y41824D01*
X19136Y42090D01*
X19269Y42222D01*
X19402Y42222D01*
X19933Y41691D01*
X19933Y42222D01*
X19933Y44231D02*
X19933Y44762D01*
X19933Y44497D02*
X19136Y44497D01*
X19402Y44231D01*
X19269Y46771D02*
X19136Y46904D01*
X19136Y47170D01*
X19269Y47302D01*
X19800Y46771D01*
X19933Y46904D01*
X19933Y47170D01*
X19800Y47302D01*
X19269Y47302D01*
X19269Y46771D02*
X19800Y46771D01*
X67368Y46711D02*
X67767Y46711D01*
X67634Y46976D01*
X67634Y47109D01*
X67767Y47242D01*
X68033Y47242D01*
X68166Y47109D01*
X68166Y46844D01*
X68033Y46711D01*
X67368Y46711D02*
X67368Y47242D01*
X67767Y44702D02*
X67767Y44171D01*
X67368Y44569D01*
X68166Y44569D01*
X68033Y42162D02*
X67900Y42162D01*
X67767Y42029D01*
X67767Y41896D01*
X67767Y42029D02*
X67634Y42162D01*
X67501Y42162D01*
X67368Y42029D01*
X67368Y41764D01*
X67501Y41631D01*
X68033Y41631D02*
X68166Y41764D01*
X68166Y42029D01*
X68033Y42162D01*
X68166Y39622D02*
X68166Y39091D01*
X67634Y39622D01*
X67501Y39622D01*
X67368Y39489D01*
X67368Y39224D01*
X67501Y39091D01*
X68166Y37082D02*
X68166Y36551D01*
X68166Y36816D02*
X67368Y36816D01*
X67634Y36551D01*
X67501Y33937D02*
X68033Y33406D01*
X68166Y33539D01*
X68166Y33804D01*
X68033Y33937D01*
X67501Y33937D01*
X67368Y33804D01*
X67368Y33539D01*
X67501Y33406D01*
X68033Y33406D01*
X68166Y30443D02*
X67767Y30443D01*
X67634Y30310D01*
X67634Y29912D01*
X68166Y29912D01*
X68166Y29564D02*
X68166Y29298D01*
X68166Y29431D02*
X67634Y29431D01*
X67634Y29298D01*
X67368Y29431D02*
X67236Y29431D01*
X67368Y28909D02*
X67900Y28909D01*
X68166Y28643D01*
X67900Y28377D01*
X67368Y28377D01*
X67368Y26742D02*
X68166Y26742D01*
X68166Y26343D01*
X68033Y26210D01*
X67767Y26210D01*
X67634Y26343D01*
X67634Y26742D01*
X67767Y25821D02*
X68166Y25821D01*
X67767Y25821D02*
X67634Y25688D01*
X67634Y25289D01*
X68166Y25289D01*
X68033Y24900D02*
X67767Y24900D01*
X67767Y24635D01*
X67501Y24900D02*
X67368Y24767D01*
X67368Y24502D01*
X67501Y24369D01*
X68033Y24369D01*
X68166Y24502D01*
X68166Y24767D01*
X68033Y24900D01*
X67900Y22590D02*
X67368Y22590D01*
X67368Y22059D02*
X67900Y22059D01*
X68166Y22325D01*
X67900Y22590D01*
X67767Y21670D02*
X68033Y21670D01*
X68166Y21537D01*
X68166Y21271D01*
X68033Y21138D01*
X67767Y21138D02*
X67634Y21404D01*
X67634Y21537D01*
X67767Y21670D01*
X67368Y21670D02*
X67368Y21138D01*
X67767Y21138D01*
X67900Y19796D02*
X67368Y19796D01*
X67368Y19265D02*
X67900Y19265D01*
X68166Y19531D01*
X67900Y19796D01*
X67900Y18876D02*
X68033Y18876D01*
X68166Y18743D01*
X68166Y18477D01*
X68033Y18344D01*
X67767Y18610D02*
X67767Y18743D01*
X67900Y18876D01*
X67767Y18743D02*
X67634Y18876D01*
X67501Y18876D01*
X67368Y18743D01*
X67368Y18477D01*
X67501Y18344D01*
X67379Y17618D02*
X67379Y17086D01*
X67379Y17352D02*
X68176Y17352D01*
X68043Y16697D02*
X67910Y16697D01*
X67777Y16564D01*
X67777Y16298D01*
X67644Y16165D01*
X67511Y16165D01*
X67379Y16298D01*
X67379Y16564D01*
X67511Y16697D01*
X68043Y16697D02*
X68176Y16564D01*
X68176Y16298D01*
X68043Y16165D01*
X68176Y15776D02*
X67910Y15510D01*
X67910Y15643D02*
X67910Y15245D01*
X68176Y15245D02*
X67379Y15245D01*
X67379Y15643D01*
X67511Y15776D01*
X67777Y15776D01*
X67910Y15643D01*
X67644Y14638D02*
X67644Y14505D01*
X67910Y14239D01*
X68176Y14239D02*
X67644Y14239D01*
X67511Y13850D02*
X67379Y13717D01*
X67379Y13451D01*
X67511Y13318D01*
X68043Y13318D01*
X68176Y13451D01*
X68176Y13717D01*
X68043Y13850D01*
X67511Y13850D01*
X67379Y12970D02*
X67379Y12705D01*
X67379Y12838D02*
X68176Y12838D01*
X68176Y12970D02*
X68176Y12705D01*
X68043Y11930D02*
X68176Y11797D01*
X68176Y11531D01*
X68043Y11398D01*
X67511Y11398D01*
X67379Y11531D01*
X67379Y11797D01*
X67511Y11930D01*
X67379Y11009D02*
X68176Y11009D01*
X67379Y10477D01*
X68176Y10477D01*
X82773Y34969D02*
X83487Y34969D01*
X83487Y35232D01*
X83337Y35410D01*
X83337Y35539D01*
X83760Y35539D01*
X84060Y35539D01*
X84060Y45699D01*
X83760Y45699D01*
X83760Y35539D01*
X83337Y35539D02*
X83138Y35539D01*
X83138Y45699D01*
X83760Y45699D01*
X83138Y45699D02*
X82458Y45699D01*
X81966Y45699D01*
X77969Y45699D01*
X77486Y45699D01*
X75960Y45699D01*
X75960Y35539D01*
X77486Y35539D01*
X77969Y35539D01*
X81966Y35539D01*
X82458Y35539D01*
X82458Y45699D01*
X78070Y43159D02*
X78072Y43246D01*
X78078Y43333D01*
X78088Y43420D01*
X78102Y43506D01*
X78119Y43591D01*
X78141Y43676D01*
X78166Y43759D01*
X78196Y43841D01*
X78229Y43922D01*
X78265Y44001D01*
X78305Y44079D01*
X78349Y44154D01*
X78396Y44227D01*
X78446Y44299D01*
X78500Y44368D01*
X78556Y44434D01*
X78616Y44498D01*
X78678Y44559D01*
X78743Y44617D01*
X78811Y44672D01*
X78881Y44723D01*
X78953Y44772D01*
X79027Y44817D01*
X79104Y44859D01*
X79182Y44898D01*
X79262Y44932D01*
X79344Y44963D01*
X79426Y44991D01*
X79510Y45014D01*
X79595Y45034D01*
X79681Y45050D01*
X79767Y45062D01*
X79854Y45070D01*
X79941Y45074D01*
X80029Y45074D01*
X80116Y45070D01*
X80203Y45062D01*
X80289Y45050D01*
X80375Y45034D01*
X80460Y45014D01*
X80544Y44991D01*
X80626Y44963D01*
X80708Y44932D01*
X80788Y44898D01*
X80866Y44859D01*
X80942Y44817D01*
X81017Y44772D01*
X81089Y44723D01*
X81159Y44672D01*
X81227Y44617D01*
X81292Y44559D01*
X81354Y44498D01*
X81414Y44434D01*
X81470Y44368D01*
X81524Y44299D01*
X81574Y44227D01*
X81621Y44154D01*
X81665Y44079D01*
X81705Y44001D01*
X81741Y43922D01*
X81774Y43841D01*
X81804Y43759D01*
X81829Y43676D01*
X81851Y43591D01*
X81868Y43506D01*
X81882Y43420D01*
X81892Y43333D01*
X81898Y43246D01*
X81900Y43159D01*
X81898Y43072D01*
X81892Y42985D01*
X81882Y42898D01*
X81868Y42812D01*
X81851Y42727D01*
X81829Y42642D01*
X81804Y42559D01*
X81774Y42477D01*
X81741Y42396D01*
X81705Y42317D01*
X81665Y42239D01*
X81621Y42164D01*
X81574Y42091D01*
X81524Y42019D01*
X81470Y41950D01*
X81414Y41884D01*
X81354Y41820D01*
X81292Y41759D01*
X81227Y41701D01*
X81159Y41646D01*
X81089Y41595D01*
X81017Y41546D01*
X80943Y41501D01*
X80866Y41459D01*
X80788Y41420D01*
X80708Y41386D01*
X80626Y41355D01*
X80544Y41327D01*
X80460Y41304D01*
X80375Y41284D01*
X80289Y41268D01*
X80203Y41256D01*
X80116Y41248D01*
X80029Y41244D01*
X79941Y41244D01*
X79854Y41248D01*
X79767Y41256D01*
X79681Y41268D01*
X79595Y41284D01*
X79510Y41304D01*
X79426Y41327D01*
X79344Y41355D01*
X79262Y41386D01*
X79182Y41420D01*
X79104Y41459D01*
X79027Y41501D01*
X78953Y41546D01*
X78881Y41595D01*
X78811Y41646D01*
X78743Y41701D01*
X78678Y41759D01*
X78616Y41820D01*
X78556Y41884D01*
X78500Y41950D01*
X78446Y42019D01*
X78396Y42091D01*
X78349Y42164D01*
X78305Y42239D01*
X78265Y42317D01*
X78229Y42396D01*
X78196Y42477D01*
X78166Y42559D01*
X78141Y42642D01*
X78119Y42727D01*
X78102Y42812D01*
X78088Y42898D01*
X78078Y42985D01*
X78072Y43072D01*
X78070Y43159D01*
X77486Y45699D02*
X77486Y35539D01*
X78070Y38079D02*
X78072Y38166D01*
X78078Y38253D01*
X78088Y38340D01*
X78102Y38426D01*
X78119Y38511D01*
X78141Y38596D01*
X78166Y38679D01*
X78196Y38761D01*
X78229Y38842D01*
X78265Y38921D01*
X78305Y38999D01*
X78349Y39074D01*
X78396Y39147D01*
X78446Y39219D01*
X78500Y39288D01*
X78556Y39354D01*
X78616Y39418D01*
X78678Y39479D01*
X78743Y39537D01*
X78811Y39592D01*
X78881Y39643D01*
X78953Y39692D01*
X79027Y39737D01*
X79104Y39779D01*
X79182Y39818D01*
X79262Y39852D01*
X79344Y39883D01*
X79426Y39911D01*
X79510Y39934D01*
X79595Y39954D01*
X79681Y39970D01*
X79767Y39982D01*
X79854Y39990D01*
X79941Y39994D01*
X80029Y39994D01*
X80116Y39990D01*
X80203Y39982D01*
X80289Y39970D01*
X80375Y39954D01*
X80460Y39934D01*
X80544Y39911D01*
X80626Y39883D01*
X80708Y39852D01*
X80788Y39818D01*
X80866Y39779D01*
X80942Y39737D01*
X81017Y39692D01*
X81089Y39643D01*
X81159Y39592D01*
X81227Y39537D01*
X81292Y39479D01*
X81354Y39418D01*
X81414Y39354D01*
X81470Y39288D01*
X81524Y39219D01*
X81574Y39147D01*
X81621Y39074D01*
X81665Y38999D01*
X81705Y38921D01*
X81741Y38842D01*
X81774Y38761D01*
X81804Y38679D01*
X81829Y38596D01*
X81851Y38511D01*
X81868Y38426D01*
X81882Y38340D01*
X81892Y38253D01*
X81898Y38166D01*
X81900Y38079D01*
X81898Y37992D01*
X81892Y37905D01*
X81882Y37818D01*
X81868Y37732D01*
X81851Y37647D01*
X81829Y37562D01*
X81804Y37479D01*
X81774Y37397D01*
X81741Y37316D01*
X81705Y37237D01*
X81665Y37159D01*
X81621Y37084D01*
X81574Y37011D01*
X81524Y36939D01*
X81470Y36870D01*
X81414Y36804D01*
X81354Y36740D01*
X81292Y36679D01*
X81227Y36621D01*
X81159Y36566D01*
X81089Y36515D01*
X81017Y36466D01*
X80943Y36421D01*
X80866Y36379D01*
X80788Y36340D01*
X80708Y36306D01*
X80626Y36275D01*
X80544Y36247D01*
X80460Y36224D01*
X80375Y36204D01*
X80289Y36188D01*
X80203Y36176D01*
X80116Y36168D01*
X80029Y36164D01*
X79941Y36164D01*
X79854Y36168D01*
X79767Y36176D01*
X79681Y36188D01*
X79595Y36204D01*
X79510Y36224D01*
X79426Y36247D01*
X79344Y36275D01*
X79262Y36306D01*
X79182Y36340D01*
X79104Y36379D01*
X79027Y36421D01*
X78953Y36466D01*
X78881Y36515D01*
X78811Y36566D01*
X78743Y36621D01*
X78678Y36679D01*
X78616Y36740D01*
X78556Y36804D01*
X78500Y36870D01*
X78446Y36939D01*
X78396Y37011D01*
X78349Y37084D01*
X78305Y37159D01*
X78265Y37237D01*
X78229Y37316D01*
X78196Y37397D01*
X78166Y37479D01*
X78141Y37562D01*
X78119Y37647D01*
X78102Y37732D01*
X78088Y37818D01*
X78078Y37905D01*
X78072Y37992D01*
X78070Y38079D01*
X82458Y35539D02*
X82923Y35539D01*
X83138Y35539D01*
X82923Y35539D02*
X82923Y35410D01*
X82773Y35232D01*
X82773Y34969D01*
D16*
X56403Y27659D03*
X40850Y03841D03*
D17*
X40840Y03841D03*
X39966Y03841D03*
X37051Y03831D03*
X52603Y27649D03*
X55519Y27659D03*
X56393Y27659D03*
D18*
X56383Y27659D03*
X54767Y29609D03*
X54747Y29620D03*
X54737Y29620D03*
X54716Y29630D03*
X54696Y29640D03*
X54686Y29640D03*
X54666Y29650D03*
X53995Y29742D03*
X54757Y25708D03*
X54737Y25698D03*
X54716Y25688D03*
X54706Y25688D03*
X54686Y25678D03*
X54655Y25667D03*
X38442Y05924D03*
X39113Y05833D03*
X39133Y05822D03*
X39144Y05822D03*
X39164Y05812D03*
X39184Y05802D03*
X39194Y05802D03*
X39215Y05792D03*
X40830Y03841D03*
X39204Y01890D03*
X39184Y01880D03*
X39164Y01870D03*
X39154Y01870D03*
X39133Y01860D03*
X39103Y01850D03*
D19*
X38392Y01824D03*
X37772Y01926D03*
X40820Y03846D03*
X37233Y05533D03*
X37223Y05523D03*
X53324Y25744D03*
X53944Y25642D03*
X56372Y27664D03*
X52786Y29350D03*
X52776Y29340D03*
D20*
X55346Y29203D03*
X55519Y29071D03*
X56362Y27659D03*
X55519Y26246D03*
X55509Y26236D03*
X54036Y26856D03*
X53751Y26948D03*
X53416Y25769D03*
X39794Y05386D03*
X39966Y05253D03*
X40810Y03841D03*
X39966Y02429D03*
X39956Y02419D03*
X38483Y03039D03*
X38199Y03130D03*
X37863Y01951D03*
D21*
X38260Y01941D03*
X39682Y02277D03*
X40800Y03841D03*
X38260Y05741D03*
X53812Y25759D03*
X55234Y26094D03*
X56352Y27659D03*
X53812Y29559D03*
D22*
X54787Y29391D03*
X54808Y29381D03*
X55143Y29228D03*
X56342Y27664D03*
X39591Y05411D03*
X39255Y05563D03*
X39235Y05573D03*
X40789Y03846D03*
D23*
X40779Y03841D03*
X40180Y04918D03*
X40180Y02764D03*
X55732Y26582D03*
X56332Y27659D03*
X55732Y28736D03*
D24*
X56322Y27664D03*
X40769Y03846D03*
D25*
X40759Y03841D03*
X36776Y02764D03*
X36715Y04857D03*
X36766Y04908D03*
X52329Y26582D03*
X52268Y28675D03*
X52319Y28726D03*
X56311Y27659D03*
D26*
X56301Y27664D03*
X40749Y03846D03*
D27*
X40739Y03841D03*
X38778Y04695D03*
X36949Y04999D03*
X36146Y03841D03*
X36969Y02673D03*
X52522Y26490D03*
X51699Y27659D03*
X52501Y28817D03*
X54330Y28512D03*
X56291Y27659D03*
D28*
X56281Y27659D03*
X52613Y26450D03*
X51709Y27659D03*
X40728Y03841D03*
X37061Y02632D03*
X36156Y03841D03*
D29*
X39499Y03846D03*
X39509Y03846D03*
X40718Y03846D03*
X55052Y27664D03*
X55062Y27664D03*
X56271Y27664D03*
D30*
X56261Y27664D03*
X55153Y27664D03*
X55143Y27664D03*
X40708Y03846D03*
X39601Y03846D03*
X39591Y03846D03*
D31*
X40698Y03841D03*
X56250Y27659D03*
D32*
X56240Y27659D03*
X54818Y27659D03*
X51750Y27659D03*
X40688Y03841D03*
X39265Y03841D03*
X36197Y03841D03*
D33*
X39245Y03841D03*
X40678Y03841D03*
X54798Y27659D03*
X56230Y27659D03*
D34*
X56220Y27659D03*
X51770Y27659D03*
X40668Y03841D03*
X36217Y03841D03*
D35*
X39184Y03841D03*
X40657Y03841D03*
X54737Y27659D03*
X56210Y27659D03*
D36*
X56200Y27664D03*
X40647Y03846D03*
D37*
X40637Y03846D03*
X56190Y27664D03*
D38*
X56179Y27659D03*
X54635Y27659D03*
X51811Y27659D03*
X40627Y03841D03*
X39083Y03841D03*
X36258Y03841D03*
D39*
X36268Y03841D03*
X39042Y03841D03*
X40617Y03841D03*
X51821Y27659D03*
X54594Y27659D03*
X56169Y27659D03*
D40*
X56159Y27659D03*
X54564Y27659D03*
X40607Y03841D03*
X39011Y03841D03*
D41*
X40596Y03841D03*
X56149Y27659D03*
D42*
X56139Y27659D03*
X53548Y27659D03*
X53497Y27649D03*
X51851Y27659D03*
X40586Y03841D03*
X37995Y03841D03*
X37945Y03831D03*
X36299Y03841D03*
D43*
X36309Y03841D03*
X37924Y03831D03*
X38046Y03841D03*
X40576Y03841D03*
X51861Y27659D03*
X53477Y27649D03*
X53599Y27659D03*
X56129Y27659D03*
D44*
X56118Y27659D03*
X51872Y27659D03*
X40566Y03841D03*
X36319Y03841D03*
D45*
X40556Y03846D03*
X56108Y27664D03*
D46*
X56098Y27664D03*
X40546Y03846D03*
D47*
X40535Y03841D03*
X56088Y27659D03*
D48*
X56078Y27659D03*
X53385Y27649D03*
X51912Y27659D03*
X40525Y03841D03*
X37833Y03831D03*
X36360Y03841D03*
D49*
X40515Y03846D03*
X56068Y27664D03*
D50*
X56057Y27659D03*
X40505Y03841D03*
D51*
X40495Y03841D03*
X56047Y27659D03*
D52*
X56037Y27664D03*
X40485Y03846D03*
D53*
X40474Y03841D03*
X39001Y03618D03*
X36410Y03841D03*
X51963Y27659D03*
X54554Y27435D03*
X56027Y27659D03*
D54*
X56017Y27664D03*
X40464Y03846D03*
D55*
X40454Y03841D03*
X37721Y03831D03*
X53274Y27649D03*
X56007Y27659D03*
D56*
X55996Y27664D03*
X40444Y03846D03*
D57*
X40434Y03841D03*
X37691Y03831D03*
X36451Y03841D03*
X52004Y27659D03*
X53243Y27649D03*
X55986Y27659D03*
D58*
X55976Y27664D03*
X53121Y27664D03*
X40424Y03846D03*
X37569Y03846D03*
D59*
X36471Y03841D03*
X40414Y03841D03*
X52024Y27659D03*
X55966Y27659D03*
D60*
X55956Y27664D03*
X53172Y27664D03*
X40403Y03846D03*
X37620Y03846D03*
D61*
X40393Y03841D03*
X55946Y27659D03*
D62*
X55936Y27659D03*
X40383Y03841D03*
D63*
X40373Y03846D03*
X36512Y03846D03*
X52065Y27664D03*
X55925Y27664D03*
D64*
X55915Y27659D03*
X52075Y27659D03*
X40363Y03841D03*
X36522Y03841D03*
D65*
X40353Y03841D03*
X55905Y27659D03*
D66*
X55895Y27664D03*
X40342Y03846D03*
D67*
X40332Y03846D03*
X55885Y27664D03*
D68*
X55875Y27659D03*
X52115Y27659D03*
X40322Y03841D03*
X36563Y03841D03*
D69*
X40312Y03841D03*
X55864Y27659D03*
D70*
X55854Y27664D03*
X54513Y27664D03*
X40302Y03846D03*
X38961Y03846D03*
D71*
X40292Y03846D03*
X55844Y27664D03*
D72*
X55834Y27659D03*
X54442Y27659D03*
X54432Y27659D03*
X52156Y27659D03*
X40281Y03841D03*
X38890Y03841D03*
X38879Y03841D03*
X36604Y03841D03*
D73*
X36614Y03841D03*
X38839Y03841D03*
X38849Y03841D03*
X40271Y03841D03*
X52166Y27659D03*
X54391Y27659D03*
X54401Y27659D03*
X55824Y27659D03*
D74*
X55814Y27659D03*
X54361Y27659D03*
X54351Y27659D03*
X52176Y27659D03*
X40261Y03841D03*
X38808Y03841D03*
X38798Y03841D03*
X36624Y03841D03*
D75*
X40251Y03841D03*
X55803Y27659D03*
D76*
X55793Y27664D03*
X40241Y03846D03*
D77*
X40231Y03846D03*
X36654Y03846D03*
X52207Y27664D03*
X55783Y27664D03*
D78*
X55773Y27664D03*
X40220Y03846D03*
D79*
X40210Y03846D03*
X55763Y27664D03*
D80*
X55753Y27029D03*
X40200Y03211D03*
D81*
X40200Y04867D03*
X37437Y03841D03*
X52989Y27659D03*
X55753Y28685D03*
D82*
X55742Y26607D03*
X40190Y02790D03*
D83*
X40190Y03841D03*
X55742Y27659D03*
D84*
X55742Y28715D03*
X40190Y04898D03*
D85*
X40180Y03836D03*
X38402Y05868D03*
X37305Y05584D03*
X37305Y02099D03*
X37315Y02099D03*
X37325Y02089D03*
X52857Y25916D03*
X52867Y25916D03*
X52877Y25906D03*
X55732Y27654D03*
X53954Y29686D03*
X52857Y29401D03*
D86*
X54970Y29284D03*
X54991Y29274D03*
X55001Y29264D03*
X55062Y29234D03*
X55722Y26561D03*
X55052Y26074D03*
X55011Y26064D03*
X55001Y26053D03*
X39509Y05416D03*
X39448Y05447D03*
X39438Y05457D03*
X39418Y05467D03*
X40170Y02744D03*
X39499Y02256D03*
X39458Y02246D03*
X39448Y02236D03*
D87*
X37741Y01916D03*
X37386Y02048D03*
X37376Y02058D03*
X37366Y02058D03*
X37355Y02068D03*
X40170Y03836D03*
X37386Y05634D03*
X37376Y05634D03*
X37366Y05624D03*
X37335Y05604D03*
X52918Y25876D03*
X52928Y25876D03*
X52938Y25865D03*
X52908Y25886D03*
X53294Y25733D03*
X55722Y27654D03*
X52938Y29452D03*
X52928Y29452D03*
X52918Y29442D03*
X52888Y29421D03*
D88*
X54950Y29300D03*
X54960Y29289D03*
X55072Y29239D03*
X55722Y28761D03*
X55072Y26079D03*
X55062Y26079D03*
X54991Y26048D03*
X39519Y05421D03*
X39408Y05472D03*
X39398Y05482D03*
X40170Y04944D03*
X39519Y02261D03*
X39509Y02261D03*
X39438Y02231D03*
D89*
X39398Y02200D03*
X39387Y02190D03*
X39540Y02261D03*
X40160Y02719D03*
X38554Y04751D03*
X39347Y05513D03*
X39367Y05502D03*
X40160Y04964D03*
X37406Y03846D03*
X54940Y26008D03*
X54950Y26018D03*
X55092Y26079D03*
X55712Y26536D03*
X55712Y28781D03*
X54920Y29320D03*
X54899Y29330D03*
X54107Y28568D03*
X52959Y27664D03*
D90*
X52979Y25840D03*
X53284Y25728D03*
X55712Y27659D03*
X53284Y29589D03*
X37731Y05772D03*
X40160Y03841D03*
X37731Y01911D03*
X37426Y02023D03*
D91*
X39337Y02160D03*
X39347Y02170D03*
X39560Y02261D03*
X40149Y02698D03*
X40149Y04984D03*
X39570Y05411D03*
X39316Y05533D03*
X39306Y05533D03*
X39296Y05543D03*
X54889Y25977D03*
X54899Y25987D03*
X55113Y26079D03*
X55702Y26516D03*
X55702Y28802D03*
X55123Y29228D03*
X54869Y29350D03*
X54859Y29350D03*
X54848Y29361D03*
D92*
X53274Y29594D03*
X53020Y29503D03*
X53009Y29493D03*
X52989Y29482D03*
X52969Y29472D03*
X55702Y27654D03*
X53274Y25723D03*
X53030Y25815D03*
X53009Y25825D03*
X52989Y25835D03*
X37721Y05777D03*
X37467Y05685D03*
X37457Y05675D03*
X37437Y05665D03*
X37416Y05655D03*
X40149Y03836D03*
X37721Y01906D03*
X37477Y01997D03*
X37457Y02007D03*
X37437Y02017D03*
D93*
X37396Y03841D03*
X39326Y02155D03*
X40139Y02683D03*
X39580Y05416D03*
X54879Y25972D03*
X55692Y26500D03*
X55133Y29234D03*
X52948Y27659D03*
D94*
X53050Y25799D03*
X55692Y27659D03*
X40139Y03841D03*
X37498Y01982D03*
D95*
X39276Y02129D03*
X39580Y02272D03*
X40139Y05005D03*
X54828Y25947D03*
X55133Y26089D03*
X55692Y28822D03*
D96*
X55682Y28837D03*
X55153Y29234D03*
X54798Y29386D03*
X54086Y28543D03*
X54097Y26775D03*
X54798Y25932D03*
X54808Y25932D03*
X54818Y25942D03*
X55143Y26084D03*
X55682Y26480D03*
X39601Y05416D03*
X39245Y05568D03*
X40129Y05020D03*
X38534Y04725D03*
X38544Y02957D03*
X39245Y02114D03*
X39255Y02114D03*
X39265Y02124D03*
X39591Y02266D03*
X40129Y02663D03*
D97*
X40129Y03836D03*
X38422Y01784D03*
X37711Y01906D03*
X37569Y01946D03*
X37538Y01967D03*
X37528Y01967D03*
X37315Y03846D03*
X37508Y05706D03*
X37528Y05716D03*
X37538Y05726D03*
X37559Y05736D03*
X37569Y05736D03*
X38422Y05899D03*
X53081Y25784D03*
X53091Y25784D03*
X53121Y25764D03*
X53263Y25723D03*
X53975Y25601D03*
X52867Y27664D03*
X53060Y29523D03*
X53081Y29533D03*
X53091Y29543D03*
X53111Y29554D03*
X53121Y29554D03*
X53975Y29716D03*
X55682Y27654D03*
D98*
X55671Y26460D03*
X55671Y28858D03*
X52938Y27659D03*
X40119Y05040D03*
X40119Y02642D03*
X37386Y03841D03*
D99*
X37630Y05767D03*
X37640Y05767D03*
X37660Y05777D03*
X37670Y05787D03*
X37680Y05787D03*
X37691Y05787D03*
X40119Y03836D03*
X37670Y01906D03*
X37660Y01906D03*
X37640Y01916D03*
X37620Y01926D03*
X53172Y25744D03*
X53192Y25733D03*
X53213Y25723D03*
X53223Y25723D03*
X55671Y27654D03*
X53243Y29604D03*
X53233Y29604D03*
X53223Y29604D03*
X53213Y29594D03*
X53192Y29584D03*
X53182Y29584D03*
D100*
X53528Y29503D03*
X53650Y28273D03*
X53650Y27044D03*
X54086Y26790D03*
X55174Y26089D03*
X55661Y26445D03*
X55661Y28873D03*
X40109Y05055D03*
X38097Y04456D03*
X38097Y03227D03*
X38534Y02973D03*
X39621Y02272D03*
X40109Y02627D03*
X37975Y05685D03*
D101*
X38432Y05914D03*
X40109Y03841D03*
X38432Y01769D03*
X53985Y25586D03*
X55661Y27659D03*
X53985Y29731D03*
D102*
X53589Y29518D03*
X53548Y29508D03*
X53538Y29508D03*
X55194Y29223D03*
X55204Y29223D03*
X55651Y26429D03*
X39652Y05406D03*
X39641Y05406D03*
X38036Y05700D03*
X37995Y05690D03*
X37985Y05690D03*
X40099Y02612D03*
D103*
X39215Y01896D03*
X39194Y01885D03*
X40099Y03836D03*
X39204Y05797D03*
X54747Y25703D03*
X54767Y25713D03*
X55651Y27654D03*
X54757Y29615D03*
D104*
X53650Y29533D03*
X53619Y29523D03*
X53599Y29523D03*
X53578Y29513D03*
X53568Y29513D03*
X53517Y29503D03*
X55651Y28893D03*
X55204Y26089D03*
X55194Y26089D03*
X53568Y25805D03*
X53548Y25805D03*
X53538Y25815D03*
X53528Y25815D03*
X40099Y05076D03*
X38097Y05716D03*
X38067Y05706D03*
X38046Y05706D03*
X38026Y05695D03*
X38016Y05695D03*
X37965Y05685D03*
X37975Y01997D03*
X37985Y01997D03*
X37995Y01987D03*
X38016Y01987D03*
X39641Y02272D03*
X39652Y02272D03*
D105*
X40088Y02592D03*
X38056Y01972D03*
X37955Y05690D03*
X38107Y05721D03*
X53609Y25789D03*
X55641Y26409D03*
X53660Y29538D03*
X53507Y29508D03*
D106*
X54574Y29675D03*
X54625Y29665D03*
X54676Y29645D03*
X55641Y27654D03*
X54625Y25662D03*
X54574Y25642D03*
X39123Y05827D03*
X39072Y05848D03*
X39022Y05858D03*
X40088Y03836D03*
X39072Y01845D03*
X39022Y01824D03*
D107*
X38107Y03211D03*
X40088Y05091D03*
X53660Y27029D03*
X55641Y28908D03*
D108*
X55621Y28939D03*
X55245Y29223D03*
X53832Y29559D03*
X53822Y29559D03*
X53487Y29518D03*
X53670Y28309D03*
X53497Y25799D03*
X53721Y25769D03*
X53731Y25769D03*
X53741Y25769D03*
X53751Y25769D03*
X53771Y25759D03*
X53782Y25759D03*
X53792Y25759D03*
X53802Y25759D03*
X53822Y25759D03*
X55224Y26094D03*
X55631Y26399D03*
X39692Y05406D03*
X40068Y05121D03*
X38280Y05741D03*
X38270Y05741D03*
X37934Y05700D03*
X38117Y04491D03*
X37945Y01982D03*
X38168Y01951D03*
X38178Y01951D03*
X38188Y01951D03*
X38199Y01951D03*
X38219Y01941D03*
X38229Y01941D03*
X38239Y01941D03*
X38249Y01941D03*
X38270Y01941D03*
X39672Y02277D03*
X40078Y02581D03*
D109*
X39001Y01819D03*
X38991Y01819D03*
X38961Y01809D03*
X38950Y01809D03*
X38757Y01769D03*
X38676Y01758D03*
X37305Y03841D03*
X37071Y04603D03*
X38707Y05924D03*
X38930Y05883D03*
X38940Y05883D03*
X38961Y05873D03*
X38981Y05873D03*
X40078Y03841D03*
X54229Y25576D03*
X54310Y25586D03*
X54503Y25627D03*
X54513Y25627D03*
X54544Y25637D03*
X54554Y25637D03*
X55631Y27659D03*
X54533Y29691D03*
X54513Y29691D03*
X54493Y29701D03*
X54483Y29701D03*
X54259Y29742D03*
X52623Y28421D03*
X52857Y27659D03*
D110*
X52928Y27664D03*
X53497Y29513D03*
X53700Y29543D03*
X53721Y29543D03*
X53751Y29554D03*
X53771Y29554D03*
X53782Y29554D03*
X53792Y29554D03*
X53802Y29554D03*
X53843Y29564D03*
X53853Y29564D03*
X55631Y28924D03*
X53700Y25774D03*
X53690Y25774D03*
X53680Y25774D03*
X53670Y25784D03*
X53650Y25784D03*
X53639Y25784D03*
X40078Y05106D03*
X38300Y05746D03*
X38290Y05746D03*
X38249Y05736D03*
X38239Y05736D03*
X38229Y05736D03*
X38219Y05736D03*
X38199Y05736D03*
X38168Y05726D03*
X38148Y05726D03*
X37945Y05695D03*
X37376Y03846D03*
X38087Y01967D03*
X38097Y01967D03*
X38117Y01967D03*
X38128Y01957D03*
X38138Y01957D03*
X38148Y01957D03*
D111*
X38117Y03196D03*
X39692Y02282D03*
X40068Y02566D03*
X55245Y26099D03*
X55621Y26384D03*
X53670Y27014D03*
D112*
X52634Y26902D03*
X52634Y28416D03*
X54005Y29757D03*
X54025Y29757D03*
X54036Y29757D03*
X54046Y29757D03*
X54056Y29757D03*
X54076Y29757D03*
X54086Y29757D03*
X54097Y29757D03*
X54107Y29757D03*
X54127Y29757D03*
X54137Y29757D03*
X54147Y29757D03*
X54178Y29747D03*
X54188Y29747D03*
X54198Y29747D03*
X54208Y29747D03*
X54229Y29747D03*
X54239Y29747D03*
X54249Y29747D03*
X54279Y29736D03*
X54290Y29736D03*
X54300Y29736D03*
X54310Y29736D03*
X54351Y29726D03*
X54361Y29726D03*
X54412Y29716D03*
X54462Y29706D03*
X55621Y27654D03*
X54401Y25601D03*
X54391Y25601D03*
X54351Y25591D03*
X54340Y25591D03*
X54330Y25591D03*
X54300Y25581D03*
X54290Y25581D03*
X54279Y25581D03*
X54259Y25581D03*
X54249Y25581D03*
X54239Y25581D03*
X54208Y25571D03*
X54198Y25571D03*
X54188Y25571D03*
X54178Y25571D03*
X54158Y25571D03*
X54147Y25571D03*
X54137Y25571D03*
X54127Y25571D03*
X54107Y25571D03*
X54076Y25561D03*
X54056Y25561D03*
X54046Y25561D03*
X54036Y25561D03*
X54025Y25561D03*
X54005Y25561D03*
X38910Y05888D03*
X38859Y05899D03*
X38808Y05909D03*
X38798Y05909D03*
X38757Y05919D03*
X38747Y05919D03*
X38737Y05919D03*
X38727Y05919D03*
X38696Y05929D03*
X38686Y05929D03*
X38676Y05929D03*
X38656Y05929D03*
X38646Y05929D03*
X38636Y05929D03*
X38625Y05929D03*
X38595Y05939D03*
X38585Y05939D03*
X38575Y05939D03*
X38554Y05939D03*
X38544Y05939D03*
X38534Y05939D03*
X38524Y05939D03*
X38503Y05939D03*
X38493Y05939D03*
X38483Y05939D03*
X38473Y05939D03*
X38453Y05939D03*
X37081Y04598D03*
X37081Y03084D03*
X38839Y01784D03*
X38849Y01784D03*
X38798Y01774D03*
X38788Y01774D03*
X38778Y01774D03*
X38747Y01763D03*
X38737Y01763D03*
X38727Y01763D03*
X38707Y01763D03*
X38696Y01763D03*
X38686Y01763D03*
X38656Y01753D03*
X38646Y01753D03*
X38636Y01753D03*
X38625Y01753D03*
X38605Y01753D03*
X38595Y01753D03*
X38585Y01753D03*
X38575Y01753D03*
X38554Y01753D03*
X38524Y01743D03*
X38503Y01743D03*
X38493Y01743D03*
X38483Y01743D03*
X38473Y01743D03*
X38453Y01743D03*
X40068Y03836D03*
D113*
X40048Y05152D03*
X39712Y05396D03*
X38503Y04685D03*
X38128Y04502D03*
X37924Y05700D03*
X37934Y01982D03*
X38321Y01931D03*
X39702Y02277D03*
X40058Y02551D03*
X53487Y25799D03*
X53873Y25749D03*
X55255Y26094D03*
X55610Y26368D03*
X55600Y28969D03*
X55265Y29213D03*
X54056Y28502D03*
X53680Y28319D03*
X53477Y29518D03*
D114*
X55610Y27654D03*
X40058Y03836D03*
D115*
X40058Y05137D03*
X39702Y05401D03*
X38321Y05756D03*
X38300Y01936D03*
X38290Y01936D03*
X38280Y01936D03*
X53832Y25754D03*
X53843Y25754D03*
X53853Y25754D03*
X55610Y28954D03*
X55255Y29218D03*
X53873Y29574D03*
D116*
X53883Y29584D03*
X53467Y29523D03*
X55275Y29218D03*
X53690Y26993D03*
X53477Y25794D03*
X55265Y26099D03*
X55600Y26353D03*
X39723Y05401D03*
X38331Y05767D03*
X37914Y05706D03*
X38138Y03176D03*
X37924Y01977D03*
X39712Y02282D03*
X40048Y02536D03*
D117*
X40048Y03841D03*
X55600Y27659D03*
D118*
X55590Y28980D03*
X55285Y29213D03*
X53456Y29528D03*
X55590Y26338D03*
X39733Y05396D03*
X40038Y05162D03*
X37904Y05711D03*
X40038Y02520D03*
D119*
X40038Y03836D03*
X55590Y27654D03*
D120*
X55580Y26323D03*
X55570Y26313D03*
X53883Y25733D03*
X53700Y26983D03*
X53700Y28334D03*
X53446Y29533D03*
X55295Y29208D03*
X55580Y28995D03*
X39743Y05391D03*
X40027Y05177D03*
X38148Y04517D03*
X37894Y05716D03*
X38148Y03166D03*
X38331Y01916D03*
X40017Y02495D03*
X40027Y02505D03*
D121*
X39692Y03272D03*
X39672Y03282D03*
X39652Y03293D03*
X40027Y03841D03*
X39662Y04400D03*
X39672Y04410D03*
X37508Y04888D03*
X37112Y04573D03*
X37518Y02795D03*
X53070Y26612D03*
X52664Y28390D03*
X53060Y28705D03*
X55214Y28218D03*
X55224Y28228D03*
X55580Y27659D03*
X55245Y27090D03*
X55224Y27100D03*
X55204Y27110D03*
D122*
X55255Y27085D03*
X55275Y27075D03*
X55570Y27654D03*
X55265Y28243D03*
X55255Y28243D03*
X55245Y28233D03*
X52664Y26922D03*
X39712Y04425D03*
X39702Y04425D03*
X39692Y04415D03*
X40017Y03836D03*
X39723Y03257D03*
X39702Y03267D03*
X37112Y03105D03*
D123*
X39743Y02287D03*
X40017Y05193D03*
X39753Y05396D03*
X55295Y26104D03*
X55570Y29010D03*
X55306Y29213D03*
D124*
X53893Y29599D03*
X53436Y29538D03*
X55560Y26297D03*
X38341Y05782D03*
X37884Y05721D03*
X40007Y02480D03*
D125*
X39773Y03237D03*
X39763Y03237D03*
X40007Y03836D03*
X39753Y04446D03*
X39773Y04456D03*
X37284Y03836D03*
X37274Y03836D03*
X37264Y03836D03*
X37254Y03836D03*
X37233Y03836D03*
X37223Y03836D03*
X37132Y04558D03*
X37508Y02790D03*
X53060Y26607D03*
X52837Y27654D03*
X52827Y27654D03*
X52816Y27654D03*
X52806Y27654D03*
X52786Y27654D03*
X52776Y27654D03*
X52684Y28375D03*
X55306Y28263D03*
X55326Y28273D03*
X55560Y27654D03*
X55326Y27054D03*
X55316Y27054D03*
D126*
X55549Y26282D03*
X55306Y26109D03*
X54046Y26841D03*
X53721Y26963D03*
X52908Y27664D03*
X53721Y28355D03*
X55316Y29208D03*
X55549Y29035D03*
X55560Y29025D03*
X53446Y25784D03*
X39763Y05391D03*
X39997Y05218D03*
X40007Y05208D03*
X38168Y04537D03*
X37355Y03846D03*
X38168Y03145D03*
X38493Y03023D03*
X37894Y01967D03*
X39753Y02292D03*
X39997Y02465D03*
D127*
X39997Y03841D03*
X39794Y04461D03*
X55549Y27659D03*
X55346Y28278D03*
D128*
X55336Y29208D03*
X55539Y26272D03*
X39784Y05391D03*
X39987Y02454D03*
D129*
X39987Y03836D03*
X37193Y03836D03*
X37142Y03836D03*
X52694Y27654D03*
X52745Y27654D03*
X55539Y27654D03*
D130*
X55539Y29051D03*
X51628Y27659D03*
X39987Y05233D03*
X36075Y03841D03*
D131*
X38188Y03135D03*
X37874Y01957D03*
X39773Y02292D03*
X39977Y02444D03*
X38188Y04547D03*
X38199Y04558D03*
X37863Y05726D03*
X38351Y05797D03*
X39977Y05248D03*
X53426Y25774D03*
X53741Y26953D03*
X53741Y28365D03*
X53751Y28375D03*
X53416Y29543D03*
X53904Y29615D03*
X55529Y29066D03*
X55529Y26262D03*
X55326Y26109D03*
D132*
X55529Y27176D03*
X55428Y27481D03*
X52816Y26902D03*
X39875Y03663D03*
X39977Y03359D03*
X37264Y03084D03*
D133*
X37487Y02779D03*
X37122Y03836D03*
X37112Y03836D03*
X37101Y03836D03*
X37081Y03836D03*
X37071Y03836D03*
X37061Y03836D03*
X37477Y04903D03*
X39804Y04456D03*
X39977Y03836D03*
X53040Y26597D03*
X52674Y27654D03*
X52664Y27654D03*
X52654Y27654D03*
X52634Y27654D03*
X52623Y27654D03*
X52613Y27654D03*
X53030Y28720D03*
X55356Y28273D03*
X55529Y27654D03*
D134*
X55428Y27831D03*
X55529Y28146D03*
X54594Y29152D03*
X54605Y26175D03*
X39042Y05335D03*
X39977Y04329D03*
X39875Y04014D03*
X39052Y02358D03*
D135*
X39966Y03348D03*
X37254Y03084D03*
X37305Y04964D03*
X52806Y26902D03*
X52857Y28781D03*
X55519Y27166D03*
D136*
X55519Y28157D03*
X52806Y28411D03*
X39966Y04339D03*
X37254Y04593D03*
D137*
X37315Y04959D03*
X37325Y02713D03*
X39956Y03333D03*
X52877Y26531D03*
X52867Y28776D03*
X55509Y27151D03*
D138*
X55367Y27054D03*
X55509Y27654D03*
X55367Y28273D03*
X52583Y27654D03*
X52573Y27654D03*
X52562Y27654D03*
X52552Y27654D03*
X52532Y27654D03*
X52522Y27654D03*
X39814Y04456D03*
X39956Y03836D03*
X39814Y03237D03*
X37030Y03836D03*
X37020Y03836D03*
X37010Y03836D03*
X37000Y03836D03*
X36979Y03836D03*
X36969Y03836D03*
D139*
X39956Y04354D03*
X55509Y28172D03*
D140*
X55509Y29086D03*
X55499Y29096D03*
X55356Y29198D03*
X53771Y28385D03*
X53396Y29554D03*
X39804Y05380D03*
X39946Y05279D03*
X39956Y05269D03*
X38219Y04568D03*
X37843Y05736D03*
D141*
X38239Y04578D03*
X38473Y04639D03*
X38229Y03115D03*
X38219Y03115D03*
X38351Y01885D03*
X39794Y02292D03*
X39946Y02404D03*
X53904Y25703D03*
X53782Y26932D03*
X53771Y26932D03*
X53792Y28395D03*
X54025Y28456D03*
X55499Y26221D03*
X55346Y26109D03*
D142*
X55499Y27146D03*
X55499Y28182D03*
X52786Y26902D03*
X39946Y04364D03*
X39946Y03328D03*
X37233Y03084D03*
D143*
X36929Y03836D03*
X36918Y03836D03*
X36908Y03836D03*
X36898Y03836D03*
X39824Y04446D03*
X39946Y03836D03*
X52451Y27654D03*
X52461Y27654D03*
X52471Y27654D03*
X52481Y27654D03*
X55377Y28263D03*
X55499Y27654D03*
D144*
X55488Y29112D03*
X53914Y29630D03*
X52898Y27659D03*
X53406Y25769D03*
X53914Y25688D03*
X55488Y26216D03*
X39936Y05294D03*
X38361Y05812D03*
X37345Y03841D03*
X37853Y01951D03*
X38361Y01870D03*
X39936Y02399D03*
D145*
X39936Y03318D03*
X55488Y27135D03*
D146*
X55488Y27659D03*
X55184Y27659D03*
X39936Y03841D03*
X39631Y03841D03*
D147*
X39936Y04370D03*
X55488Y28187D03*
D148*
X55377Y29198D03*
X53822Y28405D03*
X53385Y29554D03*
X52634Y29218D03*
X52623Y29208D03*
X53802Y26922D03*
X53822Y26912D03*
X53832Y26912D03*
X54025Y26871D03*
X53396Y25764D03*
X55367Y26119D03*
X55478Y26201D03*
X39824Y05380D03*
X38270Y04588D03*
X37833Y05736D03*
X37081Y05401D03*
X37071Y05391D03*
X38249Y03105D03*
X38270Y03094D03*
X38280Y03094D03*
X38473Y03054D03*
X37843Y01946D03*
X39814Y02302D03*
X39926Y02383D03*
D149*
X39926Y03308D03*
X39926Y04385D03*
X37366Y02729D03*
X52918Y26546D03*
X55478Y27125D03*
X55478Y28202D03*
D150*
X55478Y27654D03*
X52705Y28385D03*
X52400Y27654D03*
X52705Y26922D03*
X39926Y03836D03*
X37152Y03105D03*
X36847Y03836D03*
X37152Y04568D03*
D151*
X38229Y04573D03*
X38249Y04583D03*
X38239Y03110D03*
X39804Y02297D03*
X39926Y05304D03*
X39814Y05386D03*
X55356Y26114D03*
X53792Y26927D03*
X53782Y28390D03*
X53802Y28400D03*
X55367Y29203D03*
X55478Y29122D03*
D152*
X55468Y26191D03*
X39916Y02373D03*
D153*
X39916Y03303D03*
X39916Y04390D03*
X37366Y04949D03*
X55468Y27120D03*
X55468Y28207D03*
X52918Y28766D03*
D154*
X55468Y27659D03*
X39916Y03841D03*
D155*
X39916Y05314D03*
X39906Y05325D03*
X39895Y05335D03*
X38290Y04593D03*
X38280Y04593D03*
X37823Y05741D03*
X38290Y03089D03*
X38300Y03089D03*
X37833Y01941D03*
X37101Y02266D03*
X37081Y02287D03*
X37071Y02297D03*
X39824Y02297D03*
X39895Y02348D03*
X39906Y02358D03*
X52654Y26084D03*
X52634Y26104D03*
X52623Y26114D03*
X53385Y25759D03*
X53843Y26907D03*
X53853Y26907D03*
X53843Y28411D03*
X53832Y28411D03*
X53375Y29559D03*
X55448Y29152D03*
X55458Y29142D03*
X55468Y29132D03*
X55458Y26175D03*
X55448Y26165D03*
X55377Y26114D03*
D156*
X55458Y27110D03*
X39906Y03293D03*
D157*
X39906Y03836D03*
X36827Y03846D03*
X52380Y27664D03*
X55458Y27654D03*
D158*
X55458Y28212D03*
X54767Y26323D03*
X52938Y26556D03*
X52928Y28761D03*
X37376Y04944D03*
X39906Y04395D03*
X39215Y02505D03*
X37386Y02739D03*
D159*
X39895Y03282D03*
X55448Y27100D03*
D160*
X55448Y27654D03*
X54564Y26353D03*
X52715Y26922D03*
X52715Y28395D03*
X52989Y28731D03*
X37437Y04913D03*
X37162Y04578D03*
X37162Y03105D03*
X39011Y02536D03*
X39895Y03836D03*
D161*
X39895Y04405D03*
X55448Y28223D03*
D162*
X55438Y29167D03*
X54015Y26881D03*
X53914Y26892D03*
X53863Y26902D03*
X55387Y26119D03*
X55438Y26160D03*
X52644Y29228D03*
X39885Y05350D03*
X38463Y03064D03*
X38361Y03074D03*
X38310Y03084D03*
X39834Y02302D03*
X39885Y02343D03*
X37091Y05411D03*
D163*
X39885Y03277D03*
X55438Y27095D03*
D164*
X55438Y27659D03*
X39885Y03841D03*
D165*
X39885Y04410D03*
X39022Y02490D03*
X54574Y26307D03*
X55438Y28228D03*
D166*
X55417Y29183D03*
X55407Y29193D03*
X53944Y28431D03*
X53934Y28431D03*
X53924Y28431D03*
X53893Y26897D03*
X53883Y26897D03*
X55417Y26135D03*
X55428Y26145D03*
X39855Y05375D03*
X39865Y05365D03*
X38392Y04613D03*
X38382Y04613D03*
X38371Y04613D03*
X38341Y03079D03*
X38331Y03079D03*
X39865Y02317D03*
X39875Y02327D03*
D167*
X39875Y03267D03*
X39641Y03846D03*
X39875Y04415D03*
X55428Y27085D03*
X55194Y27664D03*
X55428Y28233D03*
D168*
X55428Y29173D03*
X54005Y28441D03*
X53995Y28441D03*
X52684Y29264D03*
X52674Y29254D03*
X53924Y26887D03*
X53934Y26887D03*
X53944Y26887D03*
X53954Y26887D03*
X53975Y26887D03*
X53985Y26887D03*
X53995Y26887D03*
X54005Y26887D03*
X53365Y25759D03*
X52674Y26064D03*
X52664Y26074D03*
X55397Y26125D03*
X55407Y26125D03*
X39875Y05355D03*
X38453Y04624D03*
X38442Y04624D03*
X37132Y05447D03*
X37122Y05436D03*
X38371Y03069D03*
X38382Y03069D03*
X38392Y03069D03*
X38402Y03069D03*
X38422Y03069D03*
X38432Y03069D03*
X38442Y03069D03*
X38453Y03069D03*
X37813Y01941D03*
X37122Y02246D03*
X37112Y02256D03*
X39845Y02307D03*
X39855Y02307D03*
D169*
X39865Y03262D03*
X55417Y27080D03*
D170*
X55417Y28243D03*
X52725Y28395D03*
X52725Y26912D03*
X39865Y04425D03*
X37172Y04578D03*
X37172Y03094D03*
D171*
X39855Y03262D03*
X39855Y04431D03*
X55407Y27080D03*
X55407Y28248D03*
D172*
X55397Y28258D03*
X55397Y27069D03*
X39845Y04441D03*
X39845Y03252D03*
D173*
X38351Y03074D03*
X38321Y03084D03*
X38371Y01855D03*
X37823Y01936D03*
X38300Y04598D03*
X38321Y04608D03*
X38331Y04608D03*
X38341Y04608D03*
X38351Y04608D03*
X38371Y05827D03*
X37813Y05746D03*
X37112Y05431D03*
X37101Y05421D03*
X39845Y05380D03*
X53375Y25754D03*
X53924Y25672D03*
X53904Y26892D03*
X53873Y26902D03*
X53853Y28416D03*
X53873Y28426D03*
X53883Y28426D03*
X53893Y28426D03*
X53904Y28426D03*
X53924Y29645D03*
X53365Y29564D03*
X52664Y29249D03*
X52654Y29239D03*
X55397Y29198D03*
D174*
X55387Y27064D03*
X52390Y27654D03*
X36837Y03836D03*
X39834Y03247D03*
D175*
X39834Y04441D03*
X55387Y28258D03*
D176*
X55387Y29193D03*
X54015Y28451D03*
X53863Y28421D03*
X52644Y26094D03*
X39834Y05375D03*
X38463Y04634D03*
X38310Y04603D03*
X37091Y02277D03*
D177*
X37477Y02774D03*
X36959Y03831D03*
X36949Y03831D03*
X37467Y04908D03*
X39824Y03242D03*
X53030Y26592D03*
X52512Y27649D03*
X52501Y27649D03*
X53020Y28726D03*
X55377Y27059D03*
D178*
X55356Y27049D03*
X52684Y27649D03*
X37132Y03831D03*
X39804Y03232D03*
D179*
X39794Y03227D03*
X37203Y03836D03*
X37183Y03836D03*
X37172Y03836D03*
X37162Y03836D03*
X37152Y03836D03*
X37487Y04893D03*
X55346Y27044D03*
X53040Y28710D03*
X52755Y27654D03*
X52735Y27654D03*
X52725Y27654D03*
X52715Y27654D03*
X52705Y27654D03*
D180*
X53761Y28380D03*
X53406Y29548D03*
X55336Y26114D03*
X37853Y05731D03*
X38209Y04563D03*
X39784Y02297D03*
D181*
X39784Y03227D03*
X37244Y03836D03*
X37498Y04893D03*
X55336Y27044D03*
X53050Y28710D03*
X52796Y27654D03*
D182*
X55336Y28278D03*
X39784Y04461D03*
D183*
X39773Y05386D03*
X38483Y04654D03*
X38178Y04542D03*
X37874Y05721D03*
X38178Y03140D03*
X37884Y01962D03*
X38341Y01901D03*
X39763Y02287D03*
X53436Y25779D03*
X53893Y25718D03*
X53731Y26958D03*
X53731Y28360D03*
X54036Y28472D03*
X53426Y29538D03*
X55326Y29203D03*
X55316Y26104D03*
D184*
X55306Y27059D03*
X55295Y27069D03*
X55265Y27080D03*
X55275Y28248D03*
X55295Y28258D03*
X55316Y28268D03*
X52674Y28380D03*
X52674Y26927D03*
X39763Y04451D03*
X39743Y04441D03*
X39723Y04431D03*
X39712Y03262D03*
X39743Y03252D03*
X39753Y03242D03*
X37122Y03110D03*
X37122Y04563D03*
D185*
X37904Y01967D03*
X39733Y02282D03*
X53456Y25784D03*
X55285Y26099D03*
D186*
X55285Y27069D03*
X55285Y28258D03*
X52847Y27659D03*
X39733Y04441D03*
X39733Y03252D03*
X37294Y03841D03*
D187*
X38138Y04512D03*
X38503Y03008D03*
X37914Y01972D03*
X39723Y02287D03*
X53467Y25789D03*
X54056Y26826D03*
X55275Y26104D03*
X53690Y28329D03*
D188*
X55234Y27095D03*
X39682Y03277D03*
D189*
X39682Y04410D03*
X55234Y28228D03*
D190*
X55234Y29218D03*
X54066Y28517D03*
X53660Y28294D03*
X53710Y29543D03*
X53761Y29554D03*
X53863Y29564D03*
X53507Y25805D03*
X53660Y25784D03*
X53710Y25774D03*
X53761Y25764D03*
X39682Y05401D03*
X38514Y04700D03*
X38107Y04476D03*
X38158Y05726D03*
X38209Y05736D03*
X38310Y05746D03*
X37955Y01987D03*
X38107Y01967D03*
X38158Y01957D03*
X38209Y01946D03*
D191*
X38077Y01972D03*
X38067Y01972D03*
X38046Y01982D03*
X38036Y01982D03*
X38026Y01982D03*
X38524Y02988D03*
X39662Y02277D03*
X39662Y05406D03*
X39672Y05406D03*
X38188Y05731D03*
X38178Y05731D03*
X38138Y05721D03*
X38128Y05721D03*
X38117Y05721D03*
X38087Y05711D03*
X38077Y05711D03*
X36085Y03841D03*
X53578Y25799D03*
X53589Y25799D03*
X53599Y25799D03*
X53619Y25789D03*
X53629Y25789D03*
X54076Y26805D03*
X55214Y26094D03*
X55214Y29223D03*
X55224Y29223D03*
X53741Y29548D03*
X53731Y29548D03*
X53690Y29538D03*
X53680Y29538D03*
X53670Y29538D03*
X53639Y29528D03*
X53629Y29528D03*
X51638Y27659D03*
D192*
X52654Y26912D03*
X55194Y27115D03*
X55214Y27105D03*
X55204Y28212D03*
X55194Y28212D03*
X39652Y04395D03*
X39641Y04395D03*
X39641Y03298D03*
X39662Y03287D03*
X37101Y03094D03*
D193*
X37233Y04593D03*
X39652Y03841D03*
X55204Y27659D03*
X52786Y28411D03*
D194*
X55184Y29228D03*
X55184Y26089D03*
X39631Y05411D03*
X39631Y02272D03*
D195*
X39631Y03303D03*
X55184Y27120D03*
D196*
X55184Y28202D03*
X39631Y04385D03*
D197*
X39621Y03846D03*
X39611Y03846D03*
X39316Y03846D03*
X54869Y27664D03*
X55163Y27664D03*
X55174Y27664D03*
D198*
X55174Y29228D03*
X55163Y29228D03*
X54787Y25926D03*
X39621Y05411D03*
X39611Y05411D03*
X39235Y02109D03*
D199*
X39601Y02272D03*
X39611Y02272D03*
X55153Y26089D03*
X55163Y26089D03*
D200*
X55133Y27664D03*
X54879Y27664D03*
X39580Y03846D03*
X39326Y03846D03*
D201*
X38544Y04735D03*
X39265Y05558D03*
X39286Y05548D03*
X39570Y02266D03*
X39316Y02155D03*
X39306Y02145D03*
X39286Y02134D03*
X36096Y03841D03*
X54838Y25952D03*
X54859Y25962D03*
X54869Y25972D03*
X55123Y26084D03*
X54097Y28553D03*
X54818Y29376D03*
X54838Y29366D03*
X51648Y27659D03*
D202*
X55113Y27664D03*
X55123Y27664D03*
X39570Y03846D03*
X39560Y03846D03*
D203*
X38554Y02947D03*
X39357Y02175D03*
X39367Y02185D03*
X39550Y02266D03*
X39550Y05416D03*
X39560Y05416D03*
X39357Y05507D03*
X39337Y05518D03*
X54909Y25992D03*
X54920Y26003D03*
X55102Y26084D03*
X54107Y26765D03*
X55102Y29234D03*
X55113Y29234D03*
X54909Y29325D03*
X54889Y29335D03*
D204*
X54889Y27659D03*
X55102Y27659D03*
X39550Y03841D03*
X39337Y03841D03*
D205*
X39540Y03846D03*
X55092Y27664D03*
D206*
X55092Y29234D03*
X54970Y26033D03*
X39540Y05416D03*
X39418Y02216D03*
D207*
X39530Y02261D03*
X39377Y05492D03*
X55082Y26079D03*
X54930Y29310D03*
D208*
X55082Y27664D03*
X39530Y03846D03*
D209*
X38564Y02937D03*
X39530Y05416D03*
X54117Y26754D03*
X55082Y29234D03*
D210*
X55072Y27659D03*
X54899Y27659D03*
X51719Y27659D03*
X39519Y03841D03*
X39347Y03841D03*
X36167Y03841D03*
D211*
X37416Y03846D03*
X39489Y05421D03*
X39499Y05421D03*
X52969Y27664D03*
X55041Y29239D03*
X55052Y29239D03*
D212*
X55021Y29249D03*
X55011Y29259D03*
X54127Y26739D03*
X55021Y26069D03*
X55041Y26079D03*
X39458Y05441D03*
X39469Y05431D03*
X38575Y02922D03*
X39469Y02251D03*
X39489Y02261D03*
D213*
X39489Y03841D03*
X39357Y03841D03*
X54909Y27659D03*
X55041Y27659D03*
D214*
X55031Y29244D03*
X55031Y26074D03*
X39479Y05426D03*
X39479Y02256D03*
D215*
X39479Y03846D03*
X55031Y27664D03*
D216*
X55021Y27664D03*
X39469Y03846D03*
D217*
X39458Y03841D03*
X39367Y03841D03*
X54920Y27659D03*
X55011Y27659D03*
D218*
X55001Y27664D03*
X54991Y27664D03*
X52613Y28863D03*
X37061Y05045D03*
X39438Y03846D03*
X39448Y03846D03*
D219*
X39428Y05462D03*
X39428Y02221D03*
X54980Y26038D03*
X54980Y29279D03*
D220*
X54980Y27659D03*
X39428Y03841D03*
D221*
X39418Y03846D03*
X39408Y03846D03*
X37051Y02637D03*
X37030Y05035D03*
X52603Y26455D03*
X52583Y28853D03*
X54960Y27664D03*
X54970Y27664D03*
D222*
X54940Y29305D03*
X54960Y26023D03*
X39387Y05487D03*
X39408Y02205D03*
D223*
X39398Y03841D03*
X39387Y03841D03*
X38788Y04674D03*
X37020Y05030D03*
X37010Y05030D03*
X37030Y02642D03*
X52583Y26460D03*
X52573Y28847D03*
X52562Y28847D03*
X54340Y28492D03*
X54940Y27659D03*
X54950Y27659D03*
D224*
X54930Y26003D03*
X39377Y02185D03*
D225*
X39377Y03846D03*
X54930Y27664D03*
D226*
X54879Y29340D03*
X39326Y05523D03*
D227*
X39306Y03846D03*
X54859Y27664D03*
D228*
X54848Y25957D03*
X39296Y02139D03*
D229*
X39296Y03846D03*
X36187Y03846D03*
X51739Y27664D03*
X54848Y27664D03*
D230*
X54838Y27664D03*
X39286Y03846D03*
D231*
X39276Y03846D03*
X54828Y27664D03*
D232*
X54828Y29371D03*
X39276Y05553D03*
D233*
X39255Y03841D03*
X54808Y27659D03*
D234*
X54787Y27659D03*
X51760Y27659D03*
X39235Y03841D03*
X36207Y03841D03*
D235*
X39225Y01896D03*
X39225Y05787D03*
X54777Y25713D03*
X54777Y29604D03*
D236*
X54777Y26282D03*
X39225Y02465D03*
D237*
X39225Y03846D03*
X54777Y27664D03*
D238*
X54777Y29035D03*
X39225Y05218D03*
D239*
X39215Y03846D03*
X54767Y27664D03*
D240*
X54767Y28985D03*
X39215Y05167D03*
D241*
X39204Y05126D03*
X37335Y04954D03*
X39204Y02546D03*
X54757Y26363D03*
X54757Y28944D03*
X52888Y28771D03*
D242*
X54757Y27664D03*
X39204Y03846D03*
D243*
X39194Y05086D03*
X39194Y02597D03*
X37305Y02708D03*
X52857Y26526D03*
X54747Y26414D03*
X54747Y28903D03*
D244*
X54747Y27659D03*
X39194Y03841D03*
D245*
X39174Y05812D03*
X39174Y01880D03*
X39123Y01860D03*
X54676Y25678D03*
X54726Y25698D03*
X54726Y29630D03*
D246*
X54726Y27664D03*
X51780Y27664D03*
X39174Y03846D03*
X36228Y03846D03*
D247*
X39164Y03846D03*
X54716Y27664D03*
D248*
X54706Y27659D03*
X39154Y03841D03*
D249*
X39154Y05817D03*
X39103Y05838D03*
X39093Y05838D03*
X39083Y05838D03*
X39062Y05848D03*
X39052Y05848D03*
X39042Y05858D03*
X39032Y05858D03*
X39001Y05868D03*
X38991Y05868D03*
X38950Y05878D03*
X37071Y03074D03*
X38442Y01753D03*
X38940Y01804D03*
X38981Y01814D03*
X39011Y01824D03*
X39042Y01835D03*
X39052Y01835D03*
X39062Y01835D03*
X39083Y01845D03*
X39093Y01845D03*
X39113Y01855D03*
X39144Y01865D03*
X53995Y25571D03*
X54493Y25622D03*
X54533Y25632D03*
X54564Y25642D03*
X54594Y25652D03*
X54605Y25652D03*
X54615Y25652D03*
X54635Y25662D03*
X54645Y25662D03*
X54666Y25672D03*
X54696Y25683D03*
X52623Y26892D03*
X54503Y29696D03*
X54544Y29686D03*
X54554Y29686D03*
X54584Y29675D03*
X54594Y29675D03*
X54605Y29665D03*
X54615Y29665D03*
X54635Y29655D03*
X54645Y29655D03*
X54655Y29655D03*
X54706Y29635D03*
D250*
X54696Y27659D03*
X51790Y27659D03*
X39144Y03841D03*
X36238Y03841D03*
D251*
X39133Y03846D03*
X54686Y27664D03*
D252*
X54676Y27664D03*
X39123Y03846D03*
D253*
X39113Y03841D03*
X36248Y03841D03*
X51800Y27659D03*
X54666Y27659D03*
D254*
X54655Y27664D03*
X39103Y03846D03*
D255*
X39093Y03841D03*
X54645Y27659D03*
D256*
X54625Y27664D03*
X39072Y03846D03*
D257*
X39062Y03841D03*
X54615Y27659D03*
D258*
X54605Y27664D03*
X53070Y27958D03*
X39052Y03846D03*
X37518Y04141D03*
D259*
X37335Y02719D03*
X39042Y02404D03*
X54594Y26221D03*
X52888Y26536D03*
D260*
X54361Y25596D03*
X54381Y25596D03*
X54412Y25606D03*
X54432Y25606D03*
X54442Y25606D03*
X54452Y25617D03*
X54462Y25617D03*
X54483Y25617D03*
X54584Y25647D03*
X54564Y29681D03*
X54452Y29711D03*
X54442Y29711D03*
X54432Y29711D03*
X54401Y29721D03*
X54391Y29721D03*
X54381Y29721D03*
X54340Y29731D03*
X54330Y29731D03*
X39011Y05863D03*
X38900Y05894D03*
X38890Y05894D03*
X38879Y05894D03*
X38849Y05904D03*
X38839Y05904D03*
X38829Y05904D03*
X38788Y05914D03*
X38778Y05914D03*
X39032Y01830D03*
X38930Y01799D03*
X38910Y01799D03*
X38900Y01799D03*
X38890Y01789D03*
X38879Y01789D03*
X38859Y01789D03*
X38829Y01779D03*
X38808Y01779D03*
D261*
X39032Y02444D03*
X37213Y04588D03*
X54584Y26262D03*
X52766Y28405D03*
D262*
X54584Y27664D03*
X39032Y03846D03*
D263*
X39032Y05284D03*
X54584Y29101D03*
D264*
X54574Y27664D03*
X39022Y03846D03*
D265*
X39022Y05238D03*
X54574Y29056D03*
D266*
X54564Y29010D03*
X52959Y28746D03*
X52735Y28400D03*
X39011Y05193D03*
X37406Y04928D03*
X37183Y04583D03*
D267*
X37457Y02764D03*
X39001Y05142D03*
X53009Y26582D03*
X54554Y28959D03*
D268*
X54544Y27664D03*
X52126Y27664D03*
X38991Y03846D03*
X36573Y03846D03*
D269*
X38981Y03841D03*
X54533Y27659D03*
D270*
X54523Y29691D03*
X54472Y29701D03*
X54523Y25627D03*
X38971Y05873D03*
X38920Y05883D03*
X38971Y01809D03*
D271*
X38971Y03841D03*
X54523Y27659D03*
D272*
X54503Y27659D03*
X54493Y27659D03*
X38950Y03841D03*
X38940Y03841D03*
D273*
X38930Y03846D03*
X54483Y27664D03*
D274*
X54472Y25617D03*
X54422Y25606D03*
X54371Y25596D03*
X38920Y01799D03*
X38869Y01789D03*
X38818Y01779D03*
D275*
X38920Y03841D03*
X54472Y27659D03*
D276*
X54462Y27659D03*
X52146Y27659D03*
X38910Y03841D03*
X36593Y03841D03*
D277*
X38900Y03846D03*
X54452Y27664D03*
D278*
X54422Y27664D03*
X38869Y03846D03*
D279*
X38869Y05899D03*
X38818Y05909D03*
X38768Y05919D03*
X38717Y05919D03*
X38666Y05929D03*
X38615Y05929D03*
X38564Y05939D03*
X38514Y05939D03*
X38463Y05939D03*
X38768Y01774D03*
X38717Y01763D03*
X38666Y01753D03*
X38615Y01753D03*
X38564Y01753D03*
X38514Y01743D03*
X38463Y01743D03*
X54015Y25561D03*
X54066Y25561D03*
X54117Y25571D03*
X54168Y25571D03*
X54218Y25571D03*
X54269Y25581D03*
X54320Y25591D03*
X54422Y29716D03*
X54371Y29726D03*
X54320Y29736D03*
X54269Y29736D03*
X54218Y29747D03*
X54168Y29747D03*
X54117Y29757D03*
X54066Y29757D03*
X54015Y29757D03*
D280*
X54412Y27664D03*
X38859Y03846D03*
D281*
X38829Y03846D03*
X54381Y27664D03*
D282*
X54371Y27664D03*
X38818Y03846D03*
D283*
X38788Y03013D03*
X37020Y02647D03*
X52573Y26465D03*
X54340Y26831D03*
D284*
X54330Y26810D03*
X52512Y26495D03*
X52501Y26495D03*
X38778Y02993D03*
X36959Y02678D03*
X36949Y02678D03*
D285*
X36939Y02683D03*
X38768Y02978D03*
X52491Y26500D03*
X54320Y26795D03*
D286*
X54320Y28527D03*
X38768Y04710D03*
D287*
X38757Y02967D03*
X36898Y04979D03*
X54310Y26785D03*
X52451Y28797D03*
D288*
X52430Y28781D03*
X54310Y28538D03*
X36878Y04964D03*
X38757Y04720D03*
D289*
X38747Y02957D03*
X36878Y02713D03*
X36136Y03841D03*
X36868Y04959D03*
X52430Y26531D03*
X51689Y27659D03*
X52420Y28776D03*
X54300Y26775D03*
D290*
X54300Y28548D03*
X54290Y28558D03*
X38737Y04740D03*
X38747Y04730D03*
D291*
X38737Y02947D03*
X36858Y02724D03*
X52410Y26541D03*
X54290Y26765D03*
D292*
X54279Y26760D03*
X54279Y28568D03*
X52380Y28761D03*
X52258Y28639D03*
X52258Y26678D03*
X36827Y04944D03*
X36705Y04822D03*
X36705Y02861D03*
X38727Y02942D03*
X38727Y04751D03*
D293*
X38717Y02932D03*
X54269Y26749D03*
D294*
X54269Y28573D03*
X52390Y26551D03*
X38717Y04756D03*
X36837Y02734D03*
D295*
X36807Y02749D03*
X38707Y02922D03*
X38707Y04761D03*
X36807Y04933D03*
X36797Y04923D03*
X52359Y26567D03*
X54259Y26739D03*
X54259Y28578D03*
X52359Y28751D03*
X52349Y28741D03*
D296*
X52349Y26572D03*
X54249Y26734D03*
X38696Y02917D03*
X36797Y02754D03*
D297*
X38696Y04766D03*
X54249Y28583D03*
D298*
X54239Y28588D03*
X54229Y28599D03*
X53020Y27664D03*
X52268Y26648D03*
X54239Y26729D03*
X52329Y28731D03*
X36776Y04913D03*
X37467Y03846D03*
X36715Y02830D03*
X38686Y02912D03*
X38686Y04771D03*
X38676Y04781D03*
D299*
X38676Y02906D03*
X54229Y26724D03*
D300*
X54218Y26724D03*
X54218Y28604D03*
X38666Y04786D03*
X38666Y02906D03*
D301*
X38656Y02901D03*
X38646Y02891D03*
X36766Y02769D03*
X38646Y04791D03*
X38656Y04791D03*
X36756Y04903D03*
X52319Y26587D03*
X54198Y26709D03*
X54208Y26719D03*
X54208Y28609D03*
X54198Y28609D03*
X52308Y28720D03*
D302*
X52298Y28715D03*
X53009Y27659D03*
X52298Y26602D03*
X52308Y26592D03*
X54178Y26704D03*
X54188Y26704D03*
X54188Y28614D03*
X36746Y04898D03*
X37457Y03841D03*
X38625Y02886D03*
X38636Y02886D03*
X36756Y02774D03*
X36746Y02785D03*
X38636Y04796D03*
D303*
X38625Y04801D03*
X38605Y04812D03*
X54158Y28629D03*
X54178Y28619D03*
D304*
X54168Y28619D03*
X54168Y26699D03*
X52288Y26607D03*
X38615Y04801D03*
X38615Y02881D03*
X36736Y02790D03*
D305*
X38605Y02886D03*
X36725Y04888D03*
X54158Y26704D03*
X52278Y28705D03*
D306*
X54158Y29752D03*
X54097Y25566D03*
X54086Y25566D03*
X38605Y05934D03*
X38544Y01748D03*
X38534Y01748D03*
D307*
X38595Y02896D03*
X54147Y26714D03*
D308*
X54147Y28619D03*
X38595Y04801D03*
D309*
X38585Y02912D03*
X54137Y26729D03*
D310*
X54137Y28609D03*
X38585Y04791D03*
D311*
X38575Y04776D03*
X37426Y03841D03*
X52979Y27659D03*
X54127Y28593D03*
D312*
X54117Y28583D03*
X38564Y04766D03*
D313*
X38524Y04715D03*
X54076Y28532D03*
D314*
X54066Y26815D03*
X38514Y02998D03*
D315*
X39277Y03734D03*
X54829Y27552D03*
D316*
X53985Y28436D03*
X53975Y28436D03*
X53934Y29655D03*
X52888Y27664D03*
X52684Y26059D03*
X52705Y26038D03*
X38382Y05838D03*
X38422Y04618D03*
X38432Y04618D03*
X37335Y03846D03*
X37132Y02241D03*
X37152Y02221D03*
D317*
X37447Y02017D03*
X38412Y01794D03*
X37447Y05675D03*
X52999Y25835D03*
X53964Y25611D03*
X52999Y29493D03*
D318*
X53355Y29569D03*
X52694Y29274D03*
X53964Y26887D03*
X37802Y05751D03*
X37142Y05457D03*
X38412Y03069D03*
D319*
X38412Y04613D03*
X38361Y04613D03*
X53914Y28431D03*
X53964Y28431D03*
D320*
X53964Y29701D03*
X38412Y05883D03*
D321*
X37741Y05772D03*
X37355Y05619D03*
X37325Y05599D03*
X37315Y05589D03*
X37335Y02084D03*
X38402Y01809D03*
X52888Y25901D03*
X53954Y25627D03*
X52867Y29406D03*
X52877Y29416D03*
X52908Y29437D03*
X53294Y29589D03*
D322*
X54773Y27643D03*
X39221Y03826D03*
D323*
X38392Y05853D03*
X37772Y05761D03*
X37213Y05518D03*
X37203Y05507D03*
X37213Y02175D03*
X37223Y02165D03*
X37233Y02155D03*
X52786Y25972D03*
X52776Y25982D03*
X52766Y25992D03*
X52755Y29325D03*
X52766Y29335D03*
X53324Y29579D03*
X53944Y29670D03*
D324*
X53345Y29569D03*
X52735Y26013D03*
X53934Y25657D03*
X37792Y05751D03*
X37183Y02195D03*
X38382Y01840D03*
D325*
X38310Y01936D03*
X53863Y25754D03*
D326*
X53812Y26922D03*
X53812Y28405D03*
X38260Y04588D03*
X38260Y03105D03*
D327*
X38209Y03125D03*
X53761Y26942D03*
D328*
X53710Y26978D03*
X53710Y28350D03*
X38158Y04532D03*
X38158Y03160D03*
D329*
X38128Y03186D03*
X37366Y03846D03*
X53680Y27003D03*
X52918Y27664D03*
D330*
X53639Y27664D03*
X38087Y03846D03*
D331*
X38077Y03841D03*
X38067Y03841D03*
X53619Y27659D03*
X53629Y27659D03*
D332*
X53609Y27664D03*
X38056Y03846D03*
D333*
X38056Y05706D03*
X38006Y01987D03*
X53558Y25805D03*
X53609Y29523D03*
D334*
X53589Y27664D03*
X53578Y27664D03*
X38036Y03846D03*
X38026Y03846D03*
D335*
X38016Y03841D03*
X37934Y03831D03*
X53487Y27649D03*
X53568Y27659D03*
D336*
X53558Y27664D03*
X38006Y03846D03*
D337*
X38006Y05690D03*
X53558Y29508D03*
D338*
X53538Y27664D03*
X37985Y03846D03*
D339*
X37975Y03841D03*
X37965Y03841D03*
X53517Y27659D03*
X53528Y27659D03*
D340*
X53517Y25810D03*
X37965Y01992D03*
D341*
X37955Y03836D03*
X53507Y27654D03*
D342*
X53467Y27649D03*
X37914Y03831D03*
D343*
X37904Y03831D03*
X53456Y27649D03*
D344*
X53446Y27649D03*
X37894Y03831D03*
D345*
X37884Y03831D03*
X53436Y27649D03*
D346*
X53426Y27649D03*
X37874Y03831D03*
D347*
X37863Y03831D03*
X53416Y27649D03*
D348*
X53406Y27649D03*
X37853Y03831D03*
D349*
X37843Y03831D03*
X53396Y27649D03*
D350*
X53375Y27649D03*
X37823Y03831D03*
D351*
X37813Y03831D03*
X53365Y27649D03*
D352*
X52694Y26048D03*
X53355Y25754D03*
X37802Y01936D03*
X37142Y02231D03*
D353*
X37802Y03831D03*
X53355Y27649D03*
D354*
X52705Y29284D03*
X52715Y29294D03*
X52715Y26033D03*
X52725Y26023D03*
X53345Y25749D03*
X37162Y05477D03*
X37152Y05467D03*
X37162Y02216D03*
X37172Y02205D03*
X37792Y01931D03*
D355*
X37792Y03831D03*
X53345Y27649D03*
D356*
X52725Y29300D03*
X52735Y29310D03*
X53335Y29574D03*
X51618Y27664D03*
X52755Y25998D03*
X53335Y25744D03*
X37782Y05756D03*
X37183Y05492D03*
X37172Y05482D03*
X36065Y03846D03*
X37203Y02180D03*
X37782Y01926D03*
D357*
X37782Y03831D03*
X36390Y03841D03*
X51943Y27659D03*
X53335Y27649D03*
D358*
X53324Y27649D03*
X37772Y03831D03*
D359*
X37254Y05548D03*
X37274Y05558D03*
X37284Y05568D03*
X37762Y05761D03*
X37264Y02134D03*
X37274Y02124D03*
X37762Y01921D03*
X52827Y25942D03*
X52816Y25952D03*
X53314Y25738D03*
X52806Y29366D03*
X52827Y29376D03*
X52837Y29386D03*
X53314Y29579D03*
D360*
X53314Y27649D03*
X37762Y03831D03*
D361*
X37294Y05573D03*
X37752Y01916D03*
X53304Y25733D03*
X52847Y29391D03*
D362*
X53304Y27649D03*
X37752Y03831D03*
D363*
X37752Y05767D03*
X37294Y02109D03*
X52847Y25926D03*
X53304Y29584D03*
D364*
X53294Y27649D03*
X37741Y03831D03*
D365*
X37731Y03831D03*
X36421Y03841D03*
X51973Y27659D03*
X53284Y27649D03*
D366*
X53263Y27649D03*
X37711Y03831D03*
D367*
X37477Y05690D03*
X37518Y05711D03*
X37711Y05782D03*
X37467Y02002D03*
X37508Y01982D03*
X37518Y01972D03*
X53020Y25820D03*
X53060Y25799D03*
X53070Y25789D03*
X53030Y29508D03*
X53070Y29528D03*
X53263Y29599D03*
D368*
X53152Y29569D03*
X53152Y25749D03*
X53253Y25718D03*
X37599Y05751D03*
X37599Y01931D03*
X37701Y01901D03*
D369*
X37701Y03831D03*
X53253Y27649D03*
D370*
X53101Y25774D03*
X53101Y29543D03*
X53253Y29604D03*
X37701Y05787D03*
X37548Y05726D03*
X37548Y01957D03*
D371*
X37680Y01896D03*
X37691Y01896D03*
X37609Y05756D03*
X53233Y25713D03*
X53243Y25713D03*
X53162Y29574D03*
D372*
X53111Y27659D03*
X53233Y27649D03*
X37680Y03831D03*
X37559Y03841D03*
D373*
X37579Y03841D03*
X37670Y03831D03*
X36461Y03841D03*
X52014Y27659D03*
X53131Y27659D03*
X53223Y27649D03*
D374*
X53213Y27649D03*
X37660Y03831D03*
D375*
X37650Y05777D03*
X37650Y01916D03*
X53202Y25733D03*
X53202Y29594D03*
D376*
X53202Y27649D03*
X37650Y03831D03*
D377*
X37640Y03836D03*
X53192Y27654D03*
D378*
X53111Y25769D03*
X53131Y25759D03*
X53142Y25759D03*
X53162Y25749D03*
X53182Y25738D03*
X53131Y29559D03*
X53142Y29569D03*
X53172Y29579D03*
X37620Y05761D03*
X37589Y05751D03*
X37579Y05741D03*
X37559Y01951D03*
X37579Y01941D03*
X37589Y01941D03*
X37609Y01931D03*
X37630Y01921D03*
D379*
X37630Y03841D03*
X53182Y27659D03*
D380*
X53162Y27659D03*
X37609Y03841D03*
D381*
X37599Y03846D03*
X53152Y27664D03*
D382*
X53142Y27664D03*
X37589Y03846D03*
D383*
X37548Y03841D03*
X53101Y27659D03*
D384*
X53091Y27664D03*
X37538Y03846D03*
D385*
X37528Y03841D03*
X36441Y03841D03*
X51993Y27659D03*
X53081Y27659D03*
D386*
X53060Y27659D03*
X37508Y03841D03*
D387*
X37498Y02785D03*
X53050Y26602D03*
D388*
X52440Y26526D03*
X53050Y27664D03*
X37498Y03846D03*
X36888Y02708D03*
D389*
X37498Y05700D03*
X53050Y29518D03*
D390*
X53040Y29518D03*
X53040Y25810D03*
X37487Y05700D03*
X37487Y01992D03*
D391*
X36868Y02719D03*
X37487Y03846D03*
X36858Y04954D03*
X36847Y04954D03*
X52420Y26536D03*
X53040Y27664D03*
X52410Y28771D03*
X52400Y28771D03*
D392*
X52369Y28756D03*
X53030Y27659D03*
X52380Y26561D03*
X52369Y26561D03*
X36817Y04939D03*
X37477Y03841D03*
X36827Y02744D03*
X36817Y02744D03*
D393*
X37467Y02774D03*
X36878Y03831D03*
X36868Y03831D03*
X36858Y03831D03*
X37457Y04908D03*
X53020Y26592D03*
X52430Y27649D03*
X52420Y27649D03*
X52410Y27649D03*
X53009Y28726D03*
D394*
X52999Y26577D03*
X37447Y02759D03*
D395*
X37447Y03846D03*
X52999Y27664D03*
D396*
X52999Y28731D03*
X37447Y04913D03*
D397*
X37437Y02759D03*
X52989Y26577D03*
D398*
X52979Y26572D03*
X52969Y28746D03*
X37416Y04928D03*
X37426Y02754D03*
D399*
X37426Y04923D03*
X52979Y28741D03*
D400*
X52959Y29467D03*
X52979Y29477D03*
X52969Y25850D03*
X52959Y25850D03*
X37426Y05660D03*
X37406Y05650D03*
X37406Y02033D03*
X37416Y02033D03*
D401*
X37416Y02749D03*
X37183Y03094D03*
X52969Y26567D03*
X52735Y26912D03*
D402*
X52959Y26561D03*
X37406Y02744D03*
D403*
X37396Y02043D03*
X52948Y25860D03*
D404*
X52948Y26556D03*
X37396Y02739D03*
D405*
X37396Y04933D03*
X52948Y28751D03*
D406*
X52948Y29462D03*
X37396Y05645D03*
D407*
X37386Y04933D03*
X52938Y28751D03*
D408*
X52369Y27659D03*
X52928Y26551D03*
X36817Y03841D03*
X37376Y02734D03*
D409*
X37355Y02729D03*
X37223Y03084D03*
X52908Y26546D03*
X52776Y26902D03*
D410*
X52766Y26907D03*
X52908Y28766D03*
X37355Y04949D03*
X37213Y03089D03*
D411*
X37345Y02073D03*
X37345Y05609D03*
X52898Y25891D03*
X52898Y29427D03*
D412*
X52898Y26541D03*
X37345Y02724D03*
D413*
X37345Y04954D03*
X52898Y28771D03*
D414*
X52877Y27664D03*
X52837Y25937D03*
X37325Y03846D03*
X37284Y02119D03*
D415*
X37325Y04959D03*
X52877Y28776D03*
D416*
X52867Y26526D03*
X37315Y02708D03*
D417*
X37294Y02703D03*
X52847Y26521D03*
D418*
X52847Y28786D03*
X37294Y04969D03*
D419*
X37284Y04969D03*
X52837Y28786D03*
D420*
X52827Y28411D03*
X52827Y26897D03*
X37274Y04593D03*
X37274Y03079D03*
D421*
X37264Y04593D03*
X52816Y28411D03*
D422*
X52816Y29371D03*
X52806Y25957D03*
X37264Y05553D03*
X37254Y02139D03*
D423*
X37244Y02150D03*
X37244Y05543D03*
X52796Y25967D03*
X52796Y29361D03*
D424*
X52796Y28411D03*
X52796Y26897D03*
X37244Y04593D03*
X37244Y03079D03*
D425*
X37223Y04588D03*
X52776Y28405D03*
D426*
X52766Y27649D03*
X52684Y26937D03*
X37213Y03831D03*
X37132Y03120D03*
D427*
X37203Y03089D03*
X37203Y04583D03*
X52755Y26907D03*
X52755Y28400D03*
D428*
X52745Y29320D03*
X52745Y26008D03*
X37193Y05502D03*
X37193Y02190D03*
D429*
X37193Y03089D03*
X37193Y04583D03*
X52745Y26907D03*
X52745Y28400D03*
D430*
X52694Y28380D03*
X52593Y27649D03*
X52694Y26927D03*
X37142Y04563D03*
X37040Y03831D03*
X37142Y03110D03*
D431*
X37101Y04578D03*
X52654Y28395D03*
D432*
X52644Y26907D03*
X37091Y03089D03*
D433*
X37091Y03836D03*
X52644Y27654D03*
D434*
X52644Y28405D03*
X37091Y04588D03*
D435*
X37051Y05040D03*
X52603Y28858D03*
D436*
X52593Y26460D03*
X37040Y02642D03*
D437*
X37040Y05040D03*
X52593Y28858D03*
D438*
X52522Y28827D03*
X52552Y26480D03*
X52562Y26470D03*
X36969Y05010D03*
X37000Y02663D03*
X37010Y02653D03*
D439*
X37000Y05025D03*
X52552Y28842D03*
D440*
X52542Y28837D03*
X52542Y26480D03*
X36990Y05020D03*
X36990Y02663D03*
D441*
X36990Y03836D03*
X52542Y27654D03*
D442*
X52512Y28822D03*
X52532Y26485D03*
X36959Y05005D03*
X36979Y02668D03*
D443*
X36979Y05015D03*
X52532Y28832D03*
D444*
X52491Y27654D03*
X52440Y27654D03*
X36939Y03836D03*
X36888Y03836D03*
D445*
X36939Y04994D03*
X52491Y28812D03*
D446*
X52461Y28802D03*
X52247Y28599D03*
X52247Y26719D03*
X52471Y26516D03*
X52481Y26506D03*
X36908Y04984D03*
X36695Y04781D03*
X36695Y02901D03*
X36918Y02698D03*
X36929Y02688D03*
D447*
X36929Y04989D03*
X36918Y04989D03*
X52471Y28807D03*
X52481Y28807D03*
D448*
X52461Y26521D03*
X52451Y26521D03*
X36908Y02703D03*
X36898Y02703D03*
D449*
X36888Y04969D03*
X52440Y28786D03*
D450*
X52400Y26546D03*
X36847Y02729D03*
D451*
X36837Y04949D03*
X52390Y28766D03*
D452*
X51678Y27664D03*
X52339Y26577D03*
X36126Y03846D03*
X36786Y02759D03*
D453*
X36786Y04918D03*
X52339Y28736D03*
D454*
X52288Y28710D03*
X36736Y04893D03*
D455*
X36725Y02800D03*
X52278Y26617D03*
D456*
X52237Y26785D03*
X36685Y02967D03*
D457*
X36685Y04720D03*
X52237Y28538D03*
D458*
X52227Y27659D03*
X36675Y03841D03*
D459*
X36664Y03841D03*
X52217Y27659D03*
D460*
X52197Y27664D03*
X36644Y03846D03*
D461*
X36634Y03846D03*
X52186Y27664D03*
D462*
X52136Y27664D03*
X36583Y03846D03*
D463*
X36553Y03841D03*
X52105Y27659D03*
D464*
X52095Y27664D03*
X36543Y03846D03*
D465*
X36532Y03841D03*
X52085Y27659D03*
D466*
X52054Y27664D03*
X36502Y03846D03*
D467*
X36492Y03841D03*
X52044Y27659D03*
D468*
X52034Y27664D03*
X36482Y03846D03*
D469*
X36431Y03846D03*
X51983Y27664D03*
D470*
X51953Y27659D03*
X36400Y03841D03*
D471*
X36380Y03846D03*
X51932Y27664D03*
D472*
X51922Y27659D03*
X36370Y03841D03*
D473*
X36350Y03846D03*
X51902Y27664D03*
D474*
X51892Y27664D03*
X36339Y03846D03*
D475*
X36329Y03841D03*
X51882Y27659D03*
D476*
X51841Y27659D03*
X36289Y03841D03*
D477*
X36278Y03841D03*
X51831Y27659D03*
D478*
X51729Y27659D03*
X36177Y03841D03*
D479*
X36116Y03841D03*
X51668Y27659D03*
D480*
X51658Y27664D03*
X36106Y03846D03*
D481*
X54337Y07025D02*
X54337Y07610D01*
X54532Y07805D01*
X54922Y07805D01*
X55117Y07610D01*
X55117Y07025D01*
X55507Y07025D02*
X54337Y07025D01*
X55117Y07415D02*
X55507Y07805D01*
X55312Y08195D02*
X55507Y08389D01*
X55507Y08779D01*
X55312Y08974D01*
X54922Y08974D01*
X54727Y08779D01*
X54727Y08584D01*
X54922Y08195D01*
X54337Y08195D01*
X54337Y08974D01*
X54532Y09364D02*
X54337Y09559D01*
X54337Y09949D01*
X54532Y10143D01*
X54727Y10143D01*
X55507Y09364D01*
X55507Y10143D01*
X64185Y09959D02*
X64185Y09569D01*
X64380Y09375D01*
X65159Y09375D01*
X64380Y10154D01*
X65159Y10154D01*
X65354Y09959D01*
X65354Y09569D01*
X65159Y09375D01*
X65159Y08985D02*
X65354Y08790D01*
X65354Y08400D01*
X65159Y08205D01*
X65455Y08205D02*
X66040Y08205D01*
X65845Y08595D01*
X65845Y08790D01*
X66040Y08985D01*
X66429Y08985D01*
X66624Y08790D01*
X66624Y08400D01*
X66429Y08205D01*
X66624Y07815D02*
X66234Y07426D01*
X66234Y07620D02*
X66234Y07036D01*
X66624Y07036D02*
X65455Y07036D01*
X65455Y07620D01*
X65650Y07815D01*
X66040Y07815D01*
X66234Y07620D01*
X65354Y07815D02*
X64964Y07426D01*
X64964Y07620D02*
X64964Y07036D01*
X65354Y07036D02*
X64185Y07036D01*
X64185Y07620D01*
X64380Y07815D01*
X64770Y07815D01*
X64964Y07620D01*
X64770Y08205D02*
X64575Y08595D01*
X64575Y08790D01*
X64770Y08985D01*
X65159Y08985D01*
X65455Y08985D02*
X65455Y08205D01*
X64770Y08205D02*
X64185Y08205D01*
X64185Y08985D01*
X64185Y09959D02*
X64380Y10154D01*
X65455Y09764D02*
X66624Y09764D01*
X66624Y09375D02*
X66624Y10154D01*
X65845Y09375D02*
X65455Y09764D01*
X75616Y05506D02*
X75616Y04337D01*
X76200Y04337D01*
X76395Y04532D01*
X76395Y04727D01*
X76200Y04922D01*
X75616Y04922D01*
X75616Y05506D02*
X76200Y05506D01*
X76395Y05312D01*
X76395Y05117D01*
X76200Y04922D01*
X76785Y05117D02*
X77175Y05506D01*
X77175Y04337D01*
X76785Y04337D02*
X77565Y04337D01*
X62526Y-01038D02*
X62331Y-00844D01*
X61941Y-00844D01*
X61746Y-01038D01*
X61357Y-01038D02*
X61357Y-01233D01*
X61162Y-01428D01*
X60577Y-01428D01*
X60577Y-00844D02*
X60577Y-02013D01*
X61162Y-02013D01*
X61357Y-01818D01*
X61357Y-01623D01*
X61162Y-01428D01*
X61357Y-01038D02*
X61162Y-00844D01*
X60577Y-00844D01*
X61746Y-02013D02*
X62526Y-01233D01*
X62526Y-01038D01*
X62526Y-02013D02*
X61746Y-02013D01*
X28835Y32436D02*
X28445Y32436D01*
X28250Y32631D01*
X28250Y33020D02*
X28640Y33215D01*
X28835Y33215D01*
X29030Y33020D01*
X29030Y32631D01*
X28835Y32436D01*
X28250Y33020D02*
X28250Y33605D01*
X29030Y33605D01*
X27860Y33410D02*
X27860Y33020D01*
X27665Y32826D01*
X27081Y32826D01*
X27471Y32826D02*
X27860Y32436D01*
X27081Y32436D02*
X27081Y33605D01*
X27665Y33605D01*
X27860Y33410D01*
X23791Y30712D02*
X23596Y30906D01*
X23206Y30906D01*
X23011Y30712D01*
X22622Y30906D02*
X21842Y30906D01*
X22232Y30906D02*
X22232Y29737D01*
X23011Y29737D02*
X23791Y30517D01*
X23791Y30712D01*
X23791Y29737D02*
X23011Y29737D01*
X22910Y45136D02*
X22910Y45720D01*
X23105Y45915D01*
X23495Y45915D01*
X23689Y45720D01*
X23689Y45136D01*
X23689Y45526D02*
X24079Y45915D01*
X24339Y45720D02*
X24533Y45915D01*
X24923Y45915D01*
X25118Y45720D01*
X25118Y45136D01*
X25118Y45526D02*
X25508Y45915D01*
X25609Y45720D02*
X25803Y45915D01*
X26193Y45915D01*
X26388Y45720D01*
X26388Y45136D01*
X26388Y45526D02*
X26778Y45915D01*
X27037Y45720D02*
X27232Y45915D01*
X27622Y45915D01*
X27817Y45720D01*
X27817Y45136D01*
X27817Y45526D02*
X28207Y45915D01*
X28307Y45720D02*
X28502Y45915D01*
X28892Y45915D01*
X29087Y45720D01*
X29087Y45136D01*
X29087Y45526D02*
X29477Y45915D01*
X28892Y46305D02*
X28892Y47085D01*
X28524Y46967D02*
X28524Y47747D01*
X28307Y47669D02*
X28307Y48059D01*
X28502Y48254D01*
X29282Y48254D01*
X29477Y48059D01*
X29477Y47669D01*
X29282Y47475D01*
X28892Y47669D02*
X28892Y48254D01*
X28524Y48136D02*
X28524Y48721D01*
X28329Y48916D01*
X27550Y48916D01*
X27355Y48721D01*
X27355Y48136D01*
X28524Y48136D01*
X28207Y48059D02*
X28207Y47669D01*
X28012Y47475D01*
X27817Y47475D01*
X27622Y47669D01*
X27622Y48059D01*
X27817Y48254D01*
X28012Y48254D01*
X28207Y48059D01*
X28307Y47669D02*
X28502Y47475D01*
X28697Y47475D01*
X28892Y47669D01*
X28524Y46967D02*
X27355Y46967D01*
X27355Y47747D01*
X27622Y47669D02*
X27427Y47475D01*
X27232Y47475D01*
X27037Y47669D01*
X27037Y48059D01*
X27232Y48254D01*
X27427Y48254D01*
X27622Y48059D01*
X27940Y47357D02*
X27940Y46967D01*
X28207Y46890D02*
X27037Y46890D01*
X27622Y46305D01*
X27622Y47085D01*
X28307Y46890D02*
X28892Y46305D01*
X28524Y46577D02*
X28524Y45798D01*
X27355Y45798D01*
X27037Y45720D02*
X27037Y45136D01*
X28207Y45136D01*
X28307Y45136D02*
X28307Y45720D01*
X28307Y45136D02*
X29477Y45136D01*
X31165Y45798D02*
X32334Y45798D01*
X32334Y46577D01*
X32334Y46967D02*
X31165Y46967D01*
X31165Y47747D01*
X31165Y48136D02*
X31165Y48721D01*
X31360Y48916D01*
X32139Y48916D01*
X32334Y48721D01*
X32334Y48136D01*
X31165Y48136D01*
X31750Y47357D02*
X31750Y46967D01*
X32334Y46967D02*
X32334Y47747D01*
X32139Y49306D02*
X31360Y50085D01*
X32139Y50085D01*
X32334Y49890D01*
X32334Y49501D01*
X32139Y49306D01*
X31360Y49306D01*
X31165Y49501D01*
X31165Y49890D01*
X31360Y50085D01*
X31165Y50475D02*
X32334Y50475D01*
X32334Y51255D02*
X31165Y51255D01*
X31165Y50475D02*
X32334Y51255D01*
X33705Y50230D02*
X34874Y50230D01*
X34874Y49840D02*
X34874Y50620D01*
X35610Y50425D02*
X35610Y50035D01*
X35805Y49840D01*
X35805Y49450D02*
X35610Y49255D01*
X35610Y48671D01*
X36779Y48671D01*
X36779Y49255D01*
X36584Y49450D01*
X35805Y49450D01*
X34874Y49255D02*
X34874Y48671D01*
X33705Y48671D01*
X33705Y49255D01*
X33900Y49450D01*
X34679Y49450D01*
X34874Y49255D01*
X34874Y48281D02*
X34874Y47501D01*
X33705Y47501D01*
X33705Y48281D01*
X34290Y47891D02*
X34290Y47501D01*
X34874Y47603D02*
X34874Y46824D01*
X34874Y47112D02*
X34874Y46332D01*
X33705Y46332D01*
X33705Y46239D02*
X33900Y46434D01*
X34290Y46434D01*
X34484Y46239D01*
X34484Y45655D01*
X34484Y46044D02*
X34874Y46434D01*
X35610Y46332D02*
X36779Y46332D01*
X36779Y47112D01*
X36779Y46824D02*
X36000Y47603D01*
X35805Y47603D01*
X35610Y47409D01*
X35610Y47019D01*
X35805Y46824D01*
X35805Y46434D02*
X35610Y46239D01*
X35610Y45655D01*
X36779Y45655D01*
X36389Y45655D02*
X36389Y46239D01*
X36195Y46434D01*
X35805Y46434D01*
X36389Y46044D02*
X36779Y46434D01*
X36779Y46824D02*
X36779Y47603D01*
X36779Y47501D02*
X36779Y48281D01*
X36195Y47891D02*
X36195Y47501D01*
X36779Y47501D02*
X35610Y47501D01*
X35610Y48281D01*
X34874Y47214D02*
X33705Y47214D01*
X34095Y46824D01*
X33705Y46239D02*
X33705Y45655D01*
X34874Y45655D01*
X34095Y49840D02*
X33705Y50230D01*
X35610Y50425D02*
X35805Y50620D01*
X36000Y50620D01*
X36779Y49840D01*
X36779Y50620D01*
X29477Y46890D02*
X28307Y46890D01*
X26778Y46890D02*
X25609Y46890D01*
X26193Y46305D01*
X26193Y47085D01*
X25803Y47475D02*
X25609Y47669D01*
X25609Y48059D01*
X25803Y48254D01*
X25998Y48254D01*
X26193Y48059D01*
X26388Y48254D01*
X26583Y48254D01*
X26778Y48059D01*
X26778Y47669D01*
X26583Y47475D01*
X26193Y47864D02*
X26193Y48059D01*
X25508Y48254D02*
X25508Y47475D01*
X24728Y48254D01*
X24533Y48254D01*
X24339Y48059D01*
X24339Y47669D01*
X24533Y47475D01*
X24714Y47747D02*
X24714Y46967D01*
X23545Y46967D01*
X23545Y47747D01*
X23545Y48136D02*
X23545Y48721D01*
X23740Y48916D01*
X24519Y48916D01*
X24714Y48721D01*
X24714Y48136D01*
X23545Y48136D01*
X23105Y48254D02*
X23884Y47475D01*
X24079Y47475D01*
X24130Y47357D02*
X24130Y46967D01*
X24079Y46890D02*
X22910Y46890D01*
X23495Y46305D01*
X23495Y47085D01*
X22910Y47475D02*
X22910Y48254D01*
X23105Y48254D01*
X22809Y48059D02*
X22614Y48254D01*
X22419Y48254D01*
X22225Y48059D01*
X22225Y47475D01*
X22614Y47475D01*
X22809Y47669D01*
X22809Y48059D01*
X22225Y47475D02*
X21835Y47864D01*
X21640Y48254D01*
X21380Y48254D02*
X21380Y47475D01*
X21380Y47864D02*
X20211Y47864D01*
X20601Y47475D01*
X20320Y47357D02*
X20320Y46967D01*
X20211Y46890D02*
X20796Y46305D01*
X20796Y47085D01*
X20904Y46967D02*
X20904Y47747D01*
X20904Y48136D02*
X20904Y48721D01*
X20709Y48916D01*
X19930Y48916D01*
X19735Y48721D01*
X19735Y48136D01*
X20904Y48136D01*
X20110Y48059D02*
X20110Y47669D01*
X19916Y47475D01*
X19136Y48254D01*
X19916Y48254D01*
X20110Y48059D01*
X19735Y47747D02*
X19735Y46967D01*
X20904Y46967D01*
X20904Y46577D02*
X20904Y45798D01*
X19735Y45798D01*
X19721Y45720D02*
X19721Y45136D01*
X20110Y45136D02*
X18941Y45136D01*
X18941Y45720D01*
X19136Y45915D01*
X19526Y45915D01*
X19721Y45720D01*
X19721Y45526D02*
X20110Y45915D01*
X20211Y45720D02*
X20406Y45915D01*
X20796Y45915D01*
X20991Y45720D01*
X20991Y45136D01*
X21380Y45136D02*
X20211Y45136D01*
X20211Y45720D01*
X20991Y45526D02*
X21380Y45915D01*
X21640Y45720D02*
X21835Y45915D01*
X22225Y45915D01*
X22419Y45720D01*
X22419Y45136D01*
X22419Y45526D02*
X22809Y45915D01*
X22225Y46305D02*
X22225Y47085D01*
X22809Y46890D02*
X21640Y46890D01*
X22225Y46305D01*
X21640Y45720D02*
X21640Y45136D01*
X22809Y45136D01*
X22910Y45136D02*
X24079Y45136D01*
X24339Y45136D02*
X24339Y45720D01*
X24714Y45798D02*
X24714Y46577D01*
X24923Y46305D02*
X24339Y46890D01*
X25508Y46890D01*
X24923Y47085D02*
X24923Y46305D01*
X24714Y45798D02*
X23545Y45798D01*
X24339Y45136D02*
X25508Y45136D01*
X25609Y45136D02*
X25609Y45720D01*
X25609Y45136D02*
X26778Y45136D01*
X27355Y49105D02*
X28524Y49105D01*
X28524Y49884D01*
X28524Y49696D02*
X27355Y49696D01*
X27745Y49306D01*
X28524Y49306D02*
X28524Y50085D01*
X28524Y50274D02*
X28524Y51054D01*
X28524Y51255D02*
X27355Y51255D01*
X27355Y51443D02*
X27355Y52028D01*
X27550Y52223D01*
X28329Y52223D01*
X28524Y52028D01*
X28524Y51443D01*
X27355Y51443D01*
X27355Y51054D02*
X27355Y50274D01*
X28524Y50274D01*
X28524Y50475D02*
X27355Y50475D01*
X28524Y51255D01*
X27940Y50664D02*
X27940Y50274D01*
X28329Y52613D02*
X27550Y52613D01*
X27355Y52808D01*
X27355Y53197D01*
X27550Y53392D01*
X28329Y52613D01*
X28524Y52808D01*
X28524Y53197D01*
X28329Y53392D01*
X27550Y53392D01*
X27355Y53782D02*
X27355Y54367D01*
X27550Y54562D01*
X27940Y54562D01*
X28134Y54367D01*
X28134Y53782D01*
X28524Y53782D02*
X27355Y53782D01*
X24714Y53782D02*
X23545Y53782D01*
X23545Y54367D01*
X23740Y54562D01*
X24130Y54562D01*
X24324Y54367D01*
X24324Y53782D01*
X24714Y53392D02*
X24714Y52613D01*
X24714Y53003D02*
X23545Y53003D01*
X23935Y52613D01*
X23740Y52223D02*
X24519Y52223D01*
X24714Y52028D01*
X24714Y51443D01*
X23545Y51443D01*
X23545Y52028D01*
X23740Y52223D01*
X23545Y51255D02*
X24714Y51255D01*
X23545Y50475D01*
X24714Y50475D01*
X24714Y50274D02*
X24714Y51054D01*
X24130Y50664D02*
X24130Y50274D01*
X23935Y50085D02*
X23740Y50085D01*
X23545Y49890D01*
X23545Y49501D01*
X23740Y49306D01*
X23545Y49105D02*
X24714Y49105D01*
X24714Y49884D01*
X24714Y50085D02*
X24714Y49306D01*
X23935Y50085D01*
X23545Y50274D02*
X24714Y50274D01*
X23545Y50274D02*
X23545Y51054D01*
X20904Y51054D02*
X20904Y50274D01*
X19735Y50274D01*
X19735Y51054D01*
X19735Y51255D02*
X20904Y51255D01*
X19735Y50475D01*
X20904Y50475D01*
X20709Y50085D02*
X20904Y49890D01*
X20904Y49501D01*
X20709Y49306D01*
X20904Y49105D02*
X20904Y49884D01*
X20709Y50085D02*
X20514Y50085D01*
X20320Y49890D01*
X20320Y49696D01*
X20320Y49890D02*
X20125Y50085D01*
X19930Y50085D01*
X19735Y49890D01*
X19735Y49501D01*
X19930Y49306D01*
X19735Y49105D02*
X20904Y49105D01*
X20320Y50274D02*
X20320Y50664D01*
X20904Y51443D02*
X19735Y51443D01*
X19735Y52028D01*
X19930Y52223D01*
X20709Y52223D01*
X20904Y52028D01*
X20904Y51443D01*
X20904Y52613D02*
X20125Y53392D01*
X19930Y53392D01*
X19735Y53197D01*
X19735Y52808D01*
X19930Y52613D01*
X20904Y52613D02*
X20904Y53392D01*
X20904Y53782D02*
X19735Y53782D01*
X19735Y54367D01*
X19930Y54562D01*
X20320Y54562D01*
X20514Y54367D01*
X20514Y53782D01*
X17094Y53782D02*
X15925Y53782D01*
X15925Y54367D01*
X16120Y54562D01*
X16510Y54562D01*
X16704Y54367D01*
X16704Y53782D01*
X16704Y53392D02*
X16899Y53392D01*
X17094Y53197D01*
X17094Y52808D01*
X16899Y52613D01*
X16899Y52223D02*
X16120Y52223D01*
X15925Y52028D01*
X15925Y51443D01*
X17094Y51443D01*
X17094Y52028D01*
X16899Y52223D01*
X16120Y52613D02*
X15925Y52808D01*
X15925Y53197D01*
X16120Y53392D01*
X16315Y53392D01*
X16510Y53197D01*
X16704Y53392D01*
X16510Y53197D02*
X16510Y53003D01*
X17094Y51255D02*
X15925Y51255D01*
X15925Y51054D02*
X15925Y50274D01*
X17094Y50274D01*
X17094Y51054D01*
X17094Y51255D02*
X15925Y50475D01*
X17094Y50475D01*
X17094Y49890D02*
X15925Y49890D01*
X16510Y49306D01*
X16510Y50085D01*
X16510Y50274D02*
X16510Y50664D01*
X17094Y49884D02*
X17094Y49105D01*
X15925Y49105D01*
X16028Y49054D02*
X16028Y48664D01*
X15833Y48470D01*
X15443Y48470D01*
X15248Y48664D01*
X15248Y49054D02*
X15638Y49249D01*
X15833Y49249D01*
X16028Y49054D01*
X16120Y48916D02*
X15925Y48721D01*
X15925Y48136D01*
X17094Y48136D01*
X17094Y48721D01*
X16899Y48916D01*
X16120Y48916D01*
X16028Y49639D02*
X15248Y49639D01*
X15248Y49054D01*
X14859Y49054D02*
X14079Y49054D01*
X14664Y49639D01*
X14664Y48470D01*
X13689Y48470D02*
X13299Y48859D01*
X13284Y48721D02*
X13089Y48916D01*
X12310Y48916D01*
X12115Y48721D01*
X12115Y48136D01*
X13284Y48136D01*
X13284Y48721D01*
X13494Y48859D02*
X12910Y48859D01*
X12910Y48470D02*
X12910Y49639D01*
X13494Y49639D01*
X13689Y49444D01*
X13689Y49054D01*
X13494Y48859D01*
X13284Y49105D02*
X13284Y49884D01*
X13284Y49890D02*
X13284Y49501D01*
X13089Y49306D01*
X13284Y49105D02*
X12115Y49105D01*
X12115Y49306D02*
X12700Y49306D01*
X12505Y49696D01*
X12505Y49890D01*
X12700Y50085D01*
X13089Y50085D01*
X13284Y49890D01*
X13284Y50274D02*
X13284Y51054D01*
X13284Y51255D02*
X12115Y51255D01*
X12115Y51443D02*
X12115Y52028D01*
X12310Y52223D01*
X13089Y52223D01*
X13284Y52028D01*
X13284Y51443D01*
X12115Y51443D01*
X12115Y51054D02*
X12115Y50274D01*
X13284Y50274D01*
X13284Y50475D02*
X12115Y50475D01*
X13284Y51255D01*
X12700Y50664D02*
X12700Y50274D01*
X12115Y50085D02*
X12115Y49306D01*
X12182Y49639D02*
X11597Y49054D01*
X12377Y49054D01*
X12182Y48470D02*
X12182Y49639D01*
X11207Y49054D02*
X10428Y49054D01*
X11012Y49639D01*
X11012Y48470D01*
X10038Y48470D02*
X09648Y48859D01*
X09843Y48859D02*
X09258Y48859D01*
X09474Y49105D02*
X09474Y49884D01*
X09258Y49639D02*
X09843Y49639D01*
X10038Y49444D01*
X10038Y49054D01*
X09843Y48859D01*
X09474Y49105D02*
X08305Y49105D01*
X09258Y49639D02*
X09258Y48470D01*
X09474Y50274D02*
X08305Y50274D01*
X08305Y51054D01*
X08305Y51443D02*
X08305Y52028D01*
X08500Y52223D01*
X09279Y52223D01*
X09474Y52028D01*
X09474Y51443D01*
X08305Y51443D01*
X08890Y50664D02*
X08890Y50274D01*
X09474Y50274D02*
X09474Y51054D01*
X09279Y52613D02*
X09474Y52808D01*
X09474Y53197D01*
X09279Y53392D01*
X08890Y53392D01*
X08695Y53197D01*
X08695Y53003D01*
X08890Y52613D01*
X08305Y52613D01*
X08305Y53392D01*
X08305Y53782D02*
X08305Y54367D01*
X08500Y54562D01*
X08890Y54562D01*
X09084Y54367D01*
X09084Y53782D01*
X09474Y53782D02*
X08305Y53782D01*
X06739Y51429D02*
X06544Y51429D01*
X06350Y51234D01*
X06350Y50844D01*
X06155Y50650D01*
X05960Y50650D01*
X05765Y50844D01*
X05765Y51234D01*
X05960Y51429D01*
X06155Y51429D01*
X06350Y51234D01*
X06350Y50844D02*
X06544Y50650D01*
X06739Y50650D01*
X06934Y50844D01*
X06934Y51234D01*
X06739Y51429D01*
X05664Y51234D02*
X05469Y51429D01*
X04690Y51429D01*
X04495Y51234D01*
X04495Y50844D01*
X04690Y50650D01*
X04885Y50650D01*
X05080Y50844D01*
X05080Y51429D01*
X05664Y51234D02*
X05664Y50844D01*
X05469Y50650D01*
X05469Y50260D02*
X05664Y50065D01*
X05664Y49675D01*
X05469Y49480D01*
X05765Y49675D02*
X05765Y50065D01*
X05960Y50260D01*
X06155Y50260D01*
X06350Y50065D01*
X06544Y50260D01*
X06739Y50260D01*
X06934Y50065D01*
X06934Y49675D01*
X06739Y49480D01*
X06934Y49090D02*
X06544Y48701D01*
X06544Y48895D02*
X06544Y48311D01*
X06934Y48311D02*
X05765Y48311D01*
X05765Y48895D01*
X05960Y49090D01*
X06350Y49090D01*
X06544Y48895D01*
X05960Y49480D02*
X05765Y49675D01*
X05664Y49090D02*
X05274Y48701D01*
X05274Y48895D02*
X05274Y48311D01*
X05664Y48311D02*
X04495Y48311D01*
X04495Y48895D01*
X04690Y49090D01*
X05080Y49090D01*
X05274Y48895D01*
X04690Y49480D02*
X04495Y49675D01*
X04495Y50065D01*
X04690Y50260D01*
X04885Y50260D01*
X05080Y50065D01*
X05274Y50260D01*
X05469Y50260D01*
X05080Y50065D02*
X05080Y49870D01*
X06350Y49870D02*
X06350Y50065D01*
X12115Y47747D02*
X12115Y46967D01*
X13284Y46967D01*
X13284Y47747D01*
X12700Y47357D02*
X12700Y46967D01*
X13284Y46577D02*
X13284Y45798D01*
X12115Y45798D01*
X15925Y45798D02*
X17094Y45798D01*
X17094Y46577D01*
X17094Y46967D02*
X15925Y46967D01*
X15925Y47747D01*
X16510Y47357D02*
X16510Y46967D01*
X17094Y46967D02*
X17094Y47747D01*
X18941Y47669D02*
X18941Y48059D01*
X19136Y48254D01*
X18941Y47669D02*
X19136Y47475D01*
X19916Y47475D01*
X19526Y47085D02*
X19526Y46305D01*
X18941Y46890D01*
X20110Y46890D01*
X20211Y46890D02*
X21380Y46890D01*
X13284Y53197D02*
X12115Y53197D01*
X12700Y52613D01*
X12700Y53392D01*
X12894Y53782D02*
X12894Y54367D01*
X12700Y54562D01*
X12310Y54562D01*
X12115Y54367D01*
X12115Y53782D01*
X13284Y53782D01*
X40257Y41348D02*
X40257Y40568D01*
X40452Y40373D01*
X40842Y40373D01*
X41037Y40568D01*
X41159Y40273D02*
X40769Y40273D01*
X40575Y40078D01*
X40575Y39298D01*
X40769Y39103D01*
X41159Y39103D01*
X41354Y39298D01*
X41744Y39103D02*
X42523Y39103D01*
X42134Y39103D02*
X42134Y40273D01*
X41744Y39883D01*
X41354Y40078D02*
X41159Y40273D01*
X41426Y40373D02*
X42206Y41153D01*
X42206Y41348D01*
X42011Y41543D01*
X41621Y41543D01*
X41426Y41348D01*
X41037Y41348D02*
X40842Y41543D01*
X40452Y41543D01*
X40257Y41348D01*
X41426Y40373D02*
X42206Y40373D01*
X44025Y41838D02*
X44219Y41643D01*
X44609Y41643D01*
X44804Y41838D01*
X45194Y41838D02*
X45194Y41643D01*
X45194Y41838D02*
X45974Y42618D01*
X45974Y42813D01*
X45194Y42813D01*
X44927Y42913D02*
X45122Y43108D01*
X44927Y42913D02*
X44537Y42913D01*
X44342Y43108D01*
X44342Y43888D01*
X44537Y44083D01*
X44927Y44083D01*
X45122Y43888D01*
X45511Y43888D02*
X45706Y44083D01*
X46096Y44083D01*
X46291Y43888D01*
X46291Y43693D01*
X46096Y43498D01*
X46291Y43303D01*
X46291Y43108D01*
X46096Y42913D01*
X45706Y42913D01*
X45511Y43108D01*
X45901Y43498D02*
X46096Y43498D01*
X44804Y42618D02*
X44609Y42813D01*
X44219Y42813D01*
X44025Y42618D01*
X44025Y41838D01*
X47675Y46406D02*
X47675Y46990D01*
X47870Y47185D01*
X48260Y47185D01*
X48454Y46990D01*
X48454Y46406D01*
X48454Y46796D02*
X48844Y47185D01*
X48649Y47575D02*
X48844Y47770D01*
X48844Y48160D01*
X48649Y48355D01*
X48454Y48355D01*
X48260Y48160D01*
X48260Y47965D01*
X48260Y48160D02*
X48065Y48355D01*
X47870Y48355D01*
X47675Y48160D01*
X47675Y47770D01*
X47870Y47575D01*
X47675Y46406D02*
X48844Y46406D01*
X50215Y46332D02*
X51384Y46332D01*
X51384Y47112D01*
X51384Y47501D02*
X51384Y48281D01*
X51384Y48671D02*
X51384Y49255D01*
X51189Y49450D01*
X50410Y49450D01*
X50215Y49255D01*
X50215Y48671D01*
X51384Y48671D01*
X51788Y48946D02*
X51788Y50115D01*
X52372Y50115D01*
X52567Y49920D01*
X52567Y49530D01*
X52372Y49336D01*
X51788Y49336D01*
X52177Y49336D02*
X52567Y48946D01*
X52755Y48916D02*
X53729Y48916D01*
X53924Y48721D01*
X53924Y48331D01*
X53729Y48136D01*
X52755Y48136D01*
X53152Y48946D02*
X52957Y49141D01*
X52950Y49306D02*
X53145Y49306D01*
X53340Y49501D01*
X53340Y49890D01*
X53534Y50085D01*
X53729Y50085D01*
X53924Y49890D01*
X53924Y49501D01*
X53729Y49306D01*
X53737Y49336D02*
X53737Y49141D01*
X53542Y48946D01*
X53152Y48946D01*
X52950Y49306D02*
X52755Y49501D01*
X52755Y49890D01*
X52950Y50085D01*
X52957Y49920D02*
X53152Y50115D01*
X53542Y50115D01*
X53737Y49920D01*
X53737Y49725D01*
X53542Y49530D01*
X53737Y49336D01*
X53542Y49530D02*
X53347Y49530D01*
X54126Y49530D02*
X54516Y49920D01*
X54906Y50115D01*
X54711Y49530D02*
X54126Y49530D01*
X54126Y49141D01*
X54321Y48946D01*
X54711Y48946D01*
X54906Y49141D01*
X54906Y49336D01*
X54711Y49530D01*
X53924Y50475D02*
X53924Y51060D01*
X53729Y51255D01*
X53534Y51255D01*
X53340Y51060D01*
X53340Y50475D01*
X53924Y50475D02*
X52755Y50475D01*
X52755Y51060D01*
X52950Y51255D01*
X53145Y51255D01*
X53340Y51060D01*
X51384Y50425D02*
X51384Y50035D01*
X51189Y49840D01*
X50800Y50230D02*
X50800Y50425D01*
X50994Y50620D01*
X51189Y50620D01*
X51384Y50425D01*
X50800Y50425D02*
X50605Y50620D01*
X50410Y50620D01*
X50215Y50425D01*
X50215Y50035D01*
X50410Y49840D01*
X50215Y48281D02*
X50215Y47501D01*
X51384Y47501D01*
X50800Y47501D02*
X50800Y47891D01*
X52755Y46382D02*
X52950Y46577D01*
X53145Y46577D01*
X53340Y46382D01*
X53534Y46577D01*
X53729Y46577D01*
X53924Y46382D01*
X53924Y45992D01*
X53729Y45798D01*
X53534Y45408D02*
X52755Y45408D01*
X52950Y45798D02*
X52755Y45992D01*
X52755Y46382D01*
X53340Y46382D02*
X53340Y46187D01*
X53534Y45408D02*
X53924Y45018D01*
X53534Y44628D01*
X52755Y44628D01*
X52950Y44238D02*
X52755Y44043D01*
X52755Y43654D01*
X52950Y43459D01*
X53340Y43849D02*
X53340Y44043D01*
X53534Y44238D01*
X53729Y44238D01*
X53924Y44043D01*
X53924Y43654D01*
X53729Y43459D01*
X54119Y43069D02*
X54119Y42289D01*
X53729Y41900D02*
X52950Y41900D01*
X52755Y41705D01*
X52755Y41120D01*
X53924Y41120D01*
X53924Y41705D01*
X53729Y41900D01*
X53924Y40730D02*
X53924Y39951D01*
X52755Y39951D01*
X52755Y40730D01*
X53340Y40340D02*
X53340Y39951D01*
X53924Y39561D02*
X53924Y38781D01*
X52755Y38781D01*
X53340Y44043D02*
X53145Y44238D01*
X52950Y44238D01*
X54119Y46967D02*
X54119Y47747D01*
X57391Y45940D02*
X57391Y44771D01*
X57975Y44771D01*
X58170Y44966D01*
X58170Y45745D01*
X57975Y45940D01*
X57391Y45940D01*
X58560Y45550D02*
X58950Y45940D01*
X58950Y44771D01*
X58560Y44771D02*
X59340Y44771D01*
X64661Y49105D02*
X65830Y49105D01*
X65830Y49884D01*
X65830Y50274D02*
X65830Y51054D01*
X65830Y51443D02*
X65830Y52028D01*
X65636Y52223D01*
X64856Y52223D01*
X64661Y52028D01*
X64661Y51443D01*
X65830Y51443D01*
X66407Y51335D02*
X66407Y50945D01*
X66602Y50750D01*
X66602Y50360D02*
X66992Y50360D01*
X67187Y50165D01*
X67187Y49581D01*
X67187Y49971D02*
X67577Y50360D01*
X67577Y50750D02*
X66797Y51530D01*
X66602Y51530D01*
X66407Y51335D01*
X66992Y51920D02*
X66602Y52309D01*
X66407Y52699D01*
X66025Y52613D02*
X66025Y53392D01*
X65636Y53782D02*
X65830Y53977D01*
X65830Y54367D01*
X65636Y54562D01*
X65441Y54562D01*
X65246Y54367D01*
X65246Y54172D01*
X65246Y54367D02*
X65051Y54562D01*
X64856Y54562D01*
X64661Y54367D01*
X64661Y53977D01*
X64856Y53782D01*
X64661Y54952D02*
X65441Y54952D01*
X65830Y55341D01*
X65441Y55731D01*
X64661Y55731D01*
X64856Y56121D02*
X64661Y56316D01*
X64661Y56706D01*
X64856Y56901D01*
X65051Y56901D01*
X65246Y56706D01*
X65441Y56901D01*
X65636Y56901D01*
X65830Y56706D01*
X65830Y56316D01*
X65636Y56121D01*
X65246Y56511D02*
X65246Y56706D01*
X67187Y52699D02*
X66992Y52504D01*
X66992Y51920D01*
X67382Y51920D01*
X67577Y52114D01*
X67577Y52504D01*
X67382Y52699D01*
X67187Y52699D01*
X67577Y51530D02*
X67577Y50750D01*
X66602Y50360D02*
X66407Y50165D01*
X66407Y49581D01*
X67577Y49581D01*
X65830Y50274D02*
X64661Y50274D01*
X64661Y51054D01*
X65246Y50664D02*
X65246Y50274D01*
X74540Y39058D02*
X74345Y38863D01*
X74345Y38278D01*
X75514Y38278D01*
X75514Y37889D02*
X74345Y37889D01*
X74345Y37109D02*
X75514Y37109D01*
X75124Y37499D01*
X75514Y37889D01*
X75124Y38278D02*
X75124Y38863D01*
X74930Y39058D01*
X74540Y39058D01*
X75124Y38668D02*
X75514Y39058D01*
X74930Y36719D02*
X75124Y36524D01*
X75124Y35940D01*
X75514Y35940D02*
X74345Y35940D01*
X74345Y36524D01*
X74540Y36719D01*
X74930Y36719D01*
X48209Y49782D02*
X47040Y50562D01*
X47430Y50951D02*
X47040Y51341D01*
X48209Y51341D01*
X48209Y50951D02*
X48209Y51731D01*
X48209Y50562D02*
X47040Y49782D01*
D482*
X47625Y45720D02*
X46355Y45720D01*
X45720Y45085D01*
X45085Y45720D01*
X43815Y45720D01*
X43180Y45085D01*
X43180Y43815D01*
X43815Y43180D01*
X45085Y43180D01*
X45720Y43815D01*
X45720Y45085D01*
X45720Y43815D02*
X46355Y43180D01*
X47625Y43180D01*
X48260Y43815D01*
X48260Y45085D01*
X47625Y45720D01*
X50800Y46355D02*
X51435Y45720D01*
X52705Y45720D01*
X53340Y46355D01*
X53975Y45720D01*
X55245Y45720D01*
X55880Y46355D01*
X55880Y47625D01*
X55245Y48260D01*
X53975Y48260D01*
X53340Y47625D01*
X53340Y46355D01*
X53340Y47625D02*
X52705Y48260D01*
X51435Y48260D01*
X50800Y47625D01*
X50800Y46355D01*
X55880Y41783D02*
X55880Y41529D01*
X57023Y41529D01*
X57023Y40894D01*
X54737Y40894D01*
X54737Y41529D01*
X55880Y41529D01*
X50800Y40640D02*
X50802Y40782D01*
X50808Y40925D01*
X50818Y41067D01*
X50832Y41209D01*
X50850Y41350D01*
X50872Y41491D01*
X50898Y41631D01*
X50927Y41770D01*
X50961Y41909D01*
X50999Y42046D01*
X51040Y42183D01*
X51085Y42318D01*
X51134Y42452D01*
X51187Y42584D01*
X51243Y42715D01*
X51303Y42844D01*
X51367Y42972D01*
X51434Y43097D01*
X51505Y43221D01*
X51579Y43343D01*
X51656Y43462D01*
X51737Y43580D01*
X51821Y43695D01*
X51908Y43807D01*
X51999Y43917D01*
X52092Y44025D01*
X52189Y44130D01*
X52288Y44232D01*
X52390Y44331D01*
X52495Y44428D01*
X52603Y44521D01*
X52713Y44612D01*
X52825Y44699D01*
X52940Y44783D01*
X53058Y44864D01*
X53177Y44941D01*
X53299Y45015D01*
X53423Y45086D01*
X53548Y45153D01*
X53676Y45217D01*
X53805Y45277D01*
X53936Y45333D01*
X54068Y45386D01*
X54202Y45435D01*
X54337Y45480D01*
X54474Y45521D01*
X54611Y45559D01*
X54750Y45593D01*
X54889Y45622D01*
X55029Y45648D01*
X55170Y45670D01*
X55311Y45688D01*
X55453Y45702D01*
X55595Y45712D01*
X55738Y45718D01*
X55880Y45720D01*
X56022Y45718D01*
X56165Y45712D01*
X56307Y45702D01*
X56449Y45688D01*
X56590Y45670D01*
X56731Y45648D01*
X56871Y45622D01*
X57010Y45593D01*
X57149Y45559D01*
X57286Y45521D01*
X57423Y45480D01*
X57558Y45435D01*
X57692Y45386D01*
X57824Y45333D01*
X57955Y45277D01*
X58084Y45217D01*
X58212Y45153D01*
X58337Y45086D01*
X58461Y45015D01*
X58583Y44941D01*
X58702Y44864D01*
X58820Y44783D01*
X58935Y44699D01*
X59047Y44612D01*
X59157Y44521D01*
X59265Y44428D01*
X59370Y44331D01*
X59472Y44232D01*
X59571Y44130D01*
X59668Y44025D01*
X59761Y43917D01*
X59852Y43807D01*
X59939Y43695D01*
X60023Y43580D01*
X60104Y43462D01*
X60181Y43343D01*
X60255Y43221D01*
X60326Y43097D01*
X60393Y42972D01*
X60457Y42844D01*
X60517Y42715D01*
X60573Y42584D01*
X60626Y42452D01*
X60675Y42318D01*
X60720Y42183D01*
X60761Y42046D01*
X60799Y41909D01*
X60833Y41770D01*
X60862Y41631D01*
X60888Y41491D01*
X60910Y41350D01*
X60928Y41209D01*
X60942Y41067D01*
X60952Y40925D01*
X60958Y40782D01*
X60960Y40640D01*
X60958Y40498D01*
X60952Y40355D01*
X60942Y40213D01*
X60928Y40071D01*
X60910Y39930D01*
X60888Y39789D01*
X60862Y39649D01*
X60833Y39510D01*
X60799Y39371D01*
X60761Y39234D01*
X60720Y39097D01*
X60675Y38962D01*
X60626Y38828D01*
X60573Y38696D01*
X60517Y38565D01*
X60457Y38436D01*
X60393Y38308D01*
X60326Y38183D01*
X60255Y38059D01*
X60181Y37937D01*
X60104Y37818D01*
X60023Y37700D01*
X59939Y37585D01*
X59852Y37473D01*
X59761Y37363D01*
X59668Y37255D01*
X59571Y37150D01*
X59472Y37048D01*
X59370Y36949D01*
X59265Y36852D01*
X59157Y36759D01*
X59047Y36668D01*
X58935Y36581D01*
X58820Y36497D01*
X58702Y36416D01*
X58583Y36339D01*
X58461Y36265D01*
X58337Y36194D01*
X58212Y36127D01*
X58084Y36063D01*
X57955Y36003D01*
X57824Y35947D01*
X57692Y35894D01*
X57558Y35845D01*
X57423Y35800D01*
X57286Y35759D01*
X57149Y35721D01*
X57010Y35687D01*
X56871Y35658D01*
X56731Y35632D01*
X56590Y35610D01*
X56449Y35592D01*
X56307Y35578D01*
X56165Y35568D01*
X56022Y35562D01*
X55880Y35560D01*
X55738Y35562D01*
X55595Y35568D01*
X55453Y35578D01*
X55311Y35592D01*
X55170Y35610D01*
X55029Y35632D01*
X54889Y35658D01*
X54750Y35687D01*
X54611Y35721D01*
X54474Y35759D01*
X54337Y35800D01*
X54202Y35845D01*
X54068Y35894D01*
X53936Y35947D01*
X53805Y36003D01*
X53676Y36063D01*
X53548Y36127D01*
X53423Y36194D01*
X53299Y36265D01*
X53177Y36339D01*
X53058Y36416D01*
X52940Y36497D01*
X52825Y36581D01*
X52713Y36668D01*
X52603Y36759D01*
X52495Y36852D01*
X52390Y36949D01*
X52288Y37048D01*
X52189Y37150D01*
X52092Y37255D01*
X51999Y37363D01*
X51908Y37473D01*
X51821Y37585D01*
X51737Y37700D01*
X51656Y37818D01*
X51579Y37937D01*
X51505Y38059D01*
X51434Y38183D01*
X51367Y38308D01*
X51303Y38436D01*
X51243Y38565D01*
X51187Y38696D01*
X51134Y38828D01*
X51085Y38962D01*
X51040Y39097D01*
X50999Y39234D01*
X50961Y39371D01*
X50927Y39510D01*
X50898Y39649D01*
X50872Y39789D01*
X50850Y39930D01*
X50832Y40071D01*
X50818Y40213D01*
X50808Y40355D01*
X50802Y40498D01*
X50800Y40640D01*
X50165Y38100D02*
X48895Y38100D01*
X48260Y37465D01*
X48260Y36195D01*
X47625Y35560D01*
X48260Y34925D01*
X48895Y35560D01*
X50165Y35560D01*
X50800Y34925D01*
X50800Y33655D01*
X50165Y33020D01*
X48895Y33020D01*
X48260Y33655D01*
X48260Y34925D01*
X48260Y33655D01*
X47625Y33020D01*
X48260Y32385D01*
X48895Y33020D01*
X50165Y33020D01*
X50800Y32385D01*
X50800Y31115D01*
X50165Y30480D01*
X48895Y30480D01*
X48260Y31115D01*
X48260Y32385D01*
X48260Y31115D01*
X47625Y30480D01*
X46355Y30480D01*
X45720Y31115D01*
X45720Y32385D01*
X46355Y33020D01*
X47625Y33020D01*
X46355Y33020D01*
X45720Y33655D01*
X45720Y34925D01*
X46355Y35560D01*
X47625Y35560D01*
X46355Y35560D01*
X45720Y36195D01*
X45720Y37465D01*
X46355Y38100D01*
X47625Y38100D01*
X48260Y37465D01*
X48260Y36195D01*
X48895Y35560D01*
X50165Y35560D01*
X50800Y36195D01*
X50800Y37465D01*
X50165Y38100D01*
X51435Y35560D02*
X52705Y35560D01*
X53340Y34925D01*
X53340Y33655D01*
X52705Y33020D01*
X53340Y32385D01*
X53340Y31115D01*
X52705Y30480D01*
X51435Y30480D01*
X50800Y31115D01*
X50800Y32385D01*
X51435Y33020D01*
X50800Y33655D01*
X50800Y34925D01*
X51435Y35560D01*
X51435Y33020D02*
X52705Y33020D01*
X50165Y30480D02*
X48895Y30480D01*
X48260Y29845D01*
X47625Y30480D01*
X46355Y30480D01*
X45720Y29845D01*
X45720Y28575D01*
X46355Y27940D01*
X47625Y27940D01*
X48260Y28575D01*
X48260Y29845D01*
X48260Y28575D02*
X48895Y27940D01*
X50165Y27940D01*
X50800Y28575D01*
X50800Y29845D01*
X50165Y30480D01*
X45720Y29845D02*
X45085Y30480D01*
X45720Y31115D01*
X45720Y32385D01*
X45085Y33020D01*
X43815Y33020D01*
X43180Y32385D01*
X43180Y31115D01*
X43815Y30480D01*
X45085Y30480D01*
X43815Y30480D01*
X43180Y29845D01*
X42545Y30480D01*
X43180Y31115D01*
X43180Y32385D01*
X42545Y33020D01*
X41275Y33020D01*
X40640Y32385D01*
X40640Y31115D01*
X40005Y30480D01*
X38735Y30480D01*
X38100Y31115D01*
X38100Y32385D01*
X38735Y33020D01*
X40005Y33020D01*
X40640Y32385D01*
X40640Y31115D01*
X41275Y30480D01*
X42545Y30480D01*
X41275Y30480D01*
X40640Y29845D01*
X40005Y30480D01*
X38735Y30480D01*
X38100Y29845D01*
X38100Y28575D01*
X38735Y27940D01*
X40005Y27940D01*
X40640Y28575D01*
X40640Y29845D01*
X40640Y28575D02*
X41275Y27940D01*
X42545Y27940D01*
X43180Y28575D01*
X43180Y29845D01*
X43180Y28575D02*
X43815Y27940D01*
X45085Y27940D01*
X45720Y28575D01*
X38100Y28575D02*
X37465Y27940D01*
X36195Y27940D01*
X35560Y28575D01*
X34925Y27940D01*
X33655Y27940D01*
X33020Y28575D01*
X32385Y27940D01*
X31115Y27940D01*
X30480Y28575D01*
X30480Y29845D01*
X31115Y30480D01*
X30480Y31115D01*
X30480Y32385D01*
X31115Y33020D01*
X32385Y33020D01*
X33020Y32385D01*
X33020Y31115D01*
X32385Y30480D01*
X31115Y30480D01*
X32385Y30480D01*
X33020Y29845D01*
X33655Y30480D01*
X33020Y31115D01*
X33020Y32385D01*
X33655Y33020D01*
X33020Y33655D01*
X33020Y34925D01*
X33655Y35560D01*
X34925Y35560D01*
X35560Y36195D01*
X36195Y35560D01*
X37465Y35560D01*
X38100Y36195D01*
X38100Y37465D01*
X37465Y38100D01*
X36195Y38100D01*
X35560Y37465D01*
X35560Y36195D01*
X35560Y37465D01*
X34925Y38100D01*
X33655Y38100D01*
X33020Y37465D01*
X33020Y36195D01*
X32385Y35560D01*
X28575Y35560D01*
X27940Y36195D01*
X27940Y37465D01*
X28575Y38100D01*
X32385Y38100D01*
X33020Y37465D01*
X33020Y36195D01*
X33655Y35560D01*
X34925Y35560D01*
X35560Y34925D01*
X35560Y33655D01*
X34925Y33020D01*
X33655Y33020D01*
X34925Y33020D01*
X35560Y32385D01*
X35560Y31115D01*
X34925Y30480D01*
X33655Y30480D01*
X34925Y30480D01*
X35560Y29845D01*
X36195Y30480D01*
X35560Y31115D01*
X35560Y32385D01*
X36195Y33020D01*
X37465Y33020D01*
X38100Y32385D01*
X38100Y31115D01*
X37465Y30480D01*
X36195Y30480D01*
X37465Y30480D01*
X38100Y29845D01*
X35560Y29845D02*
X35560Y28575D01*
X33020Y28575D02*
X33020Y29845D01*
X32385Y33020D02*
X31115Y33020D01*
X30480Y33655D01*
X30480Y34925D01*
X31115Y35560D01*
X32385Y35560D01*
X33020Y34925D01*
X33020Y33655D01*
X32385Y33020D01*
X35560Y33655D02*
X36195Y33020D01*
X37465Y33020D01*
X38100Y33655D01*
X38100Y34925D01*
X37465Y35560D01*
X36195Y35560D01*
X35560Y34925D01*
X35560Y33655D01*
X34925Y38100D02*
X33655Y38100D01*
X33020Y38735D01*
X32385Y38100D01*
X33020Y38735D02*
X33020Y40005D01*
X32385Y40640D01*
X28575Y40640D01*
X27940Y40005D01*
X27940Y38735D01*
X28575Y38100D01*
X27940Y38735D02*
X27940Y42545D01*
X27940Y41275D01*
X28575Y40640D01*
X27940Y42545D02*
X28575Y43180D01*
X32385Y43180D01*
X33020Y42545D01*
X33020Y41275D01*
X32385Y40640D01*
X33020Y40005D02*
X33655Y40640D01*
X33020Y41275D01*
X33020Y42545D01*
X33655Y43180D01*
X34925Y43180D01*
X35560Y42545D01*
X36195Y43180D01*
X35560Y43815D01*
X35560Y45085D01*
X36195Y45720D01*
X37465Y45720D01*
X38100Y45085D01*
X38735Y45720D01*
X40005Y45720D01*
X40640Y45085D01*
X41275Y45720D01*
X42545Y45720D01*
X43180Y45085D01*
X43180Y43815D02*
X42545Y43180D01*
X41275Y43180D01*
X40640Y43815D01*
X40005Y43180D01*
X38735Y43180D01*
X38100Y43815D01*
X37465Y43180D01*
X36195Y43180D01*
X37465Y43180D01*
X38100Y42545D01*
X38100Y41275D01*
X37465Y40640D01*
X36195Y40640D01*
X35560Y41275D01*
X35560Y42545D01*
X35560Y41275D01*
X34925Y40640D01*
X33655Y40640D01*
X34925Y40640D01*
X35560Y40005D01*
X35560Y38735D01*
X34925Y38100D01*
X35560Y38735D02*
X36195Y38100D01*
X37465Y38100D01*
X38100Y38735D01*
X38100Y40005D01*
X37465Y40640D01*
X36195Y40640D01*
X35560Y40005D01*
X35560Y38735D01*
X33020Y38735D02*
X33020Y40005D01*
X27940Y38735D02*
X27305Y38100D01*
X26035Y38100D01*
X25400Y38735D01*
X25400Y42545D01*
X26035Y43180D01*
X27305Y43180D01*
X27940Y42545D01*
X25400Y42545D02*
X24765Y43180D01*
X23495Y43180D01*
X22860Y42545D01*
X22860Y38735D01*
X23495Y38100D01*
X24765Y38100D01*
X25400Y38735D01*
X24765Y36830D02*
X26035Y36830D01*
X26670Y36195D01*
X26670Y34925D01*
X26035Y34290D01*
X26670Y33655D01*
X26670Y32385D01*
X26035Y31750D01*
X26670Y31115D01*
X26670Y29845D01*
X26035Y29210D01*
X26670Y28575D01*
X26670Y27305D01*
X26035Y26670D01*
X26670Y26035D01*
X26670Y24765D01*
X26035Y24130D01*
X26670Y23495D01*
X26670Y22225D01*
X26035Y21590D01*
X26670Y20955D01*
X26670Y19685D01*
X26035Y19050D01*
X26670Y18415D01*
X26670Y17145D01*
X26035Y16510D01*
X26670Y15875D01*
X26670Y14605D01*
X26035Y13970D01*
X26670Y13335D01*
X26670Y12065D01*
X26035Y11430D01*
X26670Y10795D01*
X26670Y09525D01*
X26035Y08890D01*
X26670Y08255D01*
X26670Y06985D01*
X26035Y06350D01*
X26670Y05715D01*
X26670Y04445D01*
X26035Y03810D01*
X26670Y03175D01*
X26670Y01905D01*
X26035Y01270D01*
X24765Y01270D01*
X24130Y01905D01*
X24130Y03175D01*
X24765Y03810D01*
X24130Y04445D01*
X24130Y05715D01*
X24765Y06350D01*
X26035Y06350D01*
X24765Y06350D02*
X24130Y06985D01*
X24130Y08255D01*
X24765Y08890D01*
X24130Y09525D01*
X24130Y10795D01*
X24765Y11430D01*
X24130Y12065D01*
X24130Y13335D01*
X24765Y13970D01*
X26035Y13970D01*
X24765Y13970D02*
X24130Y14605D01*
X24130Y15875D01*
X24765Y16510D01*
X24130Y17145D01*
X24130Y18415D01*
X24765Y19050D01*
X24130Y19685D01*
X24130Y20955D01*
X24765Y21590D01*
X26035Y21590D01*
X24765Y21590D02*
X24130Y22225D01*
X24130Y23495D01*
X24765Y24130D01*
X24130Y24765D01*
X24130Y26035D01*
X24765Y26670D01*
X24130Y27305D01*
X24130Y28575D01*
X24765Y29210D01*
X26035Y29210D01*
X24765Y29210D02*
X24130Y29845D01*
X24130Y31115D01*
X24765Y31750D01*
X24130Y32385D01*
X24130Y33655D01*
X24765Y34290D01*
X24130Y34925D01*
X24130Y36195D01*
X24765Y36830D01*
X22860Y38735D02*
X22225Y38100D01*
X20955Y38100D01*
X20320Y38735D01*
X20320Y42545D01*
X20955Y43180D01*
X22225Y43180D01*
X22860Y42545D01*
X15240Y42545D02*
X15240Y46355D01*
X14605Y46990D01*
X13335Y46990D01*
X12700Y46355D01*
X12700Y42545D01*
X13335Y41910D01*
X14605Y41910D01*
X15240Y42545D01*
X14605Y41910D02*
X15240Y41275D01*
X15240Y37465D01*
X14605Y36830D01*
X13335Y36830D01*
X12700Y37465D01*
X12700Y41275D01*
X13335Y41910D01*
X14605Y41910D01*
X12700Y41275D02*
X12065Y41910D01*
X10795Y41910D01*
X10160Y42545D01*
X10160Y46355D01*
X10795Y46990D01*
X12065Y46990D01*
X12700Y46355D01*
X10160Y46355D02*
X09525Y46990D01*
X08255Y46990D01*
X07620Y46355D01*
X07620Y42545D01*
X08255Y41910D01*
X09525Y41910D01*
X10160Y42545D01*
X10795Y41910D02*
X12065Y41910D01*
X12700Y42545D01*
X10795Y41910D02*
X10160Y41275D01*
X10160Y37465D01*
X10795Y36830D01*
X12065Y36830D01*
X12700Y37465D01*
X10795Y36830D02*
X10160Y36195D01*
X10160Y34925D01*
X09525Y34290D01*
X05715Y34290D01*
X05080Y34925D01*
X04445Y34290D01*
X00635Y34290D01*
X00000Y33655D01*
X00000Y32385D01*
X00635Y31750D01*
X04445Y31750D01*
X05080Y31115D01*
X05080Y29845D01*
X04445Y29210D01*
X00635Y29210D01*
X00000Y28575D01*
X00000Y27305D01*
X00635Y26670D01*
X04445Y26670D01*
X05080Y26035D01*
X05080Y24765D01*
X04445Y24130D01*
X00635Y24130D01*
X00000Y23495D01*
X00000Y22225D01*
X00635Y21590D01*
X04445Y21590D01*
X05080Y20955D01*
X05080Y19685D01*
X04445Y19050D01*
X00635Y19050D01*
X00000Y19685D01*
X00000Y20955D01*
X00635Y21590D01*
X00635Y24130D02*
X00000Y24765D01*
X00000Y26035D01*
X00635Y26670D01*
X00635Y29210D02*
X00000Y29845D01*
X00000Y31115D01*
X00635Y31750D01*
X00635Y34290D02*
X00000Y34925D01*
X00000Y36195D01*
X00635Y36830D01*
X01905Y36830D01*
X02540Y37465D01*
X02540Y41275D01*
X03175Y41910D01*
X04445Y41910D01*
X05080Y42545D01*
X05080Y46355D01*
X05715Y46990D01*
X06985Y46990D01*
X07620Y46355D01*
X05080Y46355D02*
X04445Y46990D01*
X03175Y46990D01*
X02540Y46355D01*
X02540Y42545D01*
X03175Y41910D01*
X04445Y41910D01*
X05080Y41275D01*
X05080Y37465D01*
X05715Y36830D01*
X06985Y36830D01*
X07620Y37465D01*
X07620Y41275D01*
X08255Y41910D01*
X09525Y41910D01*
X10160Y41275D01*
X07620Y41275D02*
X06985Y41910D01*
X05715Y41910D01*
X05080Y42545D01*
X05715Y41910D02*
X05080Y41275D01*
X05715Y41910D02*
X06985Y41910D01*
X07620Y42545D01*
X02540Y42545D02*
X01905Y41910D01*
X00635Y41910D01*
X00000Y42545D01*
X00000Y46355D01*
X00635Y46990D01*
X01905Y46990D01*
X02540Y46355D01*
X01905Y41910D02*
X00635Y41910D01*
X00000Y41275D01*
X00000Y37465D01*
X00635Y36830D01*
X04445Y36830D01*
X03175Y36830D01*
X02540Y37465D01*
X04445Y36830D02*
X05080Y37465D01*
X04445Y36830D02*
X05080Y36195D01*
X05080Y34925D01*
X05080Y36195D01*
X05715Y36830D01*
X09525Y36830D01*
X08255Y36830D01*
X07620Y37465D01*
X09525Y36830D02*
X10160Y37465D01*
X10795Y36830D02*
X14605Y36830D01*
X15240Y36195D01*
X15240Y34925D01*
X14605Y34290D01*
X10795Y34290D01*
X10160Y34925D01*
X10160Y36195D01*
X09525Y36830D01*
X09525Y34290D02*
X10160Y33655D01*
X10160Y32385D01*
X09525Y31750D01*
X05715Y31750D01*
X05080Y32385D01*
X04445Y31750D01*
X05080Y31115D02*
X05715Y31750D01*
X05080Y31115D02*
X05080Y29845D01*
X05715Y29210D01*
X09525Y29210D01*
X10160Y28575D01*
X10160Y27305D01*
X09525Y26670D01*
X05715Y26670D01*
X05080Y27305D01*
X04445Y26670D01*
X05080Y26035D02*
X05715Y26670D01*
X05080Y26035D02*
X05080Y24765D01*
X05715Y24130D01*
X09525Y24130D01*
X10160Y23495D01*
X10160Y22225D01*
X09525Y21590D01*
X05715Y21590D01*
X05080Y22225D01*
X04445Y21590D01*
X05080Y20955D02*
X05715Y21590D01*
X05080Y20955D02*
X05080Y19685D01*
X05715Y19050D01*
X09525Y19050D01*
X10160Y18415D01*
X10160Y17145D01*
X09525Y16510D01*
X05715Y16510D01*
X05080Y17145D01*
X04445Y16510D01*
X00635Y16510D01*
X00000Y17145D01*
X00000Y18415D01*
X00635Y19050D01*
X00635Y16510D02*
X00000Y15875D01*
X00000Y14605D01*
X00635Y13970D01*
X04445Y13970D01*
X05080Y13335D01*
X05080Y12065D01*
X04445Y11430D01*
X00635Y11430D01*
X00000Y12065D01*
X00000Y13335D01*
X00635Y13970D01*
X00635Y11430D02*
X00000Y10795D01*
X00000Y09525D01*
X00635Y08890D01*
X04445Y08890D01*
X05080Y08255D01*
X05080Y06985D01*
X04445Y06350D01*
X00635Y06350D01*
X00000Y06985D01*
X00000Y08255D01*
X00635Y08890D01*
X00635Y06350D02*
X00000Y05715D01*
X00000Y04445D01*
X00635Y03810D01*
X00000Y03175D01*
X00000Y01905D01*
X00635Y01270D01*
X04445Y01270D01*
X05080Y01905D01*
X05080Y03175D01*
X04445Y03810D01*
X00635Y03810D01*
X04445Y03810D02*
X05080Y04445D01*
X05080Y05715D01*
X04445Y06350D01*
X05080Y05715D02*
X05715Y06350D01*
X09525Y06350D01*
X10160Y06985D01*
X10160Y08255D01*
X09525Y08890D01*
X05715Y08890D01*
X05080Y09525D01*
X04445Y08890D01*
X05080Y08255D02*
X05080Y06985D01*
X05715Y06350D01*
X05080Y05715D02*
X05080Y04445D01*
X05715Y03810D01*
X09525Y03810D01*
X10160Y04445D01*
X10160Y05715D01*
X09525Y06350D01*
X10160Y05715D02*
X10795Y06350D01*
X14605Y06350D01*
X15240Y06985D01*
X15240Y08255D01*
X14605Y08890D01*
X10795Y08890D01*
X10160Y09525D01*
X10160Y10795D01*
X09525Y11430D01*
X05715Y11430D01*
X05080Y12065D01*
X05080Y13335D01*
X05715Y13970D01*
X09525Y13970D01*
X10160Y14605D01*
X10160Y15875D01*
X09525Y16510D01*
X10160Y15875D02*
X10795Y16510D01*
X14605Y16510D01*
X15240Y17145D01*
X15240Y18415D01*
X14605Y19050D01*
X10795Y19050D01*
X10160Y19685D01*
X09525Y19050D01*
X10160Y18415D02*
X10160Y17145D01*
X10795Y16510D01*
X10160Y15875D02*
X10160Y14605D01*
X10795Y13970D01*
X14605Y13970D01*
X15240Y14605D01*
X15240Y15875D01*
X14605Y16510D01*
X14605Y19050D02*
X15240Y19685D01*
X15240Y20955D01*
X14605Y21590D01*
X10795Y21590D01*
X10160Y22225D01*
X10160Y23495D01*
X10795Y24130D01*
X14605Y24130D01*
X15240Y23495D01*
X15240Y22225D01*
X14605Y21590D01*
X14605Y24130D02*
X15240Y24765D01*
X15240Y26035D01*
X14605Y26670D01*
X10795Y26670D01*
X10160Y27305D01*
X10160Y28575D01*
X10795Y29210D01*
X14605Y29210D01*
X15240Y28575D01*
X15240Y27305D01*
X14605Y26670D01*
X14605Y29210D02*
X15240Y29845D01*
X15240Y31115D01*
X14605Y31750D01*
X10795Y31750D01*
X10160Y32385D01*
X10160Y33655D01*
X10795Y34290D01*
X10795Y31750D02*
X10160Y31115D01*
X10160Y29845D01*
X09525Y29210D01*
X10160Y29845D02*
X10160Y31115D01*
X09525Y31750D01*
X10160Y29845D02*
X10795Y29210D01*
X10795Y26670D02*
X10160Y26035D01*
X10160Y24765D01*
X09525Y24130D01*
X10160Y24765D02*
X10160Y26035D01*
X09525Y26670D01*
X10160Y24765D02*
X10795Y24130D01*
X10795Y21590D02*
X10160Y20955D01*
X10160Y19685D01*
X10160Y20955D01*
X09525Y21590D01*
X10795Y19050D02*
X10160Y18415D01*
X05715Y19050D02*
X05080Y18415D01*
X05080Y17145D01*
X05080Y18415D01*
X04445Y19050D01*
X04445Y16510D02*
X05080Y15875D01*
X05080Y14605D01*
X04445Y13970D01*
X05080Y14605D02*
X05080Y15875D01*
X05715Y16510D01*
X05080Y14605D02*
X05715Y13970D01*
X05715Y11430D02*
X05080Y10795D01*
X05080Y09525D01*
X05080Y10795D01*
X04445Y11430D01*
X05715Y08890D02*
X05080Y08255D01*
X09525Y08890D02*
X10160Y09525D01*
X10160Y10795D01*
X10795Y11430D01*
X14605Y11430D01*
X15240Y12065D01*
X15240Y13335D01*
X14605Y13970D01*
X14605Y11430D02*
X15240Y10795D01*
X15240Y09525D01*
X14605Y08890D01*
X14605Y06350D02*
X15240Y05715D01*
X15240Y04445D01*
X14605Y03810D01*
X10795Y03810D01*
X10160Y04445D01*
X10160Y05715D01*
X10795Y06350D02*
X10160Y06985D01*
X10160Y08255D01*
X10795Y08890D01*
X10795Y11430D02*
X10160Y12065D01*
X10160Y13335D01*
X09525Y13970D01*
X10160Y13335D02*
X10160Y12065D01*
X09525Y11430D01*
X10160Y13335D02*
X10795Y13970D01*
X05080Y22225D02*
X05080Y23495D01*
X04445Y24130D01*
X05080Y23495D02*
X05080Y22225D01*
X05080Y23495D02*
X05715Y24130D01*
X05080Y27305D02*
X05080Y28575D01*
X04445Y29210D01*
X05080Y28575D02*
X05080Y27305D01*
X05080Y28575D02*
X05715Y29210D01*
X05080Y32385D02*
X05080Y33655D01*
X04445Y34290D01*
X05080Y33655D02*
X05715Y34290D01*
X05080Y33655D02*
X05080Y32385D01*
X02540Y41275D02*
X01905Y41910D01*
X14605Y34290D02*
X15240Y33655D01*
X15240Y32385D01*
X14605Y31750D01*
X20803Y32201D02*
X21592Y32201D01*
X20803Y32201D02*
X20803Y33047D01*
X22883Y32201D02*
X23647Y32201D01*
X23647Y33047D01*
X24765Y34290D02*
X26035Y34290D01*
X26035Y31750D02*
X24765Y31750D01*
X24765Y26670D02*
X26035Y26670D01*
X26035Y24130D02*
X24765Y24130D01*
X24765Y19050D02*
X26035Y19050D01*
X26035Y16510D02*
X24765Y16510D01*
X24765Y11430D02*
X26035Y11430D01*
X26035Y08890D02*
X24765Y08890D01*
X24765Y03810D02*
X26035Y03810D01*
X15240Y03175D02*
X15240Y01905D01*
X14605Y01270D01*
X10795Y01270D01*
X10160Y01905D01*
X10160Y03175D01*
X09525Y03810D01*
X10160Y03175D02*
X10160Y01905D01*
X09525Y01270D01*
X05715Y01270D01*
X05080Y01905D01*
X05080Y03175D01*
X05715Y03810D01*
X10160Y03175D02*
X10795Y03810D01*
X14605Y03810D02*
X15240Y03175D01*
X55880Y39497D02*
X55880Y40005D01*
X57150Y44069D02*
X57150Y44831D01*
X57531Y44450D02*
X56769Y44450D01*
X60960Y41275D02*
X60960Y40005D01*
X61595Y39370D01*
X62865Y39370D01*
X63500Y40005D01*
X63500Y41275D01*
X62865Y41910D01*
X61595Y41910D01*
X60960Y41275D01*
X61595Y39370D02*
X60960Y38735D01*
X60960Y37465D01*
X61595Y36830D01*
X62865Y36830D01*
X63500Y37465D01*
X63500Y38735D01*
X62865Y39370D01*
X59055Y34290D02*
X57785Y34290D01*
X57150Y33655D01*
X57150Y32385D01*
X57785Y31750D01*
X59055Y31750D01*
X59690Y32385D01*
X59690Y33655D01*
X59055Y34290D01*
X59055Y31750D02*
X59690Y31115D01*
X59690Y29845D01*
X59055Y29210D01*
X59690Y28575D01*
X59690Y27305D01*
X59055Y26670D01*
X59690Y26035D01*
X59690Y24765D01*
X59055Y24130D01*
X59690Y23495D01*
X59690Y22225D01*
X59055Y21590D01*
X59690Y20955D01*
X59690Y19685D01*
X59055Y19050D01*
X59690Y18415D01*
X59690Y17145D01*
X59055Y16510D01*
X59690Y15875D01*
X59690Y14605D01*
X59055Y13970D01*
X59690Y13335D01*
X59690Y12065D01*
X59055Y11430D01*
X59690Y10795D01*
X59690Y09525D01*
X59055Y08890D01*
X59690Y08255D01*
X59690Y06985D01*
X59055Y06350D01*
X59690Y05715D01*
X59690Y04445D01*
X59055Y03810D01*
X57785Y03810D01*
X57150Y04445D01*
X57150Y05715D01*
X57785Y06350D01*
X57150Y06985D01*
X57150Y08255D01*
X57785Y08890D01*
X59055Y08890D01*
X57785Y08890D02*
X57150Y09525D01*
X57150Y10795D01*
X57785Y11430D01*
X57150Y12065D01*
X57150Y13335D01*
X57785Y13970D01*
X57150Y14605D01*
X57150Y15875D01*
X57785Y16510D01*
X59055Y16510D01*
X57785Y16510D02*
X57150Y17145D01*
X57150Y18415D01*
X57785Y19050D01*
X57150Y19685D01*
X57150Y20955D01*
X57785Y21590D01*
X57150Y22225D01*
X57150Y23495D01*
X57785Y24130D01*
X59055Y24130D01*
X57785Y24130D02*
X57150Y24765D01*
X57150Y26035D01*
X57785Y26670D01*
X57150Y27305D01*
X57150Y28575D01*
X57785Y29210D01*
X57150Y29845D01*
X57150Y31115D01*
X57785Y31750D01*
X57785Y29210D02*
X59055Y29210D01*
X59055Y26670D02*
X57785Y26670D01*
X57785Y21590D02*
X59055Y21590D01*
X59055Y19050D02*
X57785Y19050D01*
X57785Y13970D02*
X59055Y13970D01*
X59055Y11430D02*
X57785Y11430D01*
X57785Y06350D02*
X59055Y06350D01*
X68580Y05715D02*
X68580Y04445D01*
X69215Y03810D01*
X70485Y03810D01*
X71120Y03175D01*
X71755Y03810D01*
X73025Y03810D01*
X73660Y03175D01*
X73660Y01905D01*
X73025Y01270D01*
X71755Y01270D01*
X71120Y01905D01*
X70485Y01270D01*
X69215Y01270D01*
X68580Y01905D01*
X68580Y03175D01*
X69215Y03810D01*
X73025Y03810D01*
X73660Y04445D01*
X73660Y05715D01*
X74295Y06350D01*
X78105Y06350D01*
X78740Y06985D01*
X78740Y08255D01*
X79375Y08890D01*
X83185Y08890D01*
X83820Y09525D01*
X83820Y10795D01*
X83185Y11430D01*
X79375Y11430D01*
X78740Y12065D01*
X78740Y13335D01*
X79375Y13970D01*
X83185Y13970D01*
X83820Y14605D01*
X83820Y15875D01*
X83185Y16510D01*
X79375Y16510D01*
X78740Y17145D01*
X78740Y18415D01*
X79375Y19050D01*
X83185Y19050D01*
X83820Y19685D01*
X83820Y20955D01*
X83185Y21590D01*
X79375Y21590D01*
X78740Y22225D01*
X78740Y23495D01*
X79375Y24130D01*
X83185Y24130D01*
X83820Y23495D01*
X83820Y22225D01*
X83185Y21590D01*
X83185Y24130D02*
X83820Y24765D01*
X83820Y26035D01*
X83185Y26670D01*
X79375Y26670D01*
X78740Y27305D01*
X78740Y28575D01*
X79375Y29210D01*
X83185Y29210D01*
X83820Y28575D01*
X83820Y27305D01*
X83185Y26670D01*
X83185Y29210D02*
X83820Y29845D01*
X83820Y31115D01*
X83185Y31750D01*
X83820Y32385D01*
X83820Y33655D01*
X83185Y34290D01*
X79375Y34290D01*
X78740Y33655D01*
X78740Y32385D01*
X79375Y31750D01*
X83185Y31750D01*
X79375Y31750D02*
X78740Y31115D01*
X78740Y29845D01*
X79375Y29210D01*
X78740Y28575D02*
X78740Y27305D01*
X78105Y26670D01*
X74295Y26670D01*
X73660Y27305D01*
X73660Y28575D01*
X74295Y29210D01*
X78105Y29210D01*
X78740Y28575D01*
X78105Y29210D02*
X78740Y29845D01*
X78740Y31115D01*
X78105Y31750D01*
X78740Y32385D01*
X78740Y33655D01*
X78105Y34290D01*
X74295Y34290D01*
X73660Y33655D01*
X73660Y32385D01*
X74295Y31750D01*
X78105Y31750D01*
X74295Y31750D02*
X73660Y31115D01*
X73660Y29845D01*
X74295Y29210D01*
X73660Y28575D02*
X73660Y27305D01*
X73025Y26670D01*
X69215Y26670D01*
X68580Y27305D01*
X68580Y28575D01*
X69215Y29210D01*
X73025Y29210D01*
X73660Y28575D01*
X73025Y29210D02*
X73660Y29845D01*
X73660Y31115D01*
X73025Y31750D01*
X73660Y32385D01*
X73660Y33655D01*
X73025Y34290D01*
X69215Y34290D01*
X68580Y33655D01*
X68580Y32385D01*
X69215Y31750D01*
X73025Y31750D01*
X69215Y31750D02*
X68580Y31115D01*
X68580Y29845D01*
X69215Y29210D01*
X69215Y26670D02*
X68580Y26035D01*
X68580Y24765D01*
X69215Y24130D01*
X73025Y24130D01*
X73660Y23495D01*
X74295Y24130D01*
X78105Y24130D01*
X78740Y23495D01*
X78740Y22225D01*
X78105Y21590D01*
X74295Y21590D01*
X73660Y22225D01*
X73660Y23495D01*
X73660Y22225D01*
X73025Y21590D01*
X69215Y21590D01*
X68580Y22225D01*
X68580Y23495D01*
X69215Y24130D01*
X69215Y21590D02*
X68580Y20955D01*
X68580Y19685D01*
X69215Y19050D01*
X73025Y19050D01*
X73660Y19685D01*
X73660Y20955D01*
X74295Y21590D01*
X73660Y20955D02*
X73660Y19685D01*
X74295Y19050D01*
X78105Y19050D01*
X78740Y19685D01*
X78740Y20955D01*
X79375Y21590D01*
X78740Y20955D02*
X78740Y19685D01*
X79375Y19050D01*
X78740Y18415D02*
X78105Y19050D01*
X78740Y18415D02*
X78740Y17145D01*
X78105Y16510D01*
X74295Y16510D01*
X73660Y17145D01*
X73660Y18415D01*
X74295Y19050D01*
X73660Y18415D02*
X73025Y19050D01*
X73660Y18415D02*
X73660Y17145D01*
X73025Y16510D01*
X69215Y16510D01*
X68580Y17145D01*
X68580Y18415D01*
X69215Y19050D01*
X69215Y16510D02*
X68580Y15875D01*
X68580Y14605D01*
X69215Y13970D01*
X73025Y13970D01*
X73660Y14605D01*
X73660Y15875D01*
X74295Y16510D01*
X73660Y15875D02*
X73025Y16510D01*
X73660Y15875D02*
X73660Y14605D01*
X74295Y13970D01*
X78105Y13970D01*
X78740Y14605D01*
X78740Y15875D01*
X79375Y16510D01*
X78740Y15875D02*
X78105Y16510D01*
X78740Y15875D02*
X78740Y14605D01*
X79375Y13970D01*
X78740Y13335D02*
X78105Y13970D01*
X78740Y13335D02*
X78740Y12065D01*
X78105Y11430D01*
X74295Y11430D01*
X73660Y12065D01*
X73660Y13335D01*
X74295Y13970D01*
X73660Y13335D02*
X73025Y13970D01*
X73660Y13335D02*
X73660Y12065D01*
X73025Y11430D01*
X69215Y11430D01*
X68580Y12065D01*
X68580Y13335D01*
X69215Y13970D01*
X69215Y11430D02*
X68580Y10795D01*
X68580Y09525D01*
X69215Y08890D01*
X73025Y08890D01*
X73660Y09525D01*
X73660Y10795D01*
X74295Y11430D01*
X73660Y10795D02*
X73025Y11430D01*
X73660Y10795D02*
X73660Y09525D01*
X74295Y08890D01*
X78105Y08890D01*
X78740Y09525D01*
X78740Y10795D01*
X79375Y11430D01*
X78740Y10795D02*
X78105Y11430D01*
X78740Y10795D02*
X78740Y09525D01*
X79375Y08890D01*
X78740Y08255D02*
X78105Y08890D01*
X78740Y08255D02*
X78740Y06985D01*
X79375Y06350D01*
X83185Y06350D01*
X83820Y06985D01*
X83820Y08255D01*
X83185Y08890D01*
X83185Y06350D02*
X83820Y05715D01*
X83820Y04445D01*
X83185Y03810D01*
X79375Y03810D01*
X78740Y04445D01*
X78740Y05715D01*
X79375Y06350D01*
X78740Y05715D02*
X78105Y06350D01*
X78740Y05715D02*
X78740Y04445D01*
X78105Y03810D01*
X74295Y03810D01*
X73660Y04445D01*
X73660Y05715D01*
X73025Y06350D01*
X69215Y06350D01*
X68580Y06985D01*
X68580Y08255D01*
X69215Y08890D01*
X69215Y06350D02*
X68580Y05715D01*
X71120Y03175D02*
X71120Y01905D01*
X73025Y06350D02*
X73660Y06985D01*
X73660Y08255D01*
X74295Y08890D01*
X73660Y08255D02*
X73025Y08890D01*
X73660Y08255D02*
X73660Y06985D01*
X74295Y06350D01*
X83185Y11430D02*
X83820Y12065D01*
X83820Y13335D01*
X83185Y13970D01*
X83185Y16510D02*
X83820Y17145D01*
X83820Y18415D01*
X83185Y19050D01*
X78740Y20955D02*
X78105Y21590D01*
X78105Y24130D02*
X78740Y24765D01*
X78740Y26035D01*
X79375Y26670D01*
X78740Y26035D02*
X78740Y24765D01*
X79375Y24130D01*
X78740Y26035D02*
X78105Y26670D01*
X74295Y26670D02*
X73660Y26035D01*
X73660Y24765D01*
X74295Y24130D01*
X73660Y24765D02*
X73025Y24130D01*
X73660Y24765D02*
X73660Y26035D01*
X73025Y26670D01*
X73025Y21590D02*
X73660Y20955D01*
X73914Y35560D02*
X70993Y35560D01*
X73914Y35560D02*
X74168Y35814D01*
X74168Y45466D01*
X73914Y45720D01*
X70993Y45720D01*
X71438Y46514D02*
X70168Y46514D01*
X69533Y47149D01*
X69533Y50959D01*
X70168Y51594D01*
X71438Y51594D01*
X72073Y50959D01*
X72073Y47149D01*
X71438Y46514D01*
X72073Y47149D02*
X72708Y46514D01*
X73978Y46514D01*
X74613Y47149D01*
X74613Y50959D01*
X73978Y51594D01*
X72708Y51594D01*
X72073Y50959D01*
X74613Y50959D02*
X75248Y51594D01*
X76518Y51594D01*
X77153Y50959D01*
X77153Y47149D01*
X76518Y46514D01*
X75248Y46514D01*
X74613Y47149D01*
X40640Y45085D02*
X40640Y43815D01*
X38100Y43815D02*
X38100Y45085D01*
D483*
X37910Y47070D02*
X37910Y52070D01*
X37910Y52570D01*
X45910Y52570D01*
X45910Y52070D01*
X45910Y47070D01*
X37910Y47070D01*
X34938Y46847D02*
X34366Y46275D01*
X34556Y46084D02*
X33794Y46847D01*
X33794Y46084D02*
X34938Y46084D01*
X34938Y45678D02*
X34938Y44915D01*
X33794Y44915D01*
X33984Y44508D02*
X33794Y44318D01*
X33794Y43936D01*
X33984Y43746D01*
X34747Y43746D01*
X34938Y43936D01*
X34938Y44318D01*
X34747Y44508D01*
X33794Y43339D02*
X34938Y42576D01*
X34862Y42646D02*
X34862Y42265D01*
X34671Y42074D01*
X33908Y42074D01*
X33718Y42265D01*
X33718Y42646D01*
X33908Y42837D01*
X34671Y42837D01*
X34862Y42646D01*
X34938Y42178D02*
X34938Y41797D01*
X34862Y41676D02*
X34862Y41294D01*
X34938Y41390D02*
X34556Y41009D01*
X34556Y40998D02*
X34556Y40426D01*
X34556Y40627D02*
X34556Y41199D01*
X34366Y41390D01*
X33984Y41390D01*
X33794Y41199D01*
X33794Y40627D01*
X34938Y40627D01*
X34862Y40697D02*
X34671Y40888D01*
X34556Y40807D02*
X34938Y41189D01*
X34862Y41485D02*
X33718Y41485D01*
X33541Y41532D02*
X33541Y38024D01*
X33794Y38087D02*
X33794Y38659D01*
X33984Y38850D01*
X34747Y38850D01*
X34938Y38659D01*
X34938Y38087D01*
X33794Y38087D01*
X33794Y38263D02*
X34938Y38263D01*
X34938Y39026D01*
X34862Y39146D02*
X34862Y39528D01*
X34671Y39718D01*
X34938Y39638D02*
X33794Y39638D01*
X33770Y39676D02*
X33770Y39294D01*
X33579Y39104D01*
X33007Y39104D01*
X33389Y39104D02*
X33770Y38722D01*
X33718Y38549D02*
X34480Y38549D01*
X34862Y38168D01*
X34480Y37786D01*
X33718Y37786D01*
X33794Y38263D02*
X33794Y39026D01*
X33908Y38956D02*
X34671Y38956D01*
X34862Y39146D01*
X34938Y39433D02*
X34938Y40005D01*
X34747Y40195D01*
X33984Y40195D01*
X33794Y40005D01*
X33794Y39433D01*
X34938Y39433D01*
X34939Y39866D02*
X34177Y38722D01*
X34366Y38645D02*
X34366Y38263D01*
X34938Y37857D02*
X34938Y37094D01*
X33794Y37094D01*
X33794Y36687D02*
X34938Y35924D01*
X34938Y35918D02*
X34938Y35537D01*
X34747Y35346D01*
X34938Y35136D02*
X33794Y35136D01*
X33794Y34939D02*
X33794Y34177D01*
X33794Y34348D02*
X34938Y33586D01*
X34938Y33579D02*
X34747Y33770D01*
X34938Y33579D02*
X34938Y33198D01*
X34747Y33007D01*
X33984Y33007D01*
X33794Y33198D01*
X33794Y33579D01*
X33984Y33770D01*
X33984Y33179D02*
X34747Y32416D01*
X34938Y32607D01*
X34938Y32988D01*
X34747Y33179D01*
X33984Y33179D01*
X33794Y32988D01*
X33794Y32607D01*
X33984Y32416D01*
X34747Y32416D01*
X34747Y32010D02*
X33984Y32010D01*
X33794Y31819D01*
X33794Y31438D01*
X33984Y31247D01*
X34747Y31247D01*
X34938Y31438D01*
X34938Y31819D01*
X34747Y32010D01*
X34938Y30849D02*
X34938Y30467D01*
X34938Y30658D02*
X33794Y30658D01*
X33794Y30467D02*
X33794Y30849D01*
X32398Y30849D02*
X32398Y30467D01*
X32398Y30658D02*
X31254Y30658D01*
X31254Y30467D02*
X31254Y30849D01*
X31444Y31247D02*
X31254Y31438D01*
X31254Y31819D01*
X31444Y32010D01*
X32207Y32010D01*
X32398Y31819D01*
X32398Y31438D01*
X32207Y31247D01*
X31444Y31247D01*
X31444Y32416D02*
X31254Y32607D01*
X31254Y32988D01*
X31444Y33179D01*
X31635Y33179D01*
X32398Y32416D01*
X32398Y33179D01*
X32398Y33198D02*
X31254Y33198D01*
X31254Y33007D02*
X31254Y33389D01*
X31444Y33787D02*
X31254Y33978D01*
X31254Y34359D01*
X31444Y34550D01*
X32207Y34550D01*
X32398Y34359D01*
X32398Y33978D01*
X32207Y33787D01*
X31444Y33787D01*
X31254Y34348D02*
X32398Y33586D01*
X32398Y33389D02*
X32398Y33007D01*
X33541Y32944D02*
X33541Y36452D01*
X33984Y36109D02*
X33794Y35918D01*
X33794Y35537D01*
X33984Y35346D01*
X34175Y35346D01*
X34366Y35537D01*
X34366Y35918D01*
X34556Y36109D01*
X34747Y36109D01*
X34938Y35918D01*
X34938Y36687D02*
X33794Y35924D01*
X33794Y35518D02*
X33794Y34755D01*
X33794Y34558D02*
X34938Y34558D01*
X36334Y33179D02*
X36524Y32798D01*
X36906Y32416D01*
X36906Y32988D01*
X37096Y33179D01*
X37287Y33179D01*
X37478Y32988D01*
X37478Y32607D01*
X37287Y32416D01*
X36906Y32416D01*
X37287Y32010D02*
X36524Y32010D01*
X36334Y31819D01*
X36334Y31438D01*
X36524Y31247D01*
X37287Y31247D01*
X37478Y31438D01*
X37478Y31819D01*
X37287Y32010D01*
X37478Y30849D02*
X37478Y30467D01*
X37478Y30658D02*
X36334Y30658D01*
X36334Y30467D02*
X36334Y30849D01*
X38874Y30849D02*
X38874Y30467D01*
X38874Y30658D02*
X40018Y30658D01*
X40018Y30467D02*
X40018Y30849D01*
X39827Y31247D02*
X40018Y31438D01*
X40018Y31819D01*
X39827Y32010D01*
X39064Y32010D01*
X38874Y31819D01*
X38874Y31438D01*
X39064Y31247D01*
X39827Y31247D01*
X40018Y32416D02*
X40018Y33179D01*
X40018Y32798D02*
X38874Y32798D01*
X39255Y32416D01*
X40018Y33586D02*
X38874Y34348D01*
X38874Y34755D02*
X38874Y35327D01*
X39064Y35518D01*
X39446Y35518D01*
X39636Y35327D01*
X39636Y34755D01*
X39636Y35136D02*
X40018Y35518D01*
X40018Y35924D02*
X38874Y36687D01*
X38874Y37094D02*
X40018Y37094D01*
X40018Y37857D01*
X40018Y38263D02*
X40018Y39026D01*
X40018Y39433D02*
X40018Y40005D01*
X39827Y40195D01*
X39064Y40195D01*
X38874Y40005D01*
X38874Y39433D01*
X40018Y39433D01*
X39446Y38645D02*
X39446Y38263D01*
X38874Y38263D02*
X40018Y38263D01*
X41414Y38263D02*
X41414Y39026D01*
X41414Y39433D02*
X42367Y39433D01*
X42558Y39623D01*
X42558Y40005D01*
X42367Y40195D01*
X41414Y40195D01*
X41414Y40602D02*
X41414Y41174D01*
X41604Y41365D01*
X41986Y41365D01*
X42176Y41174D01*
X42176Y40602D01*
X42558Y40602D02*
X41414Y40602D01*
X42558Y39026D02*
X42558Y38263D01*
X41414Y38263D01*
X41414Y37857D02*
X42176Y37094D01*
X41986Y37285D02*
X42558Y37857D01*
X41986Y38263D02*
X41986Y38645D01*
X41414Y37094D02*
X42558Y37094D01*
X42558Y36687D02*
X41795Y36687D01*
X41414Y36306D01*
X41795Y35924D01*
X42558Y35924D01*
X42558Y35518D02*
X41414Y35518D01*
X41986Y35924D02*
X41986Y36687D01*
X42558Y35518D02*
X42176Y35136D01*
X42558Y34755D01*
X41414Y34755D01*
X41414Y34348D02*
X42558Y33586D01*
X42367Y33179D02*
X42558Y32988D01*
X42558Y32607D01*
X42367Y32416D01*
X42367Y32010D02*
X41604Y32010D01*
X41414Y31819D01*
X41414Y31438D01*
X41604Y31247D01*
X42367Y31247D01*
X42558Y31438D01*
X42558Y31819D01*
X42367Y32010D01*
X41604Y32416D02*
X41414Y32607D01*
X41414Y32988D01*
X41604Y33179D01*
X41795Y33179D01*
X41986Y32988D01*
X42176Y33179D01*
X42367Y33179D01*
X41986Y32988D02*
X41986Y32798D01*
X43954Y32806D02*
X43954Y33378D01*
X44144Y33569D01*
X44526Y33569D01*
X44716Y33378D01*
X44716Y32806D01*
X44907Y33007D02*
X45098Y33198D01*
X45098Y33579D01*
X44907Y33770D01*
X44907Y33975D02*
X44144Y34738D01*
X44907Y34738D01*
X45098Y34547D01*
X45098Y34166D01*
X44907Y33975D01*
X44144Y33975D01*
X43954Y34166D01*
X43954Y34547D01*
X44144Y34738D01*
X43954Y34939D02*
X45098Y34939D01*
X45098Y35346D02*
X43954Y35346D01*
X43954Y35918D01*
X44144Y36109D01*
X44526Y36109D01*
X44716Y35918D01*
X44716Y35346D01*
X44907Y35547D02*
X45098Y35738D01*
X45098Y36119D01*
X44907Y36310D01*
X44716Y36310D01*
X44526Y36119D01*
X44526Y35738D01*
X44335Y35547D01*
X44144Y35547D01*
X43954Y35738D01*
X43954Y36119D01*
X44144Y36310D01*
X43954Y36515D02*
X45098Y36515D01*
X45098Y37278D01*
X45098Y37289D02*
X44907Y37479D01*
X43954Y37479D01*
X43954Y37278D02*
X43954Y36515D01*
X43954Y36717D02*
X44907Y36717D01*
X45098Y36907D01*
X45098Y37289D01*
X45098Y37685D02*
X43954Y37685D01*
X45098Y38448D01*
X43954Y38448D01*
X43954Y38458D02*
X43954Y38077D01*
X44144Y37886D01*
X44335Y37886D01*
X44526Y38077D01*
X44526Y38458D01*
X44716Y38649D01*
X44907Y38649D01*
X45098Y38458D01*
X45098Y38077D01*
X44907Y37886D01*
X44526Y36897D02*
X44526Y36515D01*
X45098Y36109D02*
X44716Y35727D01*
X44526Y34939D02*
X44526Y34177D01*
X44144Y33770D02*
X43954Y33579D01*
X43954Y33198D01*
X44144Y33007D01*
X44907Y33007D01*
X44716Y33187D02*
X45098Y33569D01*
X45098Y34177D02*
X43954Y34177D01*
X43954Y32806D02*
X45098Y32806D01*
X45098Y32399D02*
X43954Y32399D01*
X44526Y32399D02*
X44526Y31637D01*
X44907Y31230D02*
X45098Y31039D01*
X45098Y30658D01*
X44907Y30467D01*
X44144Y30467D01*
X43954Y30658D01*
X43954Y31039D01*
X44144Y31230D01*
X43954Y31637D02*
X45098Y31637D01*
X46494Y31637D02*
X47638Y31637D01*
X47447Y31230D02*
X47638Y31039D01*
X47638Y30658D01*
X47447Y30467D01*
X46684Y30467D01*
X46494Y30658D01*
X46494Y31039D01*
X46684Y31230D01*
X47066Y31637D02*
X47066Y32399D01*
X47256Y32806D02*
X47256Y33378D01*
X47066Y33569D01*
X46684Y33569D01*
X46494Y33378D01*
X46494Y32806D01*
X47638Y32806D01*
X47447Y33007D02*
X47638Y33198D01*
X47638Y33579D01*
X47447Y33770D01*
X47256Y33770D01*
X47066Y33579D01*
X47066Y33198D01*
X46875Y33007D01*
X46684Y33007D01*
X46494Y33198D01*
X46494Y33579D01*
X46684Y33770D01*
X46875Y33975D02*
X46494Y34357D01*
X47638Y34357D01*
X47638Y34367D02*
X47638Y34749D01*
X47447Y34939D01*
X46494Y34939D01*
X46684Y35346D02*
X46875Y35346D01*
X47066Y35537D01*
X47066Y35918D01*
X47256Y36109D01*
X47447Y36109D01*
X47638Y35918D01*
X47638Y35537D01*
X47447Y35346D01*
X47256Y35547D02*
X47256Y36119D01*
X47066Y36310D01*
X46684Y36310D01*
X46494Y36119D01*
X46494Y35547D01*
X47638Y35547D01*
X47256Y35929D02*
X47638Y36310D01*
X47638Y36515D02*
X46494Y36515D01*
X46494Y37087D01*
X46684Y37278D01*
X47066Y37278D01*
X47256Y37087D01*
X47256Y36515D01*
X47066Y36717D02*
X47066Y37098D01*
X47066Y37685D02*
X47066Y38066D01*
X47066Y38077D02*
X47066Y38458D01*
X47256Y38649D01*
X47447Y38649D01*
X47638Y38458D01*
X47638Y38077D01*
X47447Y37886D01*
X47638Y37685D02*
X46494Y37685D01*
X46494Y38448D01*
X46494Y38458D02*
X46494Y38077D01*
X46684Y37886D01*
X46875Y37886D01*
X47066Y38077D01*
X47638Y38448D02*
X47638Y37685D01*
X47638Y37479D02*
X47638Y36717D01*
X46494Y36717D01*
X46494Y37479D01*
X46494Y38458D02*
X46684Y38649D01*
X46494Y38854D02*
X47638Y39617D01*
X46494Y39617D01*
X46494Y39818D02*
X46494Y39055D01*
X47638Y39055D01*
X47638Y39818D01*
X47638Y40024D02*
X47638Y40596D01*
X47447Y40786D01*
X46684Y40786D01*
X46494Y40596D01*
X46494Y40024D01*
X47638Y40024D01*
X47638Y40606D02*
X46494Y40606D01*
X46494Y40225D02*
X46494Y40988D01*
X46241Y41331D02*
X46241Y35484D01*
X46494Y35537D02*
X46684Y35346D01*
X46494Y35537D02*
X46494Y35918D01*
X46684Y36109D01*
X47638Y34738D02*
X47638Y33975D01*
X47447Y34177D02*
X47638Y34367D01*
X47447Y34177D02*
X46494Y34177D01*
X47256Y33187D02*
X47638Y33569D01*
X47638Y32399D02*
X46494Y32399D01*
X49034Y32399D02*
X50178Y32399D01*
X49034Y31637D01*
X50178Y31637D01*
X50178Y31230D02*
X50178Y30467D01*
X49034Y30467D01*
X49034Y31230D01*
X49606Y30849D02*
X49606Y30467D01*
X50152Y27319D02*
X50152Y26175D01*
X50533Y26175D02*
X49770Y26175D01*
X49364Y26175D02*
X48601Y26175D01*
X48982Y26175D02*
X48982Y27319D01*
X48601Y26937D01*
X48194Y26747D02*
X48003Y26556D01*
X47431Y26556D01*
X47431Y26175D02*
X47431Y27319D01*
X48003Y27319D01*
X48194Y27128D01*
X48194Y26747D01*
X47025Y27319D02*
X46643Y27319D01*
X46834Y27319D02*
X46834Y26365D01*
X46643Y26175D01*
X46453Y26175D01*
X46262Y26365D01*
X49770Y26937D02*
X50152Y27319D01*
X42558Y30467D02*
X42558Y30849D01*
X42558Y30658D02*
X41414Y30658D01*
X41414Y30467D02*
X41414Y30849D01*
X40018Y34755D02*
X38874Y34755D01*
X38874Y35924D02*
X40018Y36687D01*
X38874Y38263D02*
X38874Y39026D01*
X38649Y38913D02*
X38649Y39676D01*
X38458Y39866D01*
X37886Y39866D01*
X37886Y38722D01*
X38458Y38722D01*
X38649Y38913D01*
X37479Y38722D02*
X36717Y39866D01*
X36310Y39866D02*
X35547Y39866D01*
X35346Y39866D02*
X35918Y39866D01*
X36109Y39676D01*
X36109Y38913D01*
X35918Y38722D01*
X35346Y38722D01*
X35346Y39866D01*
X35929Y39866D02*
X35929Y38722D01*
X36717Y38722D02*
X37479Y39866D01*
X34938Y40426D02*
X33794Y40426D01*
X33794Y40998D01*
X33984Y41189D01*
X34366Y41189D01*
X34556Y40998D01*
X34862Y40697D02*
X34862Y40316D01*
X34671Y40125D01*
X33908Y40125D01*
X33718Y40316D01*
X33718Y40697D01*
X33908Y40888D01*
X33718Y41294D02*
X33718Y41676D01*
X33794Y41797D02*
X33794Y42178D01*
X33794Y41987D02*
X34938Y41987D01*
X34177Y39866D02*
X34939Y38722D01*
X33908Y38956D02*
X33718Y39146D01*
X33718Y39528D01*
X33908Y39718D01*
X33770Y39676D02*
X33579Y39866D01*
X33007Y39866D01*
X33007Y38722D01*
X32398Y38659D02*
X32398Y38087D01*
X31254Y38087D01*
X31254Y38659D01*
X31444Y38850D01*
X32207Y38850D01*
X32398Y38659D01*
X32398Y38835D02*
X32398Y38454D01*
X32207Y38263D01*
X32016Y38263D01*
X31826Y38454D01*
X31826Y38835D01*
X32016Y39026D01*
X32207Y39026D01*
X32398Y38835D01*
X32207Y39257D02*
X32398Y39447D01*
X32398Y39829D01*
X32207Y40019D01*
X32016Y40019D01*
X31826Y39829D01*
X31826Y39447D01*
X31635Y39257D01*
X31444Y39257D01*
X31254Y39447D01*
X31254Y39829D01*
X31444Y40019D01*
X31635Y40005D02*
X31826Y40195D01*
X32207Y40195D01*
X32398Y40005D01*
X32398Y39623D01*
X32207Y39433D01*
X31826Y39433D02*
X31635Y39814D01*
X31635Y40005D01*
X31254Y40195D02*
X31254Y39433D01*
X31826Y39433D01*
X31635Y39026D02*
X31826Y38835D01*
X31635Y39026D02*
X31444Y39026D01*
X31254Y38835D01*
X31254Y38454D01*
X31444Y38263D01*
X31635Y38263D01*
X31826Y38454D01*
X31826Y37857D02*
X31826Y37094D01*
X31254Y37666D01*
X32398Y37666D01*
X32207Y36687D02*
X32398Y36496D01*
X32398Y36115D01*
X32207Y35924D01*
X31826Y36115D02*
X31826Y36496D01*
X32016Y36687D01*
X32207Y36687D01*
X31826Y36115D02*
X31635Y35924D01*
X31444Y35924D01*
X31254Y36115D01*
X31254Y36496D01*
X31444Y36687D01*
X31826Y35719D02*
X31826Y34956D01*
X31254Y35528D01*
X32398Y35528D01*
X32398Y35518D02*
X32016Y35136D01*
X32016Y35327D02*
X32016Y34755D01*
X32398Y34755D02*
X31254Y34755D01*
X31254Y35327D01*
X31444Y35518D01*
X31826Y35518D01*
X32016Y35327D01*
X29858Y35537D02*
X29667Y35346D01*
X29858Y35537D02*
X29858Y35918D01*
X29667Y36109D01*
X29476Y36109D01*
X29286Y35918D01*
X29286Y35537D01*
X29095Y35346D01*
X28904Y35346D01*
X28714Y35537D01*
X28714Y35918D01*
X28904Y36109D01*
X28461Y36452D02*
X28461Y32944D01*
X28714Y33007D02*
X28714Y33579D01*
X28904Y33770D01*
X29286Y33770D01*
X29476Y33579D01*
X29476Y33007D01*
X29286Y33179D02*
X29667Y33179D01*
X29858Y32988D01*
X29858Y32607D01*
X29667Y32416D01*
X29286Y32416D02*
X29095Y32798D01*
X29095Y32988D01*
X29286Y33179D01*
X29476Y33389D02*
X29858Y33770D01*
X29858Y33007D02*
X28714Y33007D01*
X28714Y33179D02*
X28714Y32416D01*
X29286Y32416D01*
X29667Y32010D02*
X28904Y32010D01*
X28714Y31819D01*
X28714Y31438D01*
X28904Y31247D01*
X29667Y31247D01*
X29858Y31438D01*
X29858Y31819D01*
X29667Y32010D01*
X29858Y30849D02*
X29858Y30467D01*
X29858Y30658D02*
X28714Y30658D01*
X28714Y30467D02*
X28714Y30849D01*
X28714Y34177D02*
X28714Y34939D01*
X28714Y34558D02*
X29858Y34558D01*
X31001Y38024D02*
X31001Y41532D01*
X31254Y41199D02*
X31254Y40627D01*
X32398Y40627D01*
X32398Y41199D01*
X32207Y41390D01*
X31444Y41390D01*
X31254Y41199D01*
X31444Y41189D02*
X31254Y40998D01*
X31254Y40426D01*
X32398Y40426D01*
X32016Y40426D02*
X32016Y40998D01*
X31826Y41189D01*
X31444Y41189D01*
X31444Y41797D02*
X31254Y41987D01*
X31254Y42369D01*
X31444Y42559D01*
X31254Y42966D02*
X31254Y43538D01*
X31444Y43729D01*
X32207Y43729D01*
X32398Y43538D01*
X32398Y42966D01*
X31254Y42966D01*
X32207Y42559D02*
X32398Y42369D01*
X32398Y41987D01*
X32207Y41797D01*
X31444Y41797D01*
X32398Y41189D02*
X32016Y40807D01*
X31001Y40564D02*
X31001Y44072D01*
X33794Y40019D02*
X33794Y39257D01*
X43954Y39055D02*
X43954Y39627D01*
X44144Y39818D01*
X44526Y39818D01*
X44716Y39627D01*
X44716Y39055D01*
X45098Y39055D02*
X43954Y39055D01*
X44144Y38649D02*
X43954Y38458D01*
X43954Y40225D02*
X45098Y40225D01*
X45098Y40988D01*
X45098Y41394D02*
X43954Y41394D01*
X45098Y42157D01*
X43954Y42157D01*
X43954Y42564D02*
X43954Y43136D01*
X44144Y43326D01*
X44907Y43326D01*
X45098Y43136D01*
X45098Y42564D01*
X43954Y42564D01*
X44892Y42559D02*
X44892Y41605D01*
X45082Y41415D01*
X45463Y41415D01*
X45654Y41605D01*
X45654Y42559D01*
X46061Y42368D02*
X46061Y42177D01*
X46252Y41987D01*
X46633Y41987D01*
X46824Y41796D01*
X46824Y41605D01*
X46633Y41415D01*
X46252Y41415D01*
X46061Y41605D01*
X46061Y42368D02*
X46252Y42559D01*
X46633Y42559D01*
X46824Y42368D01*
X47230Y42559D02*
X47802Y42559D01*
X47993Y42368D01*
X47993Y42177D01*
X47802Y41987D01*
X47230Y41987D01*
X47230Y41415D02*
X47230Y42559D01*
X47802Y41987D02*
X47993Y41796D01*
X47993Y41605D01*
X47802Y41415D01*
X47230Y41415D01*
X47066Y39437D02*
X47066Y39055D01*
X47638Y38854D02*
X46494Y38854D01*
X44526Y40225D02*
X44526Y40606D01*
X43954Y40988D02*
X43954Y40225D01*
X43701Y43670D02*
X43701Y35484D01*
X51169Y48882D02*
X51550Y49264D01*
X51550Y50026D01*
X51957Y50026D02*
X51957Y49073D01*
X52147Y48882D01*
X52529Y48882D01*
X52719Y49073D01*
X52719Y50026D01*
X53126Y49836D02*
X53126Y49645D01*
X53317Y49454D01*
X53698Y49454D01*
X53889Y49264D01*
X53889Y49073D01*
X53698Y48882D01*
X53317Y48882D01*
X53126Y49073D01*
X53126Y49836D02*
X53317Y50026D01*
X53698Y50026D01*
X53889Y49836D01*
X54295Y50026D02*
X54295Y48882D01*
X54867Y48882D01*
X55058Y49073D01*
X55058Y49264D01*
X54867Y49454D01*
X54295Y49454D01*
X54295Y50026D02*
X54867Y50026D01*
X55058Y49836D01*
X55058Y49645D01*
X54867Y49454D01*
X51169Y48882D02*
X50787Y49264D01*
X50787Y50026D01*
X45910Y52070D02*
X37910Y52070D01*
X24654Y44832D02*
X24464Y45022D01*
X24082Y45022D01*
X23892Y44832D01*
X23892Y44641D01*
X24082Y44450D01*
X24464Y44450D01*
X24654Y44260D01*
X24654Y44069D01*
X24464Y43878D01*
X24082Y43878D01*
X23892Y44069D01*
X23485Y44069D02*
X23485Y44832D01*
X23294Y45022D01*
X22722Y45022D01*
X22722Y43878D01*
X23294Y43878D01*
X23485Y44069D01*
X22316Y43878D02*
X21553Y43878D01*
X21553Y45022D01*
X22316Y45022D01*
X21934Y44450D02*
X21553Y44450D01*
X21146Y43878D02*
X20384Y43878D01*
X20384Y45022D01*
X06673Y43562D02*
X06482Y43752D01*
X06101Y43752D01*
X05910Y43562D01*
X05910Y43371D01*
X06101Y43180D01*
X06482Y43180D01*
X06673Y42990D01*
X06673Y42799D01*
X06482Y42609D01*
X06101Y42609D01*
X05910Y42799D01*
X05504Y42799D02*
X05504Y43562D01*
X05313Y43752D01*
X04932Y43752D01*
X04741Y43562D01*
X04741Y42799D01*
X04932Y42609D01*
X05313Y42609D01*
X05504Y42799D01*
X04334Y42990D02*
X04334Y43752D01*
X04334Y42990D02*
X03953Y42609D01*
X03572Y42990D01*
X03572Y43752D01*
X03165Y43562D02*
X03165Y43180D01*
X02974Y42990D01*
X02402Y42990D01*
X02402Y42609D02*
X02402Y43752D01*
X02974Y43752D01*
X03165Y43562D01*
X02784Y42990D02*
X03165Y42609D01*
X01996Y42609D02*
X01233Y42609D01*
X01233Y43752D01*
X01996Y43752D01*
X01614Y43180D02*
X01233Y43180D01*
X00826Y42990D02*
X00826Y42799D01*
X00635Y42609D01*
X00254Y42609D01*
X00063Y42799D01*
X00254Y43180D02*
X00063Y43371D01*
X00063Y43562D01*
X00254Y43752D01*
X00635Y43752D01*
X00826Y43562D01*
X00635Y43180D02*
X00826Y42990D01*
X00635Y43180D02*
X00254Y43180D01*
X01424Y47688D02*
X01233Y47879D01*
X01424Y47688D02*
X01805Y47688D01*
X01996Y47879D01*
X01996Y48260D01*
X01805Y48451D01*
X01614Y48451D01*
X01233Y48260D01*
X01233Y48832D01*
X01996Y48832D01*
X02402Y48832D02*
X02402Y48070D01*
X02784Y47688D01*
X03165Y48070D01*
X03165Y48832D01*
X00826Y48260D02*
X00063Y48260D01*
X00445Y47879D02*
X00445Y48642D01*
X05968Y36487D02*
X05778Y36296D01*
X05778Y35915D01*
X05968Y35724D01*
X05968Y36487D02*
X06159Y36487D01*
X06921Y35724D01*
X06921Y36487D01*
X07112Y35317D02*
X07112Y34555D01*
X06921Y34148D02*
X06540Y33767D01*
X06540Y33957D02*
X06540Y33385D01*
X06921Y33385D02*
X05778Y33385D01*
X05778Y33957D01*
X05968Y34148D01*
X06350Y34148D01*
X06540Y33957D01*
X06921Y32979D02*
X05778Y32979D01*
X05778Y32216D02*
X06921Y32216D01*
X06540Y32597D01*
X06921Y32979D01*
X06350Y31809D02*
X06540Y31618D01*
X06540Y31047D01*
X06921Y31047D02*
X05778Y31047D01*
X05778Y31618D01*
X05968Y31809D01*
X06350Y31809D01*
X08318Y04435D02*
X08508Y04054D01*
X08890Y03672D01*
X08890Y04244D01*
X09080Y04435D01*
X09271Y04435D01*
X09462Y04244D01*
X09462Y03863D01*
X09271Y03672D01*
X08890Y03672D01*
X08890Y03266D02*
X09080Y03075D01*
X09080Y02503D01*
X09462Y02503D02*
X08318Y02503D01*
X08318Y03075D01*
X08508Y03266D01*
X08890Y03266D01*
X08318Y02096D02*
X08318Y01715D01*
X08318Y01905D02*
X09271Y01905D01*
X09462Y01715D01*
X09462Y01524D01*
X09271Y01334D01*
X04382Y01524D02*
X04382Y01715D01*
X04191Y01905D01*
X03238Y01905D01*
X03238Y01715D02*
X03238Y02096D01*
X03238Y02503D02*
X03238Y03075D01*
X03428Y03266D01*
X03810Y03266D01*
X04000Y03075D01*
X04000Y02503D01*
X04382Y02503D02*
X03238Y02503D01*
X03238Y03672D02*
X03238Y04435D01*
X03428Y04435D01*
X04191Y03672D01*
X04382Y03672D01*
X04382Y01524D02*
X04191Y01334D01*
X22364Y01639D02*
X22364Y02020D01*
X22364Y01829D02*
X23317Y01829D01*
X23508Y01639D01*
X23508Y01448D01*
X23317Y01257D01*
X23126Y02427D02*
X23126Y02999D01*
X22936Y03189D01*
X22554Y03189D01*
X22364Y02999D01*
X22364Y02427D01*
X23508Y02427D01*
X23317Y03596D02*
X23508Y03787D01*
X23508Y04168D01*
X23317Y04359D01*
X22936Y04359D01*
X22745Y04168D01*
X22745Y03977D01*
X22936Y03596D01*
X22364Y03596D01*
X22364Y04359D01*
X55384Y04369D02*
X56337Y04369D01*
X56528Y04179D01*
X56528Y03988D01*
X56337Y03797D01*
X56055Y03516D02*
X62055Y03516D01*
X62055Y00016D01*
X56055Y00016D01*
X56055Y03516D01*
X56555Y03016D02*
X57055Y03016D01*
X57055Y00516D01*
X56555Y00516D01*
X56555Y03016D01*
X58055Y02516D02*
X58055Y01016D01*
X60055Y01016D01*
X60055Y02516D01*
X58055Y02516D01*
X55384Y04179D02*
X55384Y04560D01*
X55384Y04967D02*
X55384Y05539D01*
X55574Y05729D01*
X55956Y05729D01*
X56146Y05539D01*
X56146Y04967D01*
X56528Y04967D02*
X55384Y04967D01*
X55765Y06136D02*
X55384Y06517D01*
X56528Y06517D01*
X56528Y06136D02*
X56528Y06899D01*
X61055Y03016D02*
X61055Y00516D01*
X61555Y00516D01*
X61555Y03016D01*
X61055Y03016D01*
X66738Y04255D02*
X66738Y04636D01*
X66738Y04445D02*
X67691Y04445D01*
X67882Y04255D01*
X67882Y04064D01*
X67691Y03873D01*
X67882Y05043D02*
X66738Y05043D01*
X66738Y05615D01*
X66928Y05806D01*
X67310Y05806D01*
X67500Y05615D01*
X67500Y05043D01*
X67882Y06212D02*
X67119Y06975D01*
X66928Y06975D01*
X66738Y06784D01*
X66738Y06403D01*
X66928Y06212D01*
X67882Y06212D02*
X67882Y06975D01*
X71818Y06784D02*
X72008Y06975D01*
X72199Y06975D01*
X72390Y06784D01*
X72580Y06975D01*
X72771Y06975D01*
X72962Y06784D01*
X72962Y06403D01*
X72771Y06212D01*
X72390Y06594D02*
X72390Y06784D01*
X71818Y06784D02*
X71818Y06403D01*
X72008Y06212D01*
X72008Y05806D02*
X72390Y05806D01*
X72580Y05615D01*
X72580Y05043D01*
X72962Y05043D02*
X71818Y05043D01*
X71818Y05615D01*
X72008Y05806D01*
X71818Y04636D02*
X71818Y04255D01*
X71818Y04445D02*
X72771Y04445D01*
X72962Y04255D01*
X72962Y04064D01*
X72771Y03873D01*
X76375Y03476D02*
X76375Y-00024D01*
X82375Y-00024D01*
X82375Y03476D01*
X76375Y03476D01*
X76898Y03873D02*
X76898Y04445D01*
X77088Y04636D01*
X77470Y04636D01*
X77660Y04445D01*
X77660Y03873D01*
X78042Y03873D02*
X76898Y03873D01*
X76875Y02976D02*
X77375Y02976D01*
X77375Y00476D01*
X76875Y00476D01*
X76875Y02976D01*
X78375Y02476D02*
X80375Y02476D01*
X80375Y00976D01*
X78375Y00976D01*
X78375Y02476D01*
X78042Y05043D02*
X76898Y05043D01*
X76898Y05806D02*
X78042Y05806D01*
X77660Y05424D01*
X78042Y05043D01*
X78042Y06212D02*
X76898Y06212D01*
X76898Y06784D01*
X77088Y06975D01*
X77470Y06975D01*
X77660Y06784D01*
X77660Y06212D01*
X77660Y06594D02*
X78042Y06975D01*
X78232Y07382D02*
X78232Y08144D01*
X78042Y08551D02*
X78042Y09314D01*
X78042Y08932D02*
X76898Y08932D01*
X77279Y08551D01*
X81375Y02976D02*
X81375Y00476D01*
X81875Y00476D01*
X81875Y02976D01*
X81375Y02976D01*
X73393Y00458D02*
X73393Y00267D01*
X73202Y00077D01*
X72821Y00077D01*
X72630Y00267D01*
X72630Y00458D01*
X72821Y00649D01*
X73202Y00649D01*
X73393Y00458D01*
X73202Y00077D02*
X73393Y-00114D01*
X73393Y-00305D01*
X73202Y-00495D01*
X72821Y-00495D01*
X72630Y-00305D01*
X72630Y-00114D01*
X72821Y00077D01*
X72224Y00267D02*
X72033Y00077D01*
X72224Y-00114D01*
X72224Y-00305D01*
X72033Y-00495D01*
X71652Y-00495D01*
X71461Y-00305D01*
X71842Y00077D02*
X72033Y00077D01*
X72224Y00267D02*
X72224Y00458D01*
X72033Y00649D01*
X71652Y00649D01*
X71461Y00458D01*
X71054Y00458D02*
X71054Y00077D01*
X70863Y-00114D01*
X70292Y-00114D01*
X70292Y-00495D02*
X70292Y00649D01*
X70863Y00649D01*
X71054Y00458D01*
X69885Y00649D02*
X69503Y00649D01*
X69694Y00649D02*
X69694Y-00305D01*
X69503Y-00495D01*
X69313Y-00495D01*
X69122Y-00305D01*
X59639Y32496D02*
X58876Y32496D01*
X58686Y32687D01*
X58686Y33068D01*
X58876Y33259D01*
X58876Y33666D02*
X58686Y33856D01*
X58686Y34238D01*
X58876Y34428D01*
X59067Y34428D01*
X59258Y34238D01*
X59448Y34428D01*
X59639Y34428D01*
X59830Y34238D01*
X59830Y33856D01*
X59639Y33666D01*
X59639Y33259D02*
X59830Y33068D01*
X59830Y32687D01*
X59639Y32496D01*
X59258Y34047D02*
X59258Y34238D01*
X59639Y34835D02*
X59830Y34835D01*
X59639Y34835D02*
X58876Y35598D01*
X58686Y35598D01*
X58686Y34835D01*
X59194Y37199D02*
X59194Y37580D01*
X59194Y37389D02*
X60147Y37389D01*
X60338Y37199D01*
X60338Y37008D01*
X60147Y36817D01*
X59956Y37987D02*
X59956Y38559D01*
X59766Y38749D01*
X59384Y38749D01*
X59194Y38559D01*
X59194Y37987D01*
X60338Y37987D01*
X60147Y39156D02*
X60338Y39347D01*
X60338Y39728D01*
X60147Y39919D01*
X59956Y39919D01*
X59766Y39728D01*
X59766Y39537D01*
X59766Y39728D02*
X59575Y39919D01*
X59384Y39919D01*
X59194Y39728D01*
X59194Y39347D01*
X59384Y39156D01*
X59766Y40325D02*
X59766Y40897D01*
X59956Y41088D01*
X60147Y41088D01*
X60338Y40897D01*
X60338Y40516D01*
X60147Y40325D01*
X59766Y40325D01*
X59384Y40707D01*
X59194Y41088D01*
X73708Y45054D02*
X74089Y44672D01*
X74470Y45054D01*
X74470Y45816D01*
X74877Y45626D02*
X75068Y45816D01*
X75449Y45816D01*
X75640Y45626D01*
X76047Y45626D02*
X76047Y44863D01*
X76237Y44672D01*
X76619Y44672D01*
X76809Y44863D01*
X76809Y45626D02*
X76619Y45816D01*
X76237Y45816D01*
X76047Y45626D01*
X75640Y44863D02*
X75449Y44672D01*
X75068Y44672D01*
X74877Y44863D01*
X74877Y45626D01*
X73708Y45816D02*
X73708Y45054D01*
X74878Y38335D02*
X74688Y38144D01*
X74688Y37763D01*
X74878Y37572D01*
X74878Y37166D02*
X74688Y36975D01*
X74688Y36594D01*
X74878Y36403D01*
X75641Y36403D01*
X75832Y36594D01*
X75832Y36975D01*
X75641Y37166D01*
X75832Y37572D02*
X75069Y38335D01*
X74878Y38335D01*
X75832Y38335D02*
X75832Y37572D01*
X75832Y36005D02*
X75832Y35624D01*
X75832Y35814D02*
X74688Y35814D01*
X74688Y35624D02*
X74688Y36005D01*
D484*
X49905Y50174D03*
X49155Y50174D03*
X35300Y50174D03*
X34550Y50174D03*
X33395Y50174D03*
X32645Y50174D03*
D485*
X33020Y50174D03*
X34925Y50174D03*
X49530Y50174D03*
D486*
X52070Y50199D03*
X66516Y50449D03*
X30480Y50199D03*
X29210Y50449D03*
X26670Y50199D03*
X25400Y50449D03*
X22860Y50199D03*
X21590Y50449D03*
X19050Y50199D03*
X17780Y50449D03*
X15240Y50199D03*
X13970Y50449D03*
X11430Y50199D03*
X10160Y50449D03*
D487*
X48379Y29228D02*
X48379Y28190D01*
X48587Y27983D01*
X49002Y27983D01*
X49210Y28190D01*
X49210Y29228D01*
X49689Y28813D02*
X50104Y29228D01*
X50104Y27983D01*
X49689Y27983D02*
X50520Y27983D01*
D488*
X73558Y36017D03*
D489*
X70485Y36259D03*
X70485Y45021D03*
D490*
X70231Y43180D03*
X70231Y40640D03*
X70231Y38100D03*
D491*
X70485Y39370D03*
X70485Y41910D03*
D492*
X55880Y40069D03*
M02*
